<svg width="254" height="191" viewBox="0 0 254 191" fill="none" xmlns="http://www.w3.org/2000/svg">
<path d="M121.107 143.638H23.0173C22.2484 143.636 21.5114 143.33 20.9677 142.787C20.424 142.243 20.118 141.506 20.1166 140.737V2.87478C20.1247 2.11043 20.4336 1.38004 20.9766 0.841912C21.5196 0.303787 22.2528 0.00129431 23.0173 0H121.107C121.875 0.00134553 122.612 0.307494 123.155 0.851237C123.698 1.39498 124.003 2.13189 124.003 2.90018V140.737C124.003 141.506 123.698 142.243 123.155 142.786C122.612 143.33 121.875 143.636 121.107 143.638ZM23.0173 0.101583C22.2821 0.102926 21.5774 0.395532 21.0575 0.915317C20.5376 1.4351 20.245 2.1397 20.2436 2.87478V140.737C20.245 141.473 20.5376 142.177 21.0575 142.697C21.5774 143.217 22.2821 143.509 23.0173 143.511H121.107C121.842 143.509 122.546 143.217 123.065 142.697C123.584 142.177 123.876 141.472 123.876 140.737V2.87478C123.876 2.14016 123.584 1.43556 123.065 0.915629C122.546 0.395699 121.842 0.102928 121.107 0.101583H23.0173Z" fill="#E6E6E6"/>
<path d="M230.988 143.638H132.893C132.124 143.636 131.388 143.33 130.845 142.786C130.302 142.243 129.997 141.506 129.997 140.737V2.87478C130.004 2.1109 130.312 1.3805 130.854 0.842232C131.396 0.303966 132.129 0.00130858 132.893 0H230.988C231.752 0.00130858 232.484 0.303966 233.027 0.842232C233.569 1.3805 233.877 2.1109 233.883 2.87478V140.737C233.883 141.506 233.578 142.243 233.035 142.786C232.493 143.33 231.756 143.636 230.988 143.638ZM132.893 0.101583C132.158 0.102928 131.454 0.395699 130.935 0.915629C130.416 1.43556 130.124 2.14016 130.124 2.87478V140.737C130.124 141.472 130.416 142.177 130.935 142.697C131.454 143.217 132.158 143.509 132.893 143.511H230.988C231.723 143.509 232.429 143.217 232.949 142.697C233.47 142.178 233.764 141.473 233.766 140.737V2.87478C233.764 2.13923 233.47 1.43465 232.949 0.915005C232.429 0.395364 231.723 0.10292 230.988 0.101583H132.893Z" fill="#E6E6E6"/>
<path d="M43.6573 169.379H22.7227V169.506H43.6573V169.379Z" fill="#E0E0E0"/>
<path d="M86.3294 168.363H65.3337V168.49H86.3294V168.363Z" fill="#E0E0E0"/>
<path d="M113.65 168.363H108.57V168.49H113.65V168.363Z" fill="#E0E0E0"/>
<path d="M62.8751 172.7H39.3801V172.828H62.8751V172.7Z" fill="#E0E0E0"/>
<path d="M144.14 169.313H133.167V169.44H144.14V169.313Z" fill="#E0E0E0"/>
<path d="M162.85 169.313H148.661V169.44H162.85V169.313Z" fill="#E0E0E0"/>
<path d="M231.277 171.461H199.558V171.589H231.277V171.461Z" fill="#E0E0E0"/>
<path d="M254 164.396H0V164.523H254V164.396Z" fill="#EBEBEB"/>
<path opacity="0.8" d="M170.094 10.5391L168.829 27.9503C168.786 28.5403 168.536 29.0962 168.123 29.5198C167.887 29.7708 167.603 29.9713 167.288 30.1093C166.973 30.2472 166.633 30.3197 166.289 30.3223H152.324C152.019 30.3254 151.717 30.2649 151.436 30.1446C151.156 30.0243 150.904 29.8469 150.696 29.6237C150.488 29.4005 150.329 29.1365 150.228 28.8483C150.128 28.5602 150.089 28.2544 150.114 27.9503L151.384 10.5391C151.436 9.89845 151.725 9.30021 152.195 8.86149C152.665 8.42278 153.281 8.17516 153.924 8.16714H167.889C168.194 8.16237 168.497 8.22182 168.778 8.34161C169.059 8.4614 169.312 8.63886 169.519 8.8625C169.727 9.08613 169.886 9.35095 169.985 9.63977C170.084 9.9286 170.121 10.235 170.094 10.5391Z" fill="#E0E0E0"/>
<path d="M163.937 19.1976C164.467 16.6661 163.234 14.266 161.182 13.8368C159.131 13.4076 157.039 15.1118 156.509 17.6433C155.979 20.1748 157.212 22.5749 159.264 23.0041C161.315 23.4333 163.407 21.7291 163.937 19.1976Z" fill="white"/>
<path d="M165.801 29.1237H153.02C152.207 29.1237 151.648 28.7326 151.628 28.1891C151.597 27.3968 155.743 23.9683 159.675 24.268H159.766C162.182 24.3536 164.498 25.2479 166.345 26.8076C168.245 28.3008 166.451 29.1237 165.801 29.1237Z" fill="white"/>
<path d="M98.0441 29.6875C96.7085 29.6822 95.4224 29.1808 94.4358 28.2807C93.4491 27.3806 92.8323 26.1459 92.705 24.8166C92.6458 24.1852 92.7186 23.5485 92.9188 22.9468C93.1191 22.3451 93.4423 21.7917 93.868 21.3216C94.2937 20.8516 94.8125 20.4752 95.3915 20.2165C95.9706 19.9578 96.5971 19.8223 97.2313 19.8187C98.5669 19.824 99.853 20.3254 100.84 21.2255C101.826 22.1256 102.443 23.3602 102.57 24.6896C102.63 25.3209 102.557 25.9577 102.357 26.5594C102.156 27.1611 101.833 27.7145 101.407 28.1846C100.982 28.6546 100.463 29.031 99.8839 29.2897C99.3048 29.5484 98.6783 29.6839 98.0441 29.6875ZM97.4497 22.4396C97.152 22.4396 96.8575 22.5019 96.5853 22.6225C96.3131 22.7431 96.0691 22.9193 95.8691 23.1399C95.6691 23.3604 95.5175 23.6204 95.424 23.903C95.3305 24.1857 95.2972 24.4847 95.3263 24.781C95.3888 25.4035 95.679 25.9811 96.1412 26.4029C96.6034 26.8246 97.205 27.061 97.8307 27.0666C98.1281 27.0659 98.422 27.0031 98.6936 26.8822C98.9652 26.7613 99.2085 26.5849 99.408 26.3644C99.6075 26.144 99.7586 25.8843 99.8518 25.602C99.945 25.3197 99.9781 25.021 99.9491 24.7252C99.8869 24.1052 99.5988 23.5298 99.1399 23.1084C98.6809 22.6869 98.083 22.4489 97.4599 22.4396H97.4497Z" fill="#E0E0E0"/>
<path d="M98.298 22.0586L96.4285 22.084L95.4329 10.0363L97.3074 10.016L98.298 22.0586Z" fill="#E0E0E0"/>
<path d="M99.0801 10.5544L95.5647 10.6001L95.4124 8.72589L98.9277 8.68018L99.0801 10.5544Z" fill="#E0E0E0"/>
<path d="M99.2835 12.9618L95.9764 13.0025L95.824 11.1283L99.126 11.0876L99.2835 12.9618Z" fill="#E0E0E0"/>
<path d="M99.5681 16.3547L96.6826 16.3903L96.5251 14.5211L99.4106 14.4856L99.5681 16.3547Z" fill="#E0E0E0"/>
<path d="M40.2894 132.078C40.3002 132.229 40.3189 132.38 40.3453 132.53C40.5203 133.504 41.007 134.395 41.7321 135.069C42.5558 135.851 43.6447 136.292 44.7801 136.303H87.701C88.7181 136.32 89.7006 135.934 90.4349 135.23C91.1693 134.527 91.5962 133.562 91.6228 132.545C91.6342 131.942 91.5264 131.344 91.3056 130.783C91.0848 130.222 90.7553 129.711 90.336 129.278C89.9168 128.845 89.4161 128.5 88.8628 128.261C88.3094 128.022 87.7143 127.895 87.1118 127.887H44.1959C43.6565 127.88 43.1216 127.986 42.6256 128.198C42.1296 128.41 41.6833 128.724 41.3155 129.118C40.9477 129.513 40.6664 129.98 40.4897 130.49C40.313 130.999 40.2448 131.54 40.2894 132.078Z" fill="#F0F0F0"/>
<path d="M91.6381 132.53C91.6348 132.666 91.6212 132.802 91.5974 132.936C91.4735 131.828 90.9486 130.803 90.1215 130.054C89.2944 129.306 88.2221 128.886 87.1067 128.873L41.4629 128.944C42.2003 128.237 43.1848 127.847 44.2061 127.857H87.127C87.7332 127.852 88.3341 127.971 88.8932 128.205C89.4523 128.439 89.958 128.785 90.3797 129.22C90.8015 129.656 91.1304 130.172 91.3467 130.738C91.563 131.305 91.6621 131.909 91.6381 132.514V132.53Z" fill="#E0E0E0"/>
<path d="M84.2925 129.899L84.4347 131.93L86.3601 131.214L86.7969 132.23L84.8361 132.9L86.2077 134.622L85.3441 135.272L84.008 133.484L82.9412 135.272L81.9913 134.622L83.1038 132.9L81.0718 132.255L81.3613 131.239L83.3933 131.93L83.2511 129.899H84.2925Z" fill="white"/>
<path d="M72.5525 129.899L72.6998 131.93L74.6201 131.214L75.057 132.23L73.091 132.875L74.4677 134.597L73.5787 135.247L72.2426 133.459L71.1758 135.247L70.2259 134.597L71.3384 132.875L69.3064 132.23L69.601 131.214L71.633 131.905L71.4908 129.873L72.5525 129.899Z" fill="white"/>
<path d="M60.8176 129.899L60.9598 131.93L62.8852 131.214L63.322 132.23L61.3561 132.875L62.7277 134.597L61.8387 135.247L60.5026 133.459L59.4358 135.247L58.4859 134.597L59.5984 132.875L57.5664 132.23L57.861 131.214L59.893 131.905L59.7508 129.873L60.8176 129.899Z" fill="white"/>
<path d="M49.0778 129.899L49.2201 131.93L51.1454 131.214L51.5823 132.23L49.6163 132.875L50.9879 134.597L50.104 135.247L48.7679 133.484L47.6961 135.272L46.7359 134.622L47.8535 132.9L45.8215 132.255L46.1162 131.239L48.1482 131.93L48.0059 129.899H49.0778Z" fill="white"/>
<path d="M77.5919 126.389H75.5903L75.5954 125.881H77.5969L77.5919 126.389Z" fill="#E0E0E0"/>
<path d="M86.1923 126.389H79.6646L79.6747 125.881H86.2025L86.1923 126.389Z" fill="#E0E0E0"/>
<g opacity="0.8">
<path d="M136.845 123.829L144.942 136.288L171.643 109.592C171.669 109.569 171.69 109.541 171.705 109.51C171.721 109.479 171.73 109.445 171.732 109.41C171.734 109.376 171.729 109.341 171.718 109.308C171.707 109.275 171.689 109.245 171.666 109.219C171.643 109.193 171.615 109.172 171.584 109.157C171.552 109.141 171.519 109.132 171.484 109.13C171.449 109.128 171.414 109.133 171.382 109.144C171.349 109.155 171.318 109.173 171.292 109.196L145.847 129.147L141.041 121.401L136.845 123.829Z" fill="#E0E0E0"/>
</g>
<path opacity="0.1" d="M132.009 35.1577L112.837 106.855H119.283L138.242 35.1577H132.009Z" fill="white"/>
<path opacity="0.1" d="M141.96 35.1577L122.789 106.855H135.58L154.539 35.1577H141.96Z" fill="white"/>
<path d="M210.977 99.8455L215.041 42.2991C215.079 41.8569 215.024 41.4118 214.878 40.9924C214.733 40.5731 214.502 40.1889 214.198 39.8648C213.895 39.5406 213.527 39.2837 213.119 39.1107C212.71 38.9377 212.27 38.8525 211.826 38.8605L111.374 38.9468C110.439 38.9597 109.543 39.3192 108.859 39.9555C108.175 40.5918 107.751 41.4596 107.67 42.3905L103.632 99.942C103.595 100.384 103.651 100.83 103.797 101.249C103.943 101.668 104.175 102.052 104.478 102.377C104.782 102.701 105.15 102.957 105.559 103.13C105.968 103.303 106.409 103.389 106.853 103.381L207.264 103.294C208.201 103.285 209.101 102.926 209.788 102.288C210.475 101.651 210.899 100.779 210.977 99.8455Z" fill="#263238"/>
<path d="M209.687 98.591L213.751 41.0445C213.79 40.6022 213.735 40.1567 213.59 39.737C213.445 39.3173 213.213 38.9328 212.91 38.6085C212.607 38.2842 212.239 38.0273 211.829 37.8546C211.42 37.6819 210.979 37.5972 210.535 37.606L110.084 37.6923C109.149 37.7042 108.253 38.0634 107.569 38.7001C106.886 39.3367 106.464 40.2051 106.385 41.136L102.321 98.6875C102.284 99.1297 102.339 99.5748 102.484 99.9942C102.629 100.414 102.861 100.798 103.164 101.122C103.467 101.446 103.835 101.703 104.244 101.876C104.653 102.049 105.093 102.134 105.537 102.126L205.984 102.04C206.919 102.028 207.817 101.668 208.502 101.03C209.186 100.393 209.609 99.5232 209.687 98.591Z" fill="#3A0065"/>
<path opacity="0.6" d="M207.025 99.4442C206.819 99.6339 206.549 99.739 206.268 99.7388L105.816 99.8252C105.655 99.8234 105.496 99.7889 105.348 99.7239C105.201 99.659 105.068 99.5648 104.958 99.4471C104.848 99.3294 104.763 99.1906 104.708 99.0391C104.653 98.8876 104.629 98.7265 104.638 98.5655L108.702 41.0191C108.718 40.7397 108.841 40.4773 109.047 40.2877C109.252 40.0958 109.523 39.9903 109.804 39.9931L210.256 39.9067C210.417 39.9085 210.576 39.943 210.724 40.008C210.872 40.0729 211.004 40.1671 211.114 40.2848C211.225 40.4026 211.31 40.5413 211.365 40.6928C211.42 40.8443 211.444 41.0054 211.435 41.1664L207.371 98.7128C207.352 98.9916 207.229 99.253 207.025 99.4442Z" fill="white"/>
<path d="M173.614 67.8063H138.354C138.043 67.8115 137.744 67.9291 137.514 68.1373C137.283 68.3456 137.136 68.6304 137.099 68.9389L136.555 74.0943C136.538 74.2375 136.551 74.3828 136.595 74.5205C136.638 74.6582 136.71 74.7851 136.806 74.8927C136.902 75.0004 137.02 75.0863 137.152 75.1448C137.284 75.2033 137.427 75.233 137.571 75.232H172.831C173.143 75.2257 173.442 75.1072 173.674 74.8982C173.905 74.6892 174.053 74.4038 174.091 74.0943L174.63 68.9389C174.646 68.7961 174.632 68.6513 174.589 68.5142C174.545 68.3772 174.473 68.2509 174.377 68.1439C174.281 68.0368 174.163 67.9513 174.032 67.8931C173.9 67.8349 173.758 67.8053 173.614 67.8063Z" fill="white"/>
<path d="M142.55 88.8594H137.048C136.736 88.8657 136.437 88.9842 136.206 89.1932C135.974 89.4022 135.826 89.6876 135.788 89.9971L135.25 95.1524C135.233 95.2953 135.247 95.4401 135.291 95.5771C135.335 95.7142 135.407 95.8404 135.503 95.9475C135.599 96.0546 135.717 96.1401 135.848 96.1982C135.98 96.2564 136.122 96.286 136.266 96.2851H141.768C142.079 96.279 142.377 96.1612 142.608 95.9532C142.84 95.7453 142.988 95.461 143.027 95.1524L143.566 89.9971C143.583 89.8539 143.57 89.7085 143.527 89.5709C143.483 89.4332 143.411 89.3063 143.315 89.1986C143.219 89.091 143.101 89.0051 142.969 88.9466C142.837 88.8881 142.694 88.8584 142.55 88.8594Z" fill="white"/>
<path d="M152.049 88.8594H146.547C146.236 88.8657 145.937 88.9842 145.705 89.1932C145.474 89.4022 145.326 89.6876 145.288 89.9971L144.749 95.1524C144.733 95.2953 144.747 95.4401 144.79 95.5771C144.834 95.7142 144.906 95.8404 145.002 95.9475C145.098 96.0546 145.216 96.1401 145.347 96.1982C145.479 96.2564 145.621 96.286 145.765 96.2851H151.267C151.578 96.279 151.876 96.1612 152.108 95.9532C152.339 95.7453 152.488 95.461 152.527 95.1524L153.065 89.9971C153.082 89.8539 153.069 89.7085 153.026 89.5709C152.983 89.4332 152.91 89.3063 152.814 89.1986C152.718 89.091 152.6 89.0051 152.468 88.9466C152.336 88.8881 152.193 88.8584 152.049 88.8594Z" fill="white"/>
<path d="M161.544 88.8594H156.047C155.736 88.8657 155.437 88.9842 155.205 89.1932C154.974 89.4022 154.826 89.6876 154.788 89.9971L154.249 95.1524C154.233 95.2953 154.247 95.4401 154.29 95.5771C154.334 95.7142 154.406 95.8404 154.502 95.9475C154.598 96.0546 154.716 96.1401 154.847 96.1982C154.979 96.2564 155.121 96.286 155.265 96.2851H160.767C161.078 96.279 161.376 96.1612 161.608 95.9532C161.839 95.7453 161.988 95.461 162.027 95.1524L162.56 89.9971C162.577 89.8539 162.564 89.7085 162.521 89.5709C162.477 89.4332 162.405 89.3063 162.309 89.1986C162.213 89.091 162.095 89.0051 161.963 88.9466C161.831 88.8881 161.688 88.8584 161.544 88.8594Z" fill="white"/>
<path d="M171.049 88.8594H165.547C165.235 88.8657 164.936 88.9842 164.705 89.1932C164.473 89.4022 164.325 89.6876 164.287 89.9971L163.749 95.1524C163.732 95.2953 163.746 95.4401 163.79 95.5771C163.833 95.7142 163.906 95.8404 164.002 95.9475C164.098 96.0546 164.215 96.1401 164.347 96.1982C164.478 96.2564 164.621 96.286 164.765 96.2851H170.266C170.577 96.279 170.876 96.1612 171.107 95.9532C171.338 95.7453 171.487 95.461 171.526 95.1524L172.065 89.9971C172.082 89.8539 172.069 89.7085 172.025 89.5709C171.982 89.4332 171.91 89.3063 171.814 89.1986C171.718 89.091 171.6 89.0051 171.468 88.9466C171.336 88.8881 171.193 88.8584 171.049 88.8594Z" fill="white"/>
<path d="M164.831 85.6036H142.778C142.496 85.6103 142.215 85.5559 141.956 85.4441C141.697 85.3324 141.464 85.1659 141.275 84.9561C141.086 84.7463 140.945 84.4981 140.86 84.2285C140.776 83.9589 140.751 83.6743 140.787 83.3942L141.051 80.8546C141.124 80.2666 141.407 79.7248 141.847 79.3283C142.288 78.9318 142.856 78.7073 143.449 78.696H165.501C165.784 78.6901 166.064 78.7451 166.324 78.8575C166.583 78.9698 166.815 79.1368 167.004 79.347C167.193 79.5572 167.335 79.8057 167.419 80.0755C167.503 80.3453 167.528 80.6301 167.492 80.9105L167.228 83.4501C167.154 84.0371 166.871 84.5778 166.431 84.9732C165.99 85.3687 165.422 85.5924 164.831 85.6036ZM143.449 79.209C142.981 79.2198 142.533 79.3979 142.185 79.711C141.837 80.0241 141.613 80.4515 141.554 80.9156L141.29 83.4551C141.262 83.6647 141.28 83.8779 141.342 84.0799C141.405 84.2818 141.51 84.4678 141.652 84.6249C141.794 84.7819 141.968 84.9063 142.162 84.9893C142.357 85.0724 142.567 85.1121 142.778 85.1058H164.831C165.298 85.0963 165.746 84.9192 166.094 84.6069C166.442 84.2947 166.666 83.8679 166.725 83.4043L166.99 80.8648C167.018 80.6552 167 80.442 166.937 80.24C166.875 80.0381 166.769 79.8521 166.627 79.6951C166.486 79.538 166.312 79.4136 166.117 79.3306C165.923 79.2475 165.713 79.2078 165.501 79.2141L143.449 79.209Z" fill="#3A0065"/>
<path d="M174.884 57.0691H139.624C139.313 57.0766 139.015 57.1956 138.785 57.4045C138.554 57.6134 138.407 57.8982 138.369 58.2068L137.825 63.3621C137.809 63.505 137.823 63.6498 137.866 63.7868C137.91 63.9239 137.982 64.0501 138.078 64.1572C138.174 64.2643 138.292 64.3497 138.424 64.4079C138.555 64.4661 138.697 64.4957 138.841 64.4948H174.097C174.408 64.4887 174.706 64.3709 174.937 64.1629C175.169 63.955 175.317 63.6707 175.356 63.3621L175.895 58.2068C175.912 58.064 175.899 57.9191 175.856 57.7818C175.813 57.6444 175.741 57.5178 175.646 57.4103C175.55 57.3027 175.433 57.2167 175.302 57.1578C175.17 57.099 175.028 57.0688 174.884 57.0691Z" fill="white"/>
<path d="M142.641 71.5192C142.662 71.3599 142.649 71.198 142.602 71.0444C142.555 70.8909 142.475 70.7494 142.367 70.6297C142.26 70.51 142.128 70.4149 141.981 70.3511C141.834 70.2872 141.674 70.2559 141.513 70.2596C141.168 70.2677 140.838 70.3993 140.581 70.6304C140.325 70.8615 140.16 71.1769 140.116 71.5192C140.097 71.6783 140.111 71.8398 140.16 71.9927C140.208 72.1456 140.289 72.2864 140.396 72.4054C140.503 72.5244 140.635 72.6189 140.782 72.6824C140.93 72.746 141.089 72.7771 141.249 72.7737C141.593 72.7666 141.923 72.6359 142.179 72.4056C142.434 72.1752 142.599 71.8606 142.641 71.5192Z" fill="#263238"/>
<path d="M146.522 71.5193C146.543 71.3598 146.529 71.1977 146.481 71.0442C146.433 70.8907 146.353 70.7493 146.245 70.6297C146.137 70.5101 146.005 70.4151 145.858 70.3513C145.71 70.2874 145.55 70.2562 145.39 70.2597C145.045 70.2669 144.714 70.3983 144.459 70.6297C144.203 70.8611 144.039 71.177 143.998 71.5193C143.977 71.6781 143.991 71.8395 144.039 71.9925C144.086 72.1454 144.167 72.2862 144.274 72.4053C144.381 72.5244 144.512 72.619 144.659 72.6826C144.806 72.7462 144.965 72.7773 145.125 72.7738C145.47 72.7669 145.801 72.6364 146.057 72.4061C146.314 72.1758 146.479 71.8611 146.522 71.5193Z" fill="#263238"/>
<path d="M150.398 71.5193C150.419 71.3598 150.405 71.1977 150.357 71.0442C150.309 70.8907 150.229 70.7493 150.121 70.6297C150.013 70.5101 149.881 70.4151 149.734 70.3513C149.586 70.2874 149.426 70.2562 149.266 70.2597C148.921 70.2669 148.59 70.3983 148.335 70.6297C148.079 70.8611 147.915 71.177 147.874 71.5193C147.854 71.6784 147.869 71.8399 147.917 71.9928C147.965 72.1457 148.046 72.2865 148.153 72.4055C148.261 72.5245 148.393 72.619 148.54 72.6825C148.687 72.7461 148.846 72.7772 149.007 72.7738C149.351 72.7667 149.681 72.636 149.936 72.4057C150.192 72.1753 150.356 71.8607 150.398 71.5193Z" fill="#263238"/>
<path d="M154.274 71.5192C154.296 71.3599 154.282 71.198 154.235 71.0444C154.188 70.8909 154.108 70.7494 154.001 70.6297C153.893 70.51 153.762 70.4149 153.614 70.3511C153.467 70.2872 153.307 70.2559 153.147 70.2596C152.802 70.2668 152.471 70.3982 152.216 70.6296C151.96 70.861 151.796 71.1769 151.755 71.5192C151.734 71.68 151.748 71.8435 151.797 71.998C151.846 72.1526 151.929 72.2945 152.039 72.4137C152.149 72.5328 152.284 72.6264 152.434 72.6878C152.584 72.7491 152.746 72.7767 152.908 72.7686C153.247 72.7558 153.57 72.6231 153.82 72.3943C154.07 72.1656 154.231 71.8555 154.274 71.5192Z" fill="#263238"/>
<path d="M158.232 71.5193C158.252 71.3598 158.238 71.1977 158.19 71.0442C158.142 70.8907 158.062 70.7493 157.954 70.6297C157.847 70.5101 157.715 70.4151 157.567 70.3513C157.419 70.2874 157.26 70.2562 157.099 70.2597C156.754 70.2669 156.423 70.3983 156.168 70.6297C155.912 70.8611 155.748 71.177 155.707 71.5193C155.686 71.6781 155.7 71.8395 155.748 71.9925C155.796 72.1454 155.876 72.2862 155.983 72.4053C156.09 72.5244 156.221 72.619 156.368 72.6826C156.516 72.7462 156.675 72.7773 156.835 72.7738C157.179 72.7669 157.51 72.6364 157.766 72.4061C158.023 72.1758 158.188 71.8611 158.232 71.5193Z" fill="#263238"/>
<path d="M143.911 60.7819C143.933 60.6229 143.919 60.4612 143.872 60.3079C143.825 60.1546 143.745 60.0134 143.637 59.8941C143.53 59.7748 143.398 59.6802 143.251 59.6168C143.103 59.5535 142.944 59.523 142.783 59.5274C142.439 59.5345 142.109 59.6652 141.854 59.8955C141.598 60.1259 141.434 60.4405 141.391 60.7819C141.37 60.9409 141.383 61.1027 141.431 61.256C141.478 61.4093 141.558 61.5505 141.665 61.6698C141.773 61.7891 141.905 61.8837 142.052 61.947C142.199 62.0103 142.359 62.0409 142.519 62.0365C142.864 62.0304 143.194 61.9001 143.45 61.6695C143.706 61.439 143.87 61.1237 143.911 60.7819Z" fill="#263238"/>
<path d="M147.792 60.7819C147.812 60.6228 147.797 60.4613 147.749 60.3084C147.701 60.1555 147.62 60.0147 147.513 59.8957C147.405 59.7767 147.273 59.6822 147.126 59.6186C146.979 59.5551 146.82 59.5239 146.659 59.5274C146.319 59.5392 145.994 59.6721 145.742 59.902C145.491 60.1319 145.33 60.4439 145.288 60.7819C145.267 60.9407 145.281 61.1021 145.329 61.2551C145.376 61.408 145.457 61.5488 145.564 61.6679C145.671 61.7871 145.802 61.8817 145.949 61.9453C146.096 62.0089 146.255 62.04 146.415 62.0364C146.757 62.0257 147.083 61.8934 147.336 61.6634C147.588 61.4334 147.75 61.1208 147.792 60.7819Z" fill="#263238"/>
<path d="M151.668 60.7819C151.689 60.6231 151.675 60.4617 151.627 60.3088C151.579 60.1558 151.499 60.015 151.392 59.8959C151.285 59.7768 151.154 59.6822 151.007 59.6186C150.86 59.555 150.701 59.5239 150.54 59.5274C150.196 59.5343 149.865 59.6648 149.609 59.8951C149.352 60.1254 149.187 60.4401 149.143 60.7819C149.123 60.9412 149.137 61.103 149.185 61.2563C149.233 61.4096 149.313 61.5507 149.421 61.6699C149.529 61.7891 149.661 61.8836 149.809 61.9469C149.956 62.0102 150.116 62.0407 150.276 62.0365C150.621 62.0304 150.951 61.9001 151.207 61.6695C151.463 61.439 151.627 61.1237 151.668 60.7819Z" fill="#263238"/>
<path d="M155.544 60.7819C155.566 60.6229 155.552 60.4612 155.505 60.3079C155.458 60.1546 155.378 60.0134 155.27 59.8941C155.163 59.7748 155.031 59.6802 154.884 59.6168C154.736 59.5535 154.577 59.523 154.416 59.5274C154.072 59.5345 153.742 59.6652 153.487 59.8955C153.231 60.1259 153.067 60.4405 153.025 60.7819C153.003 60.9409 153.017 61.1027 153.064 61.256C153.111 61.4093 153.191 61.5505 153.298 61.6698C153.406 61.7891 153.538 61.8837 153.685 61.947C153.832 62.0103 153.992 62.0409 154.152 62.0365C154.497 62.0304 154.827 61.9001 155.083 61.6695C155.339 61.439 155.503 61.1237 155.544 60.7819Z" fill="#263238"/>
<path d="M159.426 60.7819C159.445 60.6228 159.431 60.4613 159.382 60.3084C159.334 60.1555 159.253 60.0147 159.146 59.8957C159.038 59.7767 158.907 59.6822 158.759 59.6186C158.612 59.5551 158.453 59.5239 158.293 59.5274C157.949 59.5345 157.619 59.6651 157.363 59.8955C157.108 60.1259 156.943 60.4405 156.901 60.7819C156.88 60.9412 156.894 61.103 156.942 61.2563C156.99 61.4096 157.071 61.5507 157.178 61.6699C157.286 61.7891 157.418 61.8836 157.566 61.9469C157.713 62.0101 157.873 62.0407 158.034 62.0364C158.378 62.0304 158.709 61.9001 158.964 61.6695C159.22 61.439 159.384 61.1237 159.426 60.7819Z" fill="#263238"/>
<path d="M163.302 60.7819C163.322 60.6231 163.308 60.4617 163.26 60.3088C163.213 60.1558 163.133 60.015 163.026 59.8959C162.919 59.7768 162.787 59.6822 162.64 59.6186C162.493 59.555 162.334 59.5239 162.174 59.5274C161.829 59.5343 161.499 59.6648 161.242 59.8951C160.986 60.1254 160.821 60.4401 160.777 60.7819C160.756 60.9412 160.77 61.103 160.818 61.2563C160.866 61.4096 160.947 61.5507 161.054 61.6699C161.162 61.7891 161.294 61.8836 161.442 61.9469C161.589 62.0102 161.749 62.0407 161.91 62.0365C162.254 62.0304 162.584 61.9001 162.84 61.6695C163.096 61.439 163.26 61.1237 163.302 60.7819Z" fill="#263238"/>
<path d="M160.02 45.702L159.746 48.3076C159.726 48.4209 159.669 48.5244 159.583 48.6009C159.497 48.6775 159.388 48.7227 159.273 48.7291C159.219 48.7311 159.165 48.7212 159.115 48.7002C159.065 48.6791 159.021 48.6474 158.984 48.6072C158.948 48.567 158.921 48.5194 158.905 48.4676C158.889 48.4158 158.885 48.3612 158.892 48.3076L159.167 45.702C159.191 45.509 159.173 45.3132 159.115 45.1277C159.056 44.9422 158.959 44.7714 158.829 44.6269C158.699 44.4824 158.539 44.3675 158.361 44.2901C158.182 44.2127 157.989 44.1746 157.795 44.1782H156.855C156.438 44.1882 156.037 44.3473 155.727 44.6268C155.417 44.9064 155.217 45.2878 155.163 45.702L154.925 48.1196H154.071L154.31 45.702C154.391 45.0556 154.702 44.46 155.186 44.0243C155.67 43.5886 156.295 43.3421 156.947 43.33H157.881C158.185 43.3224 158.486 43.3805 158.765 43.5003C159.044 43.6201 159.293 43.7988 159.496 44.0241C159.699 44.2495 159.851 44.5161 159.942 44.8057C160.032 45.0953 160.059 45.4011 160.02 45.702Z" fill="#3A0065"/>
<path d="M160.02 48.2111L159.486 53.2902C159.466 53.4479 159.389 53.593 159.271 53.6992C159.153 53.8054 159 53.8657 158.841 53.8693H153.761C153.688 53.87 153.616 53.8549 153.549 53.825C153.482 53.7952 153.423 53.7513 153.374 53.6963C153.326 53.6413 153.29 53.5766 153.269 53.5065C153.249 53.4364 153.243 53.3626 153.253 53.2902L153.787 48.2111C153.797 48.1067 153.831 48.0062 153.888 47.9179C153.944 47.8296 154.021 47.756 154.112 47.7032C154.209 47.6464 154.319 47.6165 154.432 47.6169H159.512C159.616 47.6158 159.718 47.6439 159.806 47.6981C159.888 47.7537 159.952 47.8318 159.99 47.9229C160.027 48.014 160.038 48.1141 160.02 48.2111Z" fill="#3A0065"/>
<path d="M187.386 37.5957C187.318 37.5957 187.254 37.569 187.206 37.5214C187.159 37.4737 187.132 37.4091 187.132 37.3418C187.132 37.2744 187.159 37.2098 187.206 37.1622C187.254 37.1146 187.318 37.0878 187.386 37.0878L199.801 37.0167C199.869 37.0167 199.933 37.0435 199.981 37.0911C200.029 37.1387 200.055 37.2033 200.055 37.2707C200.055 37.338 200.029 37.4026 199.981 37.4503C199.933 37.4979 199.869 37.5246 199.801 37.5246L187.391 37.5957H187.386Z" fill="#263238"/>
<path d="M202.184 37.5093C202.116 37.5093 202.052 37.4825 202.004 37.4349C201.956 37.3872 201.93 37.3227 201.93 37.2553C201.93 37.1879 201.956 37.1233 202.004 37.0757C202.052 37.0281 202.116 37.0013 202.184 37.0013H206.573C206.64 37.0013 206.705 37.0281 206.752 37.0757C206.8 37.1233 206.827 37.1879 206.827 37.2553C206.827 37.3227 206.8 37.3872 206.752 37.4349C206.705 37.4825 206.64 37.5093 206.573 37.5093H202.184Z" fill="#263238"/>
<g opacity="0.3">
<path d="M119.431 39.9778H133.655L119.192 99.8251H107.726C107.395 99.8186 107.07 99.7374 106.775 99.5875C106.48 99.4377 106.223 99.223 106.023 98.9598C105.823 98.6965 105.684 98.3913 105.619 98.0671C105.553 97.7428 105.561 97.408 105.643 97.0875L119.431 39.9778Z" fill="white"/>
<path d="M139.954 39.9778H145.984L131.536 99.8251H125.506L139.954 39.9778Z" fill="white"/>
</g>
<path d="M44.0181 21.2968H46.9036C46.2276 21.2871 45.5571 21.4193 44.9354 21.6848C44.3137 21.9503 43.7545 22.3431 43.294 22.838C42.8335 23.3328 42.4819 23.9187 42.2619 24.5579C42.0419 25.197 41.9583 25.8752 42.0166 26.5486L48.138 114.062C48.2541 115.479 48.8938 116.802 49.9326 117.773C50.9714 118.744 52.3346 119.293 53.7565 119.314H50.8761C49.4537 119.293 48.0899 118.744 47.0503 117.773C46.0107 116.802 45.3698 115.479 45.2526 114.062L39.1159 26.5486C39.0575 25.8739 39.1415 25.1944 39.3624 24.5542C39.5833 23.914 39.9363 23.3273 40.3984 22.8322C40.8606 22.3371 41.4216 21.9446 42.0452 21.6801C42.6687 21.4156 43.3409 21.285 44.0181 21.2968Z" fill="#3A0065"/>
<path d="M44.0182 21.2968H46.9036C46.2276 21.2871 45.5571 21.4193 44.9354 21.6848C44.3137 21.9503 43.7545 22.3431 43.2941 22.838C42.8336 23.3328 42.482 23.9187 42.2619 24.5579C42.0419 25.197 41.9583 25.8752 42.0166 26.5486L48.138 114.062C48.2541 115.479 48.8939 116.802 49.9326 117.773C50.9714 118.744 52.3347 119.293 53.7565 119.314H50.8762C47.9755 119.314 45.0494 116.962 44.8462 114.062L38.7248 26.5486C38.5216 23.6484 41.1175 21.2968 44.0182 21.2968Z" fill="#263238"/>
<path d="M51.7344 119.319H87.0404C87.7181 119.331 88.3908 119.201 89.015 118.937C89.6391 118.673 90.2008 118.28 90.6635 117.785C91.1262 117.29 91.4796 116.703 91.7009 116.063C91.9221 115.422 92.0062 114.742 91.9477 114.067L85.806 26.5485C85.691 25.1297 85.0511 23.8048 84.0111 22.8326C82.9711 21.8605 81.606 21.311 80.1824 21.2916H44.8815C44.205 21.2819 43.5341 21.4143 42.912 21.68C42.2899 21.9458 41.7305 22.3391 41.2699 22.8346C40.8093 23.33 40.4579 23.9165 40.2382 24.5563C40.0185 25.196 39.9355 25.8747 39.9945 26.5485L46.0905 114.062C46.2069 115.484 46.8501 116.811 47.8941 117.783C48.9381 118.756 50.3077 119.303 51.7344 119.319Z" fill="#3A0065"/>
<g opacity="0.6">
<path d="M80.0913 22.9932C81.0804 23.0088 82.0283 23.3919 82.7504 24.0679C83.4725 24.7439 83.9172 25.6644 83.9978 26.6501L90.1192 114.163C90.1608 114.61 90.1075 115.06 89.963 115.485C89.8184 115.91 89.5857 116.299 89.2802 116.627C88.9747 116.956 88.6033 117.216 88.1902 117.391C87.7771 117.566 87.3318 117.652 86.8832 117.643H51.5823C50.5927 117.627 49.6442 117.244 48.9212 116.568C48.1983 115.892 47.7525 114.972 47.6707 113.986L41.5747 26.4724C41.5334 26.0279 41.586 25.5798 41.729 25.1569C41.8721 24.7341 42.1025 24.3461 42.4052 24.018C42.7079 23.69 43.0763 23.4292 43.4863 23.2527C43.8963 23.0761 44.3389 22.9877 44.7853 22.9932H80.0913Z" fill="white"/>
</g>
<g opacity="0.3">
<path d="M70.1039 117.632H56.0374L67.6503 22.9931H78.9838C79.4732 22.9912 79.9577 23.0904 80.407 23.2845C80.8563 23.4785 81.2607 23.7631 81.5949 24.1206L70.1039 117.632Z" fill="white"/>
<path d="M53.5127 117.632H50.3428L61.9557 22.9829H65.1256L53.5127 117.632Z" fill="white"/>
</g>
<path d="M77.9881 64.5912H52.4154C52.348 64.5912 52.2834 64.5644 52.2358 64.5168C52.1881 64.4692 52.1614 64.4046 52.1614 64.3372C52.1614 64.2699 52.1881 64.2053 52.2358 64.1576C52.2834 64.11 52.348 64.0833 52.4154 64.0833H77.9881C78.0551 64.0846 78.1189 64.1117 78.1663 64.1591C78.2136 64.2064 78.2408 64.2703 78.2421 64.3372C78.2421 64.4046 78.2153 64.4692 78.1677 64.5168C78.1201 64.5644 78.0555 64.5912 77.9881 64.5912Z" fill="white"/>
<path d="M75.7427 68.3751H55.7123C55.6449 68.3751 55.5803 68.3483 55.5326 68.3007C55.485 68.2531 55.4583 68.1885 55.4583 68.1211C55.4583 68.0538 55.485 67.9892 55.5326 67.9416C55.5803 67.8939 55.6449 67.8672 55.7123 67.8672H75.7427C75.8101 67.8672 75.8747 67.8939 75.9223 67.9416C75.9699 67.9892 75.9967 68.0538 75.9967 68.1211C75.9967 68.1885 75.9699 68.2531 75.9223 68.3007C75.8747 68.3483 75.8101 68.3751 75.7427 68.3751Z" fill="white"/>
<path d="M53.1773 46.9057L53.2128 47.9215H52.5575L52.522 46.9057L51.3586 45.0823H52.0546L52.8572 46.3419L53.5684 45.0823H54.2136L53.1773 46.9057Z" fill="#3A0065"/>
<path d="M54.2391 46.4891C54.2305 46.2895 54.2645 46.0903 54.3388 45.9048C54.4132 45.7193 54.5263 45.5517 54.6705 45.4133C54.8146 45.2749 54.9867 45.1689 55.1751 45.1021C55.3635 45.0354 55.5639 45.0096 55.7631 45.0263C55.9645 45.0161 56.166 45.0459 56.3558 45.1141C56.5456 45.1823 56.72 45.2875 56.8688 45.4235C57.0176 45.5596 57.138 45.7239 57.2229 45.9068C57.3078 46.0897 57.3555 46.2876 57.3633 46.4891C57.3727 46.6892 57.3393 46.889 57.2652 47.0751C57.1912 47.2612 57.0782 47.4293 56.934 47.5683C56.7897 47.7073 56.6174 47.8138 56.4286 47.8808C56.2398 47.9479 56.0389 47.9738 55.8393 47.957C55.6375 47.9672 55.4356 47.9372 55.2455 47.8687C55.0554 47.8002 54.8808 47.6946 54.7319 47.558C54.583 47.4214 54.4627 47.2565 54.3781 47.073C54.2935 46.8895 54.2463 46.691 54.2391 46.4891ZM56.6775 46.4891C56.6782 46.3689 56.6548 46.2498 56.6087 46.1388C56.5625 46.0277 56.4946 45.9271 56.4088 45.8428C56.3231 45.7585 56.2213 45.6923 56.1096 45.648C55.9978 45.6037 55.8782 45.5823 55.758 45.585C55.6402 45.5801 55.5227 45.6005 55.4135 45.6449C55.3043 45.6893 55.2059 45.7566 55.125 45.8424C55.044 45.9281 54.9825 46.0302 54.9445 46.1418C54.9064 46.2534 54.8928 46.3718 54.9046 46.4891C54.9032 46.6098 54.9261 46.7294 54.9719 46.841C55.0178 46.9526 55.0856 47.0539 55.1714 47.1387C55.2572 47.2236 55.3592 47.2903 55.4714 47.3348C55.5835 47.3794 55.7034 47.401 55.8241 47.3983C55.9419 47.4017 56.0591 47.38 56.1679 47.3347C56.2767 47.2895 56.3747 47.2216 56.4554 47.1357C56.5361 47.0498 56.5976 46.9477 56.6359 46.8362C56.6741 46.7248 56.6883 46.6065 56.6775 46.4891Z" fill="#3A0065"/>
<path d="M57.8154 46.6619L57.7646 45.0721H58.42L58.4708 46.6365C58.4708 47.1749 58.7349 47.3984 59.1312 47.3984C59.5274 47.3984 59.7509 47.1749 59.7357 46.6365L59.6798 45.0721H60.325L60.3808 46.6619C60.4075 46.8328 60.3946 47.0075 60.3429 47.1726C60.2913 47.3376 60.2024 47.4886 60.083 47.6138C59.9637 47.739 59.8172 47.8351 59.6547 47.8946C59.4923 47.9541 59.3184 47.9755 59.1464 47.9571C58.9707 47.9728 58.7937 47.9504 58.6275 47.8913C58.4613 47.8323 58.3099 47.7381 58.1835 47.6151C58.0571 47.4921 57.9588 47.3432 57.8952 47.1787C57.8317 47.0142 57.8045 46.8379 57.8154 46.6619Z" fill="#3A0065"/>
<path d="M62.8803 47.9114L62.3063 47.119H61.7018L61.7323 47.9114H61.0769L60.9753 45.0721H62.2047C62.9616 45.0721 63.4493 45.4683 63.4696 46.088C63.4861 46.2767 63.441 46.4658 63.3413 46.6269C63.2415 46.788 63.0923 46.9125 62.9159 46.9819L63.5865 47.8961L62.8803 47.9114ZM62.1844 45.6105H61.6764L61.7119 46.5959H62.2199C62.6213 46.5959 62.8143 46.413 62.8041 46.088C62.794 45.7629 62.5857 45.6105 62.1844 45.6105Z" fill="#3A0065"/>
<path d="M64.9732 46.4891C64.9627 46.2925 64.994 46.0959 65.0651 45.9123C65.1362 45.7287 65.2455 45.5623 65.3857 45.424C65.5259 45.2858 65.6938 45.1788 65.8784 45.1103C66.063 45.0417 66.2601 45.0131 66.4565 45.0263C66.679 45.0195 66.9002 45.0614 67.1047 45.1491C67.3091 45.2369 67.4919 45.3683 67.6402 45.5342L67.2338 45.9203C67.1439 45.8158 67.0323 45.7322 66.9069 45.6752C66.7815 45.6182 66.6451 45.5892 66.5073 45.5901C66.3883 45.5839 66.2693 45.6032 66.1584 45.6468C66.0475 45.6905 65.9473 45.7574 65.8644 45.8431C65.7816 45.9288 65.7181 46.0313 65.6783 46.1436C65.6385 46.2559 65.6232 46.3755 65.6336 46.4942C65.6328 46.6164 65.6568 46.7375 65.7041 46.8502C65.7515 46.9628 65.8212 47.0647 65.909 47.1497C65.9969 47.2347 66.101 47.301 66.2152 47.3446C66.3294 47.3882 66.4512 47.4082 66.5734 47.4034C66.7083 47.4061 66.842 47.3773 66.9637 47.319C67.0855 47.2608 67.1919 47.1749 67.2744 47.0681L67.7062 47.4542C67.568 47.6228 67.3921 47.7567 67.1927 47.8449C66.9933 47.9331 66.7759 47.9732 66.5581 47.9621C66.3571 47.9702 66.1565 47.9385 65.9678 47.8687C65.7792 47.799 65.6062 47.6926 65.4588 47.5557C65.3115 47.4187 65.1927 47.254 65.1093 47.0709C65.026 46.8879 64.9797 46.6901 64.9732 46.4891Z" fill="#3A0065"/>
<path d="M67.8789 46.4892C67.8706 46.2918 67.904 46.0949 67.9769 45.9113C68.0498 45.7277 68.1605 45.5615 68.3019 45.4235C68.4432 45.2855 68.6121 45.1789 68.7974 45.1104C68.9827 45.042 69.1804 45.0134 69.3775 45.0264C69.5789 45.0161 69.7804 45.046 69.9702 45.1142C70.16 45.1823 70.3344 45.2875 70.4832 45.4236C70.6321 45.5596 70.7524 45.7239 70.8373 45.9068C70.9222 46.0897 70.9699 46.2877 70.9777 46.4892C70.9867 46.6869 70.9539 46.8844 70.8814 47.0686C70.8088 47.2528 70.6982 47.4196 70.5568 47.5582C70.4153 47.6967 70.2462 47.8039 70.0605 47.8726C69.8748 47.9413 69.6767 47.9701 69.4791 47.957C69.2773 47.9672 69.0754 47.9372 68.8853 47.8687C68.6952 47.8002 68.5206 47.6946 68.3717 47.558C68.2228 47.4214 68.1025 47.2566 68.0179 47.0731C67.9333 46.8896 67.8861 46.6911 67.8789 46.4892ZM70.3122 46.4892C70.3136 46.3692 70.2909 46.2502 70.2453 46.1392C70.1997 46.0282 70.1322 45.9275 70.0469 45.8431C69.9616 45.7588 69.8601 45.6925 69.7486 45.6481C69.6371 45.6038 69.5178 45.5823 69.3978 45.5851C69.28 45.5801 69.1626 45.6005 69.0533 45.6449C68.9441 45.6893 68.8457 45.7567 68.7648 45.8424C68.6839 45.9281 68.6223 46.0302 68.5843 46.1418C68.5463 46.2534 68.5327 46.3719 68.5444 46.4892C68.5423 46.6096 68.5646 46.7291 68.6099 46.8407C68.6551 46.9523 68.7225 47.0536 68.8079 47.1385C68.8933 47.2234 68.995 47.2902 69.1068 47.3348C69.2187 47.3795 69.3384 47.4011 69.4588 47.3983C69.5768 47.4025 69.6944 47.3814 69.8036 47.3364C69.9129 47.2915 70.0112 47.2236 70.092 47.1375C70.1729 47.0514 70.2343 46.949 70.2723 46.8372C70.3103 46.7253 70.3239 46.6067 70.3122 46.4892Z" fill="#3A0065"/>
<path d="M71.4248 45.072H72.71C72.9102 45.0525 73.1123 45.0742 73.3038 45.136C73.4952 45.1977 73.6719 45.2982 73.8229 45.431C73.9739 45.5639 74.096 45.7264 74.1816 45.9084C74.2671 46.0904 74.3144 46.2881 74.3204 46.4891C74.3317 46.6877 74.2991 46.8863 74.225 47.0709C74.1509 47.2555 74.0371 47.4215 73.8917 47.5572C73.7463 47.6929 73.5727 47.795 73.3835 47.8562C73.1942 47.9174 72.9938 47.9362 72.7964 47.9113H71.5061L71.4248 45.072ZM72.7608 47.3729C72.8807 47.3853 73.0017 47.3711 73.1154 47.3313C73.2291 47.2915 73.3326 47.2271 73.4185 47.1426C73.5044 47.0582 73.5706 46.9559 73.6124 46.8429C73.6541 46.7299 73.6704 46.6091 73.66 46.4891C73.6598 46.3668 73.6341 46.2458 73.5847 46.1339C73.5353 46.022 73.4632 45.9216 73.3729 45.839C73.2827 45.7564 73.1762 45.6934 73.0604 45.6541C72.9445 45.6147 72.8218 45.5999 72.6999 45.6104H72.1004L72.1614 47.3729H72.7608Z" fill="#3A0065"/>
<path d="M77.0432 47.3729V47.8809H74.8487L74.7471 45.0416H76.8908V45.5495H75.438V46.1641H76.7537V46.672H75.438V47.3272L77.0432 47.3729Z" fill="#3A0065"/>
<path d="M58.105 58.4505V59.5882H52.7761V58.6892L55.6108 55.9515C56.3016 55.276 56.4185 54.8544 56.4134 54.4278C56.4134 53.7675 55.9359 53.3815 55.0469 53.3815C54.7259 53.3653 54.4057 53.4255 54.1125 53.557C53.8194 53.6886 53.5616 53.8878 53.3603 54.1383L52.4053 53.412C52.7336 53.0104 53.1525 52.6924 53.6276 52.484C54.1027 52.2757 54.6204 52.1829 55.1383 52.2133C56.7131 52.2133 57.7444 53.0107 57.7647 54.2957C57.7647 54.9966 57.592 55.6417 56.6064 56.5864L54.7014 58.4301L58.105 58.4505Z" fill="#263238"/>
<path d="M64.0081 57.4144C64.0081 58.6334 63.1241 59.6898 61.1785 59.6898C60.1985 59.7073 59.2382 59.4139 58.4353 58.8518L58.9992 57.8055C59.6113 58.2778 60.3647 58.5301 61.1379 58.5216C62.098 58.5216 62.6619 58.095 62.6619 57.4245C62.6619 56.7541 62.1539 56.3427 61.0667 56.3427H60.4063V55.4234L61.9761 53.4679H58.6791V52.3403H63.6271V53.2444L61.8999 55.337C63.2867 55.4995 64.0081 56.3224 64.0081 57.4144Z" fill="#263238"/>
<path d="M70.7846 57.5311C70.7846 58.8771 69.6518 59.7152 67.8484 59.7152C66.045 59.7152 64.8766 58.8771 64.8562 57.5311C64.841 57.1611 64.9414 56.7955 65.1435 56.4851C65.3456 56.1747 65.6394 55.935 65.984 55.7992C65.7027 55.6566 65.4668 55.4386 65.3026 55.1694C65.1384 54.9003 65.0524 54.5907 65.0544 54.2754C65.0544 53.031 66.111 52.2438 67.7163 52.2438C69.3216 52.2438 70.4443 53.0209 70.4646 54.2754C70.4803 54.5889 70.4041 54.9001 70.2452 55.1708C70.0864 55.4416 69.8518 55.66 69.5705 55.7992C69.9237 55.9321 70.2286 56.1685 70.4452 56.4776C70.6619 56.7866 70.7802 57.1538 70.7846 57.5311ZM69.4232 57.4905C69.4232 56.7744 68.7831 56.3274 67.7874 56.3274C66.7917 56.3274 66.1974 56.7744 66.2126 57.4905C66.2278 58.2067 66.8324 58.6587 67.8281 58.6587C68.8237 58.6587 69.4384 58.2016 69.4232 57.4651V57.4905ZM66.3752 54.3415C66.3752 54.9611 66.8832 55.3573 67.762 55.3573C68.6408 55.3573 69.1438 54.9611 69.1285 54.3415C69.1133 53.7218 68.5545 53.3256 67.7214 53.3256C66.8882 53.3256 66.3752 53.6609 66.3853 54.3161L66.3752 54.3415Z" fill="#263238"/>
<path d="M77.541 57.5311C77.541 58.8771 76.4081 59.7152 74.6047 59.7152C72.8013 59.7152 71.6278 58.8517 71.6278 57.5311C71.6133 57.1612 71.7141 56.796 71.9161 56.4857C72.1181 56.1755 72.4114 55.9356 72.7556 55.7992C72.4741 55.6573 72.2382 55.4393 72.0748 55.1699C71.9113 54.9004 71.8268 54.5905 71.831 54.2754C71.8056 53.031 72.8826 52.2438 74.4879 52.2438C76.0932 52.2438 77.2158 53.0209 77.2362 54.2754C77.2519 54.5889 77.1756 54.9001 77.0168 55.1708C76.8579 55.4416 76.6234 55.66 76.3421 55.7992C76.6925 55.9345 76.9941 56.172 77.2079 56.4808C77.4217 56.7897 77.5377 57.1556 77.541 57.5311ZM76.1795 57.4905C76.1795 56.7744 75.5394 56.3274 74.5438 56.3274C73.5481 56.3274 72.9537 56.7744 72.969 57.4905C72.9842 58.2067 73.5887 58.6587 74.5844 58.6587C75.5801 58.6587 76.1998 58.2016 76.1998 57.4651L76.1795 57.4905ZM73.1315 54.3415C73.1315 54.9611 73.6649 55.3573 74.5184 55.3573C75.3718 55.3573 75.9001 54.9611 75.89 54.3415C75.8798 53.7218 75.3108 53.3256 74.4828 53.3256C73.6548 53.3256 73.1518 53.6609 73.1518 54.3161L73.1315 54.3415Z" fill="#263238"/>
<path d="M39.8729 46.5145C39.8081 46.5147 39.7457 46.49 39.6985 46.4456C39.6513 46.4012 39.6228 46.3405 39.6189 46.2758L38.7197 33.9996C38.7155 33.933 38.7377 33.8675 38.7814 33.8171C38.8251 33.7667 38.8869 33.7356 38.9534 33.7304C39.0205 33.7261 39.0867 33.7481 39.1379 33.7917C39.1891 33.8353 39.2213 33.8971 39.2277 33.964L40.132 46.2403C40.1348 46.2736 40.1309 46.3072 40.1207 46.3391C40.1104 46.371 40.0939 46.4005 40.0722 46.426C40.0505 46.4515 40.0239 46.4724 39.9941 46.4876C39.9643 46.5028 39.9317 46.512 39.8983 46.5145H39.8729Z" fill="#3A0065"/>
<path d="M38.801 31.8816C38.737 31.8818 38.6753 31.8579 38.6282 31.8145C38.5811 31.7712 38.5521 31.7117 38.547 31.648L38.3082 28.4075C38.3059 28.3741 38.3102 28.3407 38.3208 28.3089C38.3314 28.2772 38.3481 28.2479 38.3701 28.2227C38.4144 28.1717 38.4771 28.1405 38.5445 28.1358C38.6118 28.131 38.6783 28.1533 38.7293 28.1976C38.7802 28.2419 38.8115 28.3046 38.8162 28.3719L39.055 31.6124C39.0592 31.679 39.0371 31.7445 38.9933 31.7949C38.9496 31.8453 38.8878 31.8764 38.8213 31.8816H38.801Z" fill="#3A0065"/>
<path d="M62.6718 16.436C62.6044 16.436 62.5398 16.4092 62.4922 16.3616C62.4445 16.314 62.4178 16.2494 62.4178 16.182V8.71062C62.4178 8.64327 62.4445 8.57867 62.4922 8.53105C62.5398 8.48342 62.6044 8.45667 62.6718 8.45667C62.7392 8.45667 62.8038 8.48342 62.8514 8.53105C62.899 8.57867 62.9258 8.64327 62.9258 8.71062V16.182C62.9258 16.2494 62.899 16.314 62.8514 16.3616C62.8038 16.4092 62.7392 16.436 62.6718 16.436Z" fill="#3A0065"/>
<path d="M56.7537 18.0207C56.7093 18.0205 56.6659 18.0086 56.6275 17.9863C56.5892 17.964 56.5574 17.9321 56.5352 17.8938L52.7963 11.4229C52.7627 11.3643 52.7536 11.2948 52.7713 11.2295C52.7889 11.1643 52.8317 11.1087 52.8903 11.075C52.9489 11.0414 53.0185 11.0323 53.0838 11.05C53.149 11.0676 53.2046 11.1104 53.2383 11.169L56.9721 17.6398C56.9893 17.6683 57.0006 17.7 57.0053 17.733C57.01 17.766 57.008 17.7996 56.9995 17.8318C56.9909 17.864 56.976 17.8942 56.9556 17.9206C56.9352 17.9469 56.9097 17.9689 56.8807 17.9852C56.8418 18.007 56.7982 18.0192 56.7537 18.0207Z" fill="#3A0065"/>
<path d="M68.5799 18.0207C68.5358 18.0209 68.4922 18.0105 68.4529 17.9903C68.3949 17.9554 68.3529 17.8992 68.3358 17.8337C68.3187 17.7682 68.3279 17.6986 68.3615 17.6398L72.0953 11.169C72.129 11.1104 72.1846 11.0676 72.2498 11.05C72.3151 11.0323 72.3847 11.0414 72.4433 11.075C72.5019 11.1087 72.5447 11.1643 72.5623 11.2295C72.58 11.2948 72.5709 11.3643 72.5373 11.4229L68.8085 17.9141C68.783 17.9502 68.7485 17.9791 68.7084 17.9978C68.6683 18.0165 68.624 18.0244 68.5799 18.0207Z" fill="#3A0065"/>
<path d="M87.635 183.087C87.7301 183.05 87.8143 182.99 87.88 182.912C87.9457 182.833 87.9907 182.74 88.0109 182.64C88.0303 182.58 88.033 182.515 88.0187 182.454C88.0044 182.392 87.9736 182.335 87.9296 182.29C87.5385 181.883 85.9484 182.173 85.7706 182.208C85.75 182.21 85.7304 182.219 85.7148 182.232C85.6993 182.246 85.6886 182.264 85.6843 182.285C85.6802 182.304 85.6819 182.325 85.6891 182.344C85.6963 182.363 85.7087 182.379 85.7249 182.391C86.0419 182.623 86.3825 182.82 86.7409 182.98C87.0172 183.12 87.3337 183.157 87.635 183.087ZM87.7772 182.432C87.7959 182.453 87.8087 182.479 87.814 182.506C87.8194 182.534 87.8172 182.563 87.8077 182.589C87.796 182.656 87.7675 182.718 87.7248 182.771C87.6821 182.823 87.6267 182.864 87.5639 182.889C87.2743 182.996 86.7206 182.798 86.0399 182.381C86.7003 182.269 87.5689 182.214 87.7772 182.432Z" fill="#3A0065"/>
<path d="M85.8011 182.412C86.3091 182.351 87.4064 181.777 87.5029 181.279C87.5197 181.198 87.5076 181.113 87.4687 181.04C87.4297 180.966 87.3663 180.909 87.2895 180.878C87.2179 180.838 87.1387 180.815 87.0572 180.808C86.9756 180.802 86.8937 180.814 86.8171 180.842C86.2075 181.05 85.7096 182.219 85.6893 182.269C85.682 182.285 85.6782 182.303 85.6782 182.32C85.6782 182.338 85.682 182.355 85.6893 182.371C85.7012 182.387 85.7169 182.399 85.735 182.406L85.8011 182.412ZM87.1828 181.06C87.3047 181.127 87.3098 181.193 87.2997 181.238C87.2387 181.543 86.4919 182.015 85.9687 182.163C86.1567 181.782 86.5224 181.147 86.8882 181.035C86.9696 181.002 87.0608 181.002 87.1422 181.035L87.1828 181.06Z" fill="#3A0065"/>
<path d="M80.9802 180.365L85.1153 182.036L88.7272 172.482L84.587 170.811L80.9802 180.365Z" fill="#FFB573"/>
<path d="M85.6385 181.695L80.9954 179.821C80.9163 179.787 80.8273 179.782 80.7451 179.808C80.6628 179.834 80.5929 179.89 80.5483 179.964L78.5163 183.367C78.4683 183.454 78.4396 183.551 78.432 183.65C78.4244 183.75 78.4381 183.85 78.4722 183.943C78.5064 184.037 78.5602 184.123 78.63 184.194C78.6998 184.265 78.784 184.321 78.877 184.357C80.5128 184.987 81.3307 185.205 83.3728 186.033C84.6327 186.541 86.4208 187.41 88.148 188.116C89.8752 188.822 90.688 187.166 90.0225 186.719C87.0711 184.723 86.9745 183.57 86.2379 182.229C86.1067 181.986 85.8946 181.798 85.6385 181.695Z" fill="#263238"/>
<path d="M88.6714 177.17L81.4883 174.265L82.1487 171.634L89.855 174.453L88.6714 177.17Z" fill="#3A0065"/>
<path d="M95.8646 66.5873C94.4066 70.808 90.0937 80.7428 86.7663 76.6033C86.1673 75.8721 85.6779 75.0577 85.3134 74.1857C83.9062 70.7065 83.5557 65.0686 83.3779 63.8344L82.2451 59.9692C82.2251 59.9033 82.2148 59.8349 82.2146 59.766V57.5566C82.2146 56.6627 82.936 56.1294 83.9113 56.2106C83.9113 56.2106 85.4861 56.0278 85.4861 56.9674L85.7909 60.2841C85.9484 61.4371 85.4912 63.0421 85.7604 64.0985C86.7764 68.0755 88.1734 68.2583 89.0523 72.3623C90.2766 69.4011 92.466 64.2763 92.466 64.2763C93.9189 64.4591 96.3421 65.2007 95.8646 66.5873Z" fill="#FFB573"/>
<path d="M90.6525 78.1169C90.424 78.4733 90.1123 78.7688 89.7443 78.9782C89.3763 79.1876 88.963 79.3046 88.5398 79.3191C88.1166 79.3335 87.6963 79.2451 87.3148 79.0614C86.9334 78.8776 86.6022 78.6041 86.3498 78.2642C85.7476 77.4641 85.2745 76.5746 84.9477 75.6281C83.6269 71.2956 82.809 68.6139 82.6973 64.0884C83.1653 63.6154 83.7568 63.2833 84.4042 63.1298C85.0517 62.9762 85.7293 63.0074 86.3599 63.2198L88.524 70.549C88.524 70.549 92.9284 59.6035 94.7115 59.2124C96.8095 58.7502 97.6833 60.6244 98.5723 62.9303C99.2123 64.5861 93.5227 73.693 90.6525 78.1169Z" fill="#3A0065"/>
<path d="M108.448 48.2567C107.94 50.7963 106.832 56.3427 108.61 58.0391C108.61 58.0391 107.914 60.6142 103.195 60.6142C97.9981 60.6142 100.711 58.0391 100.711 58.0391C103.545 57.3636 103.469 55.2608 102.977 53.285L108.448 48.2567Z" fill="#FFB573"/>
<path d="M100.508 42.2938C100.538 42.2985 100.569 42.2985 100.599 42.2938C100.646 42.2679 100.681 42.225 100.697 42.1739C100.713 42.1229 100.709 42.0676 100.686 42.0195C100.55 41.7277 100.345 41.4731 100.09 41.2777C99.834 41.0822 99.5347 40.9515 99.2175 40.897C99.191 40.8935 99.1641 40.8953 99.1384 40.9024C99.1127 40.9095 99.0887 40.9217 99.0679 40.9383C99.047 40.9549 99.0297 40.9756 99.017 40.999C99.0043 41.0225 98.9964 41.0482 98.9939 41.0748C98.9904 41.1012 98.9922 41.1281 98.9993 41.1538C99.0064 41.1795 99.0187 41.2035 99.0353 41.2244C99.0519 41.2452 99.0725 41.2625 99.096 41.2752C99.1194 41.2879 99.1452 41.2958 99.1717 41.2983C99.4218 41.347 99.6567 41.4544 99.8571 41.6116C100.058 41.7687 100.218 41.9712 100.325 42.2024C100.345 42.2324 100.372 42.2567 100.404 42.2727C100.436 42.2888 100.472 42.2961 100.508 42.2938Z" fill="#263238"/>
<path d="M98.9584 44.488C98.5563 45.2307 98.0537 45.9144 97.4648 46.5197C97.6244 46.6659 97.8137 46.7756 98.0198 46.8414C98.226 46.9072 98.4439 46.9274 98.6586 46.9006L98.9584 44.488Z" fill="#ED893E"/>
<path d="M99.3647 43.7464C99.4409 44.0816 99.319 44.3965 99.1006 44.4422C98.8821 44.4879 98.6383 44.2543 98.5672 43.9343C98.496 43.6143 98.6129 43.2842 98.8364 43.2334C99.0599 43.1826 99.2936 43.4061 99.3647 43.7464Z" fill="#263238"/>
<path d="M98.9381 43.2185L98.0745 43.1573C98.0745 43.1573 98.6282 43.7029 98.9381 43.2185Z" fill="#263238"/>
<path opacity="0.2" d="M95.6815 64.4236C96.5807 63.5957 97.2055 63.8445 97.6017 64.4998C98.0132 66.3993 95.5697 70.3814 94.6096 71.8899L95.6815 64.4236Z" fill="black"/>
<path d="M116.484 66.9276C116.368 69.0202 116.169 71.6563 115.849 74.973C115.514 78.4725 115.037 82.7237 114.381 87.8892C107.478 87.8892 100.249 87.7825 96.8908 87.7825C97.1753 80.9206 97.2769 73.9673 94.1984 60.3146C94.1598 60.1454 94.1557 59.9701 94.1862 59.7992C94.2167 59.6283 94.2812 59.4652 94.376 59.3198C94.4708 59.1743 94.5939 59.0494 94.7379 58.9524C94.8819 58.8555 95.044 58.7884 95.2144 58.7553C97.2212 58.3916 99.2486 58.1524 101.285 58.0392C103.915 57.851 106.555 57.851 109.184 58.0392C112.573 58.349 116.423 59.1363 116.423 59.1363C116.423 59.1363 116.84 60.3959 116.484 66.9276Z" fill="#3A0065"/>
<path opacity="0.2" d="M116.484 66.9276C116.367 69.0202 116.169 71.6563 115.849 74.9729C113.99 72.8194 112.232 65.4039 112.801 62.8694C114.187 63.8942 115.406 65.1279 116.413 66.5264C116.444 66.6587 116.468 66.7927 116.484 66.9276Z" fill="black"/>
<path d="M134.411 76.2225L137.967 74.2314L138.628 77.8529C138.628 77.8529 135.631 79.0058 134.056 78.1982L134.411 76.2225Z" fill="#FFB573"/>
<path d="M140.32 74.6427L140.569 75.8262C140.605 76.0076 140.588 76.1959 140.518 76.3674C140.448 76.539 140.33 76.6864 140.177 76.7912L138.613 77.8477L137.952 74.2262L139.177 73.9215C139.299 73.8908 139.427 73.8853 139.551 73.9053C139.676 73.9253 139.796 73.9704 139.902 74.0378C140.009 74.1052 140.101 74.1936 140.173 74.2975C140.245 74.4015 140.295 74.5189 140.32 74.6427Z" fill="#FFB573"/>
<path d="M113.081 63.3316C114.213 65.6375 118.369 74.3482 120.193 76.3595L120.553 76.7354L120.731 76.9233C120.792 76.9843 120.843 77.0401 120.939 77.1265C121.267 77.4378 121.628 77.712 122.016 77.9442C122.709 78.3443 123.455 78.6453 124.231 78.8381C125.593 79.1539 126.99 79.2854 128.387 79.2292C130.989 79.1252 133.567 78.6882 136.057 77.929L135.636 75.8161C134.462 75.9177 133.233 75.9888 132.044 76.0091C130.866 76.0438 129.687 76.0065 128.514 75.8973C127.425 75.8192 126.351 75.6094 125.313 75.2726C124.894 75.1317 124.497 74.9316 124.135 74.6783C123.996 74.5809 123.868 74.4685 123.754 74.3431C123.714 74.3016 123.676 74.2575 123.642 74.2111L123.51 74.0536L123.241 73.7387C121.838 71.9813 118.135 63.5094 117.023 61.3914L113.081 63.3316Z" fill="#FFB573"/>
<path d="M134.356 79.8286C131.428 81.3843 128.003 81.7167 124.831 80.753C121.805 79.78 119.252 77.7111 117.673 74.9526C115.839 72.2556 110.957 64.6268 111.577 62.6561C112.304 60.2994 113.848 58.8366 116.429 59.4715C118.242 59.9083 121.702 68.7155 123.378 72.2353C124.033 73.2156 125.293 74.7749 126.7 75.2523C129.184 76.1107 131.013 75.7602 133.614 75.3691C134.092 75.6535 134.056 76.0954 134.295 76.5881C134.551 77.0879 134.69 77.6397 134.701 78.2013C134.711 78.7629 134.593 79.3195 134.356 79.8286Z" fill="#3A0065"/>
<path d="M111.008 44.1884C110.231 48.3634 109.992 50.1462 107.594 52.0458C103.998 54.9002 99.0344 53.0311 98.5518 48.7037C98.115 44.808 99.4612 38.6318 103.789 37.4687C104.742 37.2072 105.746 37.1937 106.706 37.4295C107.666 37.6653 108.55 38.1425 109.273 38.8158C109.996 39.4892 110.535 40.3362 110.839 41.2766C111.143 42.2169 111.201 43.2192 111.008 44.1884Z" fill="#FFB573"/>
<path d="M125.832 67.3034C125.034 68.2126 124.785 68.7408 123.673 69.2335C122.56 69.7262 120.152 69.2944 119.385 68.3548C119.634 69.0862 121.087 70.3864 121.849 70.5033C120.989 70.9748 119.994 71.1392 119.028 70.9693C118.062 70.7994 117.183 70.3054 116.535 69.5687C116.642 70.0268 116.864 70.4499 117.18 70.7976C117.497 71.1454 117.898 71.406 118.344 71.5546C108.61 71.8086 112.71 67.2272 106.614 60.7107C99.8678 53.4984 101.331 47.5355 101.331 47.5355C101.347 46.0503 100.882 44.5999 100.005 43.4011C99.0296 42.1516 99.3141 40.4653 99.6239 39.5206C100.076 38.134 101.453 37.6464 102.774 37.5651C103.007 36.1989 105.822 36.4477 106.162 36.6763C106.502 36.9049 106.543 36.8591 106.853 36.6763C107.539 36.2344 109.266 35.7773 111.115 37.2706C112.243 38.1848 113.452 39.8101 113.492 43.3046C113.533 46.926 111.801 51.228 117.795 56.7287C121.326 59.959 119.634 66.9225 125.832 67.3034Z" fill="#263238"/>
<path d="M100.528 44.5032C100.056 45.1729 99.8592 45.9986 99.9793 46.8091C100.152 47.8808 101.193 47.9519 101.95 47.2662C102.707 46.5806 103.368 45.3413 102.809 44.4524C102.25 43.5636 101.117 43.6906 100.528 44.5032Z" fill="#FFB573"/>
<path d="M109.956 87.8839C109.956 87.8839 107.879 117.043 105.542 136.273C104.839 142.044 103.079 147.636 100.35 152.77L88.8998 174.387L83.0273 172.075C83.0273 172.075 87.0913 151.53 95.0111 140.326C95.0111 140.326 89.0878 106.839 96.8399 87.7823L109.956 87.8839Z" fill="#263238"/>
<path opacity="0.2" d="M101.971 94.9491C101.971 94.9491 103.718 108.155 104.673 116.012C101.092 111.289 98.3132 104.696 101.971 94.9491Z" fill="black"/>
<path d="M124.785 185.825C124.853 185.749 124.901 185.657 124.922 185.557C124.943 185.457 124.938 185.353 124.907 185.256C124.895 185.194 124.867 185.136 124.825 185.088C124.783 185.041 124.729 185.006 124.668 184.987C124.125 184.804 122.86 185.794 122.718 185.906C122.702 185.92 122.69 185.937 122.684 185.957C122.678 185.977 122.677 185.998 122.682 186.018C122.688 186.037 122.7 186.053 122.715 186.066C122.73 186.078 122.749 186.086 122.768 186.089C123.163 186.149 123.564 186.164 123.962 186.135C124.264 186.13 124.555 186.02 124.785 185.825ZM124.597 185.185C124.624 185.193 124.648 185.209 124.667 185.23C124.685 185.252 124.696 185.279 124.699 185.307C124.721 185.37 124.726 185.438 124.714 185.504C124.701 185.57 124.672 185.632 124.628 185.683C124.424 185.911 123.845 185.992 123.053 185.911C123.571 185.525 124.313 185.083 124.597 185.185Z" fill="#3A0065"/>
<path d="M122.844 186.074C123.246 185.794 123.962 184.773 123.81 184.291C123.786 184.211 123.734 184.141 123.665 184.094C123.596 184.047 123.512 184.025 123.429 184.032C123.348 184.03 123.267 184.045 123.193 184.076C123.118 184.108 123.052 184.155 122.997 184.215C122.555 184.682 122.672 185.942 122.677 185.998C122.68 186.016 122.687 186.033 122.697 186.048C122.708 186.063 122.722 186.075 122.738 186.084C122.756 186.089 122.775 186.089 122.794 186.084C122.811 186.086 122.829 186.082 122.844 186.074ZM123.424 184.24C123.561 184.24 123.596 184.301 123.612 184.347C123.698 184.647 123.266 185.403 122.875 185.774C122.816 185.285 122.912 184.789 123.149 184.357C123.207 184.293 123.287 184.253 123.373 184.245L123.424 184.24Z" fill="#3A0065"/>
<path d="M117.612 186.485L122.062 186.059L120.701 175.951L116.25 176.383L117.612 186.485Z" fill="#FFB573"/>
<path d="M122.362 185.525L117.363 186.008C117.277 186.014 117.196 186.051 117.136 186.113C117.076 186.175 117.041 186.257 117.038 186.343L116.855 190.289C116.855 190.39 116.876 190.489 116.917 190.58C116.958 190.671 117.018 190.753 117.093 190.82C117.168 190.886 117.256 190.937 117.351 190.967C117.447 190.997 117.548 191.007 117.647 190.995C119.385 190.802 120.187 190.619 122.413 190.406C123.764 190.274 125.755 190.223 127.625 190.045C129.494 189.868 129.408 188.039 128.641 187.948C125.085 187.547 124.429 186.582 123.159 185.723C122.925 185.566 122.642 185.496 122.362 185.525Z" fill="#263238"/>
<path d="M114.356 87.8789C114.356 87.8789 120.05 122.676 121.143 143.287L121.351 180.212L116.743 181.111C116.743 181.111 110.073 157.554 109.301 143.937C107.269 107.814 95.4988 107.754 102.58 87.8129L114.356 87.8789Z" fill="#263238"/>
<path d="M122.88 180.365L115.255 181.406L114.478 178.48L122.631 177.419L122.88 180.365Z" fill="#3A0065"/>
<path d="M81.7879 50.5474H82.0775C82.0086 50.5473 81.9404 50.5612 81.877 50.5883C81.8137 50.6154 81.7565 50.6551 81.709 50.705C81.6615 50.7549 81.6246 50.8139 81.6006 50.8785C81.5766 50.9431 81.5661 51.0119 81.5695 51.0807L82.0369 59.9234C82.0507 60.0622 82.1154 60.1909 82.2187 60.2847C82.3219 60.3785 82.4562 60.4308 82.5957 60.4313H82.2959C82.1568 60.4297 82.0231 60.377 81.9201 60.2834C81.8171 60.1898 81.752 60.0618 81.7371 59.9234L81.2799 51.0807C81.2765 51.0119 81.2871 50.9431 81.3111 50.8785C81.335 50.8139 81.3719 50.7549 81.4194 50.705C81.467 50.6551 81.5241 50.6154 81.5875 50.5883C81.6508 50.5612 81.719 50.5473 81.7879 50.5474Z" fill="#3A0065"/>
<path opacity="0.1" d="M81.7879 50.5474H82.0775C82.0086 50.5473 81.9404 50.5612 81.877 50.5883C81.8137 50.6154 81.7565 50.6551 81.709 50.705C81.6615 50.7549 81.6246 50.8139 81.6006 50.8785C81.5766 50.9431 81.5661 51.0119 81.5695 51.0807L82.0369 59.9234C82.0507 60.0622 82.1154 60.1909 82.2187 60.2847C82.3219 60.3785 82.4562 60.4308 82.5957 60.4313H82.2959C82.1568 60.4297 82.0231 60.377 81.9201 60.2834C81.8171 60.1898 81.752 60.0618 81.7371 59.9234L81.2799 51.0807C81.2765 51.0119 81.2871 50.9431 81.3111 50.8785C81.335 50.8139 81.3719 50.7549 81.4194 50.705C81.467 50.6551 81.5241 50.6154 81.5875 50.5883C81.6508 50.5612 81.719 50.5473 81.7879 50.5474Z" fill="white"/>
<path d="M82.3721 60.4567H85.9281C86.0628 60.4567 86.192 60.4032 86.2873 60.308C86.3825 60.2127 86.4361 60.0835 86.4361 59.9488L85.9738 51.1061C85.9648 50.9632 85.9024 50.8289 85.7988 50.7301C85.6952 50.6312 85.5582 50.575 85.415 50.5728H81.859C81.7901 50.5727 81.7219 50.5866 81.6585 50.6137C81.5952 50.6408 81.538 50.6805 81.4905 50.7304C81.443 50.7803 81.4061 50.8393 81.3821 50.9039C81.3581 50.9685 81.3475 51.0373 81.351 51.1061L81.8133 59.9488C81.8282 60.0872 81.8933 60.2152 81.9962 60.3088C82.0992 60.4024 82.2329 60.455 82.3721 60.4567Z" fill="#3A0065"/>
<path opacity="0.4" d="M82.3721 60.4567H85.9281C86.0628 60.4567 86.192 60.4032 86.2873 60.308C86.3825 60.2127 86.4361 60.0835 86.4361 59.9488L85.9738 51.1061C85.9648 50.9632 85.9024 50.8289 85.7988 50.7301C85.6952 50.6312 85.5582 50.575 85.415 50.5728H81.859C81.7901 50.5727 81.7219 50.5866 81.6585 50.6137C81.5952 50.6408 81.538 50.6805 81.4905 50.7304C81.443 50.7803 81.4061 50.8393 81.3821 50.9039C81.3581 50.9685 81.3475 51.0373 81.351 51.1061L81.8133 59.9488C81.8282 60.0872 81.8933 60.2152 81.9962 60.3088C82.0992 60.4024 82.2329 60.455 82.3721 60.4567Z" fill="white"/>
<path d="M86.2229 59.7406C86.2256 59.7849 86.2194 59.8294 86.2046 59.8713C86.1897 59.9132 86.1666 59.9516 86.1365 59.9844C86.0727 60.0466 85.9869 60.0812 85.8978 60.0809H82.4383C82.3415 60.0797 82.2489 60.0418 82.179 59.9748C82.1092 59.9079 82.0675 59.8168 82.0624 59.7202L81.6102 51.1416C81.607 51.098 81.613 51.0541 81.6279 51.013C81.6427 50.9719 81.6662 50.9343 81.6966 50.9029C81.7271 50.8702 81.7641 50.8443 81.8052 50.8268C81.8464 50.8093 81.8907 50.8006 81.9354 50.8013H85.3949C85.4916 50.8025 85.5843 50.8404 85.6541 50.9073C85.7239 50.9743 85.7656 51.0653 85.7708 51.1619L85.8012 51.7765L86.2229 59.7406Z" fill="#263238"/>
<g opacity="0.1">
<path d="M85.8011 51.7766L84.653 60.0708H83.2763L84.5768 50.7913H85.3947C85.4914 50.7924 85.5841 50.8303 85.6539 50.8973C85.7237 50.9643 85.7655 51.0553 85.7706 51.1519L85.8011 51.7766Z" fill="white"/>
<path d="M82.7785 60.0812H82.4686L83.7691 50.8016H84.079L82.7785 60.0812Z" fill="white"/>
</g>
<path d="M95.7681 88.8693C93.1816 93.9662 91.7917 99.5856 91.7041 105.3C100.34 112 108.382 104.152 118.267 105.478C117.922 101.014 116.403 92.7803 114.605 88.656C108.057 88.9354 101.94 88.2802 95.7681 88.8693Z" fill="#3A0065"/>
<path d="M96.6672 87.0561C96.6672 87.0561 95.9712 88.8491 96.1592 88.8491H114.3C114.457 88.8491 114.584 88.7729 114.594 88.6713L114.752 87.1476C114.752 87.0409 114.625 86.9495 114.457 86.9495H96.9517C96.8991 86.9423 96.8456 86.9483 96.7959 86.9669C96.7463 86.9855 96.702 87.0162 96.6672 87.0561Z" fill="white"/>
<path d="M99.2225 89.0218H98.7551C98.6586 89.0218 98.5875 88.971 98.5925 88.91L98.8161 86.8784C98.8161 86.8174 98.9024 86.7717 98.9939 86.7717H99.4663C99.5577 86.7717 99.6289 86.8174 99.6238 86.8784L99.4053 88.91C99.3912 88.946 99.3656 88.9764 99.3326 88.9966C99.2996 89.0167 99.261 89.0256 99.2225 89.0218Z" fill="#3A0065"/>
<path d="M110.581 89.0218H110.114C110.023 89.0218 109.951 88.971 109.957 88.91L110.175 86.8784C110.175 86.8174 110.261 86.7717 110.358 86.7717H110.825C110.917 86.7717 110.988 86.8174 110.983 86.8784L110.764 88.91C110.744 88.9507 110.678 89.0218 110.581 89.0218Z" fill="#3A0065"/>
</svg>
