<svg width="254" height="247" viewBox="0 0 254 247" fill="none" xmlns="http://www.w3.org/2000/svg">
<path d="M127 247C197.14 247 254 214.082 254 173.475C254 132.868 197.14 99.95 127 99.95C56.8598 99.95 0 132.868 0 173.475C0 214.082 56.8598 247 127 247Z" fill="#F0F0F0"/>
<path d="M199.936 198.987C191.608 194.166 191.608 186.35 199.936 181.529C208.263 176.707 221.766 176.707 230.094 181.529C238.422 186.35 238.422 194.166 230.094 198.987C221.766 203.808 208.263 203.808 199.936 198.987Z" fill="#E0E0E0"/>
<path d="M30.552 199.657L8.64599 186.977C7.41162 186.263 7.41162 185.101 8.64599 184.388L136.066 110.62C136.759 110.268 137.524 110.084 138.301 110.084C139.077 110.084 139.842 110.268 140.535 110.62L162.446 123.3C163.681 124.013 163.681 125.175 162.446 125.889L35.0259 199.657C34.3325 200.009 33.5662 200.192 32.789 200.192C32.0118 200.192 31.2455 200.009 30.552 199.657Z" fill="#E0E0E0"/>
<path d="M109.293 177.053L128.127 166.135C130.067 165.011 131.037 163.54 131.037 162.065C131.037 160.589 131.037 159.438 131.037 159.438L111.503 148.39C110.957 148.036 110.503 147.558 110.177 146.994C109.851 146.431 109.663 145.798 109.627 145.147V121.857L76.7466 140.915V164.195C76.7845 164.845 76.9739 165.477 77.2997 166.04C77.6255 166.603 78.0785 167.082 78.6224 167.438L95.246 177.037C99.1162 179.302 105.412 179.302 109.293 177.053Z" fill="#3A0065"/>
<g opacity="0.6">
<path d="M109.293 177.053L128.127 166.135C130.067 165.011 131.037 163.54 131.037 162.065C131.037 160.589 131.037 159.438 131.037 159.438L111.503 148.39C110.957 148.036 110.503 147.558 110.177 146.994C109.851 146.431 109.663 145.798 109.627 145.147V121.857L76.7466 140.915V164.195C76.7845 164.845 76.9739 165.477 77.2997 166.04C77.6255 166.603 78.0785 167.082 78.6224 167.438L95.246 177.037C99.1162 179.302 105.412 179.302 109.293 177.053Z" fill="black"/>
</g>
<path opacity="0.3" d="M84.6326 168.319V170.935L78.6063 167.448C78.0625 167.093 77.6098 166.614 77.2849 166.051C76.9599 165.487 76.7719 164.855 76.7358 164.205V140.915L82.9993 137.288C83.1287 138.883 83.2688 140.531 83.4036 142.153L78.9997 144.693V162.881C79.0347 163.532 79.2228 164.165 79.5489 164.729C79.875 165.292 80.3296 165.771 80.8756 166.124L84.6326 168.319Z" fill="black"/>
<path d="M78.9998 162.886C79.0368 163.537 79.2259 164.169 79.5518 164.732C79.8776 165.296 80.3311 165.774 80.8756 166.129L95.2245 174.421C99.1054 176.664 105.401 176.669 109.288 174.421L128.154 163.503C132.04 161.254 132.04 157.611 128.154 155.363L113.794 147.071C113.251 146.715 112.799 146.236 112.474 145.673C112.149 145.11 111.96 144.478 111.923 143.828V125.635L79.0429 144.693L78.9998 162.886Z" fill="#3A0065"/>
<path opacity="0.3" d="M78.9998 162.886C79.0368 163.537 79.2259 164.169 79.5518 164.732C79.8776 165.296 80.3311 165.774 80.8756 166.129L95.2245 174.421C99.1054 176.664 105.401 176.669 109.288 174.421L128.154 163.503C132.04 161.254 132.04 157.611 128.154 155.363L113.794 147.071C113.251 146.715 112.799 146.236 112.474 145.673C112.149 145.11 111.96 144.478 111.923 143.828V125.635L79.0429 144.693L78.9998 162.886Z" fill="black"/>
<path opacity="0.5" d="M117.594 149.293L113.772 147.082C113.229 146.726 112.777 146.247 112.452 145.684C112.127 145.121 111.939 144.489 111.902 143.839V125.635L79.0211 144.693V162.886C79.0582 163.537 79.2473 164.169 79.5731 164.732C79.899 165.296 80.3525 165.774 80.8969 166.129L84.6701 168.291L117.594 149.293Z" fill="black"/>
<path d="M131.043 159.443V162.07C131.043 163.546 130.067 165.011 128.132 166.14L109.266 177.053C107.201 178.158 104.895 178.732 102.555 178.723V176.107C104.895 176.116 107.201 175.542 109.266 174.437L128.132 163.513C130.067 162.395 131.043 160.919 131.043 159.443Z" fill="#3A0065"/>
<path opacity="0.5" d="M131.043 159.443V162.07C131.043 163.546 130.067 165.011 128.132 166.14L109.266 177.053C107.201 178.158 104.895 178.732 102.555 178.723V176.107C104.895 176.116 107.201 175.542 109.266 174.437L128.132 163.513C130.067 162.395 131.043 160.919 131.043 159.443Z" fill="black"/>
<path d="M26.1751 185.496C26.886 185.84 27.6675 186.012 28.4568 185.998C29.246 185.984 30.021 185.784 30.7191 185.415L157.929 111.771C158.611 111.325 159.179 110.724 159.587 110.017C159.994 109.31 160.229 108.516 160.274 107.701V4.50747C160.25 3.71421 160.039 2.93795 159.659 2.24193C159.278 1.54592 158.739 0.949861 158.086 0.502325C157.376 0.157675 156.595 -0.0141196 155.806 0.000907436C155.017 0.0159345 154.243 0.217359 153.547 0.588806L26.3369 74.2543C25.6571 74.7033 25.0929 75.3069 24.6901 76.0161C24.2872 76.7253 24.0573 77.5199 24.019 78.3352V181.512C24.0431 182.299 24.2506 183.069 24.6251 183.761C24.9995 184.453 25.5304 185.047 26.1751 185.496Z" fill="#3A0065"/>
<path d="M30.7351 185.409L157.945 111.765C158.628 111.32 159.197 110.72 159.604 110.012C160.012 109.305 160.247 108.511 160.29 107.695V4.50748C160.29 3.01028 159.239 2.3995 157.945 3.15081L30.7351 76.7947C30.0527 77.2405 29.4848 77.8414 29.0774 78.5486C28.67 79.2557 28.4346 80.0492 28.3904 80.8647V184.053C28.3904 185.55 29.4415 186.161 30.7351 185.409Z" fill="#3A0065"/>
<path opacity="0.5" d="M30.7351 185.409L157.945 111.765C158.628 111.32 159.197 110.72 159.604 110.012C160.012 109.305 160.247 108.511 160.29 107.695V4.50748C160.29 3.01028 159.239 2.3995 157.945 3.15081L30.7351 76.7947C30.0527 77.2405 29.4848 77.8414 29.0774 78.5486C28.67 79.2557 28.4346 80.0492 28.3904 80.8647V184.053C28.3904 185.55 29.4415 186.161 30.7351 185.409Z" fill="black"/>
<path d="M30.3903 188.09C29.7233 188.382 29.001 188.526 28.2733 188.511C27.5456 188.496 26.8298 188.323 26.1751 188.004C25.529 187.554 24.9972 186.958 24.6227 186.264C24.2482 185.57 24.0414 184.798 24.019 184.009V174.615L28.4121 177.167V186.561C28.3852 187.928 29.253 188.55 30.3903 188.09Z" fill="#3A0065"/>
<path opacity="0.5" d="M30.3903 188.09C29.7233 188.382 29.001 188.526 28.2733 188.511C27.5456 188.496 26.8298 188.323 26.1751 188.004C25.529 187.554 24.9972 186.958 24.6227 186.264C24.2482 185.57 24.0414 184.798 24.019 184.009V174.615L28.4121 177.167V186.561C28.3852 187.928 29.253 188.55 30.3903 188.09Z" fill="black"/>
<path d="M28.385 177.167V186.561C28.385 188.058 29.4631 188.663 30.7298 187.917L157.94 114.273C158.619 113.829 159.185 113.232 159.592 112.529C160 111.826 160.237 111.037 160.285 110.225V100.788L28.385 177.167Z" fill="#3A0065"/>
<path opacity="0.3" d="M28.3904 177.145V186.561C28.3904 188.058 29.4684 188.663 30.7351 187.917L157.945 114.273C158.624 113.829 159.189 113.231 159.595 112.528C160.001 111.825 160.237 111.036 160.285 110.225V100.788L28.3904 177.145Z" fill="black"/>
<path d="M32.7836 165.357V82.3295C32.8087 81.8403 32.9487 81.364 33.1922 80.9395C33.4358 80.5149 33.776 80.1541 34.185 79.8864L154.463 10.2314C155.24 9.78279 155.87 10.1449 155.87 11.0422V94.1125C155.844 94.602 155.703 95.0785 155.459 95.503C155.214 95.9275 154.873 96.2882 154.463 96.5556L34.1904 166.194C33.4142 166.643 32.7836 166.275 32.7836 165.357Z" fill="#3A0065"/>
<path d="M32.7836 165.357V82.3295C32.8087 81.8403 32.9487 81.364 33.1922 80.9395C33.4358 80.5149 33.776 80.1541 34.185 79.8864L154.463 10.2314C155.24 9.78279 155.87 10.1449 155.87 11.0422V94.1125C155.844 94.602 155.703 95.0785 155.459 95.503C155.214 95.9275 154.873 96.2882 154.463 96.5556L34.1904 166.194C33.4142 166.643 32.7836 166.275 32.7836 165.357Z" fill="#263238"/>
<path d="M94.335 141.969C93.6947 142.387 93.1618 142.95 92.7797 143.613C92.3975 144.276 92.1769 145.021 92.1357 145.786C92.1357 147.191 93.1222 147.764 94.335 147.061C94.9759 146.643 95.5093 146.079 95.8915 145.415C96.2737 144.751 96.4939 144.005 96.5342 143.239C96.5342 141.834 95.5478 141.266 94.335 141.969Z" fill="#3A0065"/>
<path opacity="0.7" d="M29.0805 78.5406C28.6628 79.2447 28.424 80.0409 28.3852 80.8593V177.167L24.019 174.615V78.3352C24.0473 77.5141 24.2849 76.7139 24.709 76.011L29.0805 78.5406Z" fill="black"/>
<path opacity="0.3" d="M160.263 4.11823C160.096 2.9075 159.121 2.49672 157.94 3.15073L30.7299 76.7946C30.0402 77.2272 29.4709 77.8278 29.0751 78.5405L24.6766 75.9947C25.0751 75.2822 25.646 74.6818 26.3368 74.2489L153.547 0.61035C154.244 0.238851 155.019 0.0374173 155.809 0.0223916C156.598 0.00736589 157.38 0.179172 158.091 0.523869C158.689 0.932144 159.192 1.46433 159.567 2.08443C159.941 2.70453 160.179 3.3981 160.263 4.11823Z" fill="black"/>
<path d="M167.125 16.8203C166.936 16.7252 166.725 16.6835 166.514 16.6997C166.303 16.7159 166.101 16.7893 165.928 16.9122L45.8979 86.4428C45.4242 86.757 45.0311 87.1786 44.7501 87.6734C44.4692 88.1683 44.3084 88.7225 44.2808 89.2913V171.81C44.264 172.089 44.3191 172.367 44.441 172.618C44.5628 172.869 44.7471 173.084 44.9761 173.243C45.2403 173.389 46.6525 174.21 47.0729 174.437C47.2217 174.513 47.3879 174.548 47.5546 174.539C47.7212 174.529 47.8824 174.476 48.0216 174.383L168.025 104.852C168.499 104.538 168.892 104.117 169.173 103.622C169.454 103.127 169.615 102.573 169.642 102.004V19.058C169.666 18.8484 169.632 18.6362 169.542 18.4452C169.453 18.2543 169.312 18.0921 169.135 17.977C168.866 17.7986 167.427 16.9986 167.125 16.8203Z" fill="#3A0065"/>
<path d="M47.9948 87.6105L168.031 18.1069C168.936 17.5664 169.648 18.0096 169.648 19.0582V102.004C169.62 102.573 169.459 103.127 169.178 103.622C168.897 104.117 168.504 104.539 168.031 104.853L47.9948 174.383C47.0892 174.924 46.3777 174.054 46.3777 173.005V90.459C46.4061 89.8904 46.5673 89.3365 46.8481 88.8418C47.129 88.3471 47.5217 87.9253 47.9948 87.6105Z" fill="#FAFAFA"/>
<path d="M168.764 18.42C169.082 18.42 169.13 18.82 169.13 19.0578V102.004C169.101 102.48 168.962 102.943 168.723 103.356C168.485 103.769 168.153 104.12 167.756 104.382L47.736 173.913C47.6555 173.965 47.5624 173.995 47.4665 173.999C47.1647 173.999 46.9275 173.534 46.9275 173.005V90.4586C46.9535 89.9825 47.0886 89.5188 47.3223 89.1036C47.556 88.6883 47.882 88.3326 48.2751 88.0642L168.3 18.5714C168.439 18.4815 168.599 18.4294 168.764 18.42ZM168.764 17.8795C168.504 17.8906 168.251 17.9688 168.031 18.1065L47.9948 87.6102C47.5217 87.925 47.129 88.3467 46.8481 88.8414C46.5673 89.3362 46.4061 89.8901 46.3777 90.4586V173.005C46.3777 173.837 46.8412 174.54 47.4557 174.54C47.6461 174.536 47.832 174.482 47.9948 174.383L168.025 104.852C168.499 104.538 168.892 104.117 169.173 103.622C169.454 103.127 169.615 102.573 169.642 102.004V19.0578C169.642 18.3119 169.276 17.8795 168.737 17.8795H168.764Z" fill="#E0E0E0"/>
<path d="M44.944 173.243C45.1219 173.334 46.3994 174.064 46.9599 174.388C46.7586 174.221 46.5992 174.009 46.4944 173.768C46.3896 173.528 46.3422 173.267 46.3562 173.005V95.8476L44.254 94.6152V171.81C44.2366 172.088 44.291 172.366 44.4118 172.617C44.5327 172.868 44.7159 173.083 44.944 173.243Z" fill="#F0F0F0"/>
<path d="M169.669 19.042C169.669 18.0042 168.931 17.5826 168.052 18.1069L47.9948 87.6105C47.5217 87.9253 47.129 88.3471 46.8481 88.8418C46.5673 89.3365 46.4061 89.8904 46.3777 90.459V95.8641L169.669 24.447V19.042Z" fill="#3A0065"/>
<g opacity="0.4">
<path d="M168.03 18.1066L47.9947 87.6048C47.5129 87.9094 47.1161 88.3316 46.8412 88.8317L44.7551 87.6156C45.0296 87.1329 45.423 86.7291 45.8979 86.4427L165.928 16.912C166.1 16.7884 166.302 16.714 166.513 16.6968C166.724 16.6797 166.935 16.7204 167.125 16.8148C167.416 16.9985 168.78 17.7714 169.13 17.9606C168.949 17.8932 168.754 17.8713 168.562 17.8967C168.371 17.9222 168.188 17.9942 168.03 18.1066Z" fill="white"/>
</g>
<path opacity="0.15" d="M44.254 94.6206V89.2641C44.2762 88.6804 44.4489 88.1124 44.7553 87.6156L46.8467 88.8263C46.5447 89.3146 46.3756 89.8736 46.3562 90.4479V95.8529L44.254 94.6206Z" fill="black"/>
<path d="M144.357 81.2647L72.4666 122.884C72.117 123.111 71.8259 123.418 71.617 123.78C71.4081 124.141 71.2873 124.547 71.2645 124.965V145.634C71.2873 146.051 71.4081 146.457 71.617 146.818C71.8259 147.18 72.117 147.487 72.4666 147.714L74.5634 148.925C74.936 149.114 75.3478 149.213 75.7654 149.213C76.183 149.213 76.5948 149.114 76.9674 148.925L148.847 107.306C149.196 107.078 149.487 106.77 149.696 106.407C149.905 106.045 150.026 105.638 150.049 105.22V84.5456C150.026 84.1283 149.905 83.7223 149.696 83.3607C149.487 82.9991 149.196 82.6921 148.847 82.4646L146.744 81.2539C146.373 81.0679 145.964 80.972 145.549 80.9739C145.134 80.9758 144.726 81.0754 144.357 81.2647Z" fill="#3A0065"/>
<path opacity="0.5" d="M150.049 84.3618C149.962 83.7402 149.461 83.5132 148.857 83.8645L76.9674 125.483C76.6129 125.704 76.3213 126.013 76.1211 126.381L71.6202 123.775C71.822 123.414 72.1111 123.109 72.4611 122.889L144.356 81.2701C144.728 81.0807 145.139 80.9819 145.556 80.9819C145.973 80.9819 146.384 81.0807 146.755 81.2701L148.857 82.4808C149.178 82.6914 149.45 82.9681 149.655 83.2924C149.861 83.6168 149.995 83.9813 150.049 84.3618Z" fill="white"/>
<path d="M76.7626 149.028C76.4106 149.167 76.0333 149.23 75.6554 149.214C75.2774 149.197 74.9071 149.1 74.5688 148.931L72.4666 147.72C72.1176 147.492 71.8269 147.185 71.6181 146.823C71.4093 146.462 71.2882 146.056 71.2645 145.639V124.97C71.2807 124.548 71.4031 124.137 71.6203 123.776L76.1212 126.381C75.9024 126.738 75.7798 127.146 75.7654 127.564V148.239C75.7654 148.925 76.1966 149.244 76.7626 149.028Z" fill="#263238"/>
<path d="M76.9674 125.484L148.857 83.8646C149.52 83.4808 150.059 83.7889 150.059 84.5564V105.231C150.036 105.649 149.916 106.055 149.707 106.418C149.498 106.78 149.207 107.088 148.857 107.317L76.9781 148.936C76.3151 149.32 75.7761 149.006 75.7761 148.239V127.57C75.7978 127.153 75.9168 126.747 76.1238 126.384C76.3307 126.022 76.6197 125.713 76.9674 125.484Z" fill="#3A0065"/>
<path d="M125.297 92.3019L72.4721 122.889C72.1221 123.109 71.833 123.414 71.6312 123.776L76.1321 126.381C76.3323 126.014 76.6238 125.704 76.9784 125.484L129.803 94.9017L125.297 92.3019Z" fill="#455A64"/>
<path d="M129.792 94.9016L76.9674 125.483C76.6177 125.712 76.3266 126.02 76.1178 126.383C75.909 126.745 75.7882 127.152 75.7654 127.57V148.233C75.7654 149.001 76.3044 149.314 76.9674 148.931L129.792 118.349V94.9016Z" fill="#37474F"/>
<path d="M89.1495 122.965L116.408 107.187C117.535 106.533 118.451 106.998 118.451 108.225C118.401 108.914 118.189 109.582 117.833 110.173C117.477 110.765 116.987 111.264 116.403 111.63L89.1495 127.413C88.0229 128.067 87.1012 127.602 87.1012 126.375C87.152 125.686 87.3639 125.018 87.7197 124.425C88.0755 123.833 88.5653 123.332 89.1495 122.965Z" fill="#3A0065"/>
<path d="M94.7338 128.191C94.7388 128.186 94.745 128.181 94.752 128.178C94.759 128.175 94.7665 128.173 94.7742 128.173C94.7818 128.173 94.7894 128.175 94.7964 128.178C94.8033 128.181 94.8095 128.186 94.8146 128.191C94.8387 128.228 94.8501 128.272 94.8469 128.316V131.391C94.8473 131.688 94.8221 131.985 94.7715 132.278C94.727 132.545 94.651 132.806 94.5451 133.056C94.4485 133.285 94.3216 133.499 94.1678 133.694C94.0161 133.874 93.8336 134.026 93.6287 134.142C93.4683 134.247 93.2812 134.303 93.0897 134.305C93.0166 134.299 92.9454 134.278 92.8805 134.244C92.8156 134.209 92.7584 134.162 92.7124 134.105C92.5941 133.946 92.5164 133.76 92.486 133.564C92.4344 133.302 92.4109 133.036 92.4159 132.769V129.689C92.4158 129.635 92.4268 129.581 92.4483 129.532C92.4615 129.487 92.4902 129.449 92.5291 129.424L92.8687 129.224C92.8797 129.213 92.8941 129.208 92.9091 129.208C92.9241 129.208 92.9386 129.213 92.9496 129.224C92.9745 129.26 92.9859 129.304 92.9819 129.348V132.386C92.9778 132.553 92.9941 132.72 93.0304 132.883C93.0453 132.987 93.0903 133.085 93.1598 133.164C93.184 133.193 93.2147 133.216 93.2493 133.231C93.2839 133.246 93.3216 133.253 93.3592 133.251C93.4514 133.244 93.5405 133.215 93.618 133.164C93.7138 133.107 93.801 133.036 93.8767 132.953C93.9608 132.856 94.0299 132.747 94.0815 132.629C94.1423 132.49 94.1875 132.345 94.2163 132.197C94.2477 132.018 94.2622 131.837 94.2594 131.656V128.613C94.2611 128.559 94.2739 128.505 94.2971 128.456C94.3104 128.412 94.339 128.373 94.378 128.348L94.7338 128.191Z" fill="#FAFAFA"/>
<path d="M96.8467 131.1C96.8495 131.06 96.8401 131.02 96.8197 130.986C96.8069 130.972 96.7909 130.961 96.7731 130.955C96.7553 130.948 96.7362 130.946 96.7173 130.948C96.6511 130.939 96.584 130.939 96.5179 130.948L96.2052 131.008C96.1044 131.033 95.9989 131.033 95.898 131.008C95.8189 130.982 95.7505 130.931 95.7039 130.862C95.6512 130.774 95.6164 130.677 95.6015 130.575C95.5489 130.286 95.5489 129.989 95.6015 129.7C95.642 129.534 95.6998 129.372 95.774 129.219C95.8478 129.065 95.9382 128.92 96.0435 128.786C96.1455 128.658 96.2697 128.55 96.4101 128.467C96.5234 128.398 96.6502 128.354 96.782 128.337C96.8776 128.327 96.9739 128.348 97.0569 128.397C97.136 128.445 97.1981 128.517 97.2348 128.602C97.2782 128.703 97.302 128.811 97.3049 128.921C97.3105 128.976 97.2992 129.03 97.2725 129.078C97.2593 129.123 97.2306 129.161 97.1917 129.186L96.8682 129.375C96.8535 129.384 96.8368 129.388 96.8197 129.388C96.8027 129.388 96.786 129.384 96.7712 129.375L96.7011 129.321C96.6733 129.299 96.6395 129.286 96.6041 129.283C96.5348 129.291 96.4683 129.315 96.4101 129.354C96.3254 129.405 96.2506 129.471 96.1891 129.548C96.1238 129.633 96.0896 129.738 96.092 129.846C96.0844 129.887 96.0844 129.929 96.092 129.97C96.1024 129.985 96.1159 129.998 96.1318 130.007C96.1476 130.017 96.1654 130.022 96.1837 130.024C96.2426 130.034 96.3027 130.034 96.3616 130.024L96.6634 129.97C96.9168 129.921 97.0892 129.97 97.2024 130.111C97.3214 130.311 97.376 130.543 97.3588 130.775C97.3574 130.936 97.3356 131.096 97.2941 131.251C97.2515 131.42 97.19 131.583 97.1108 131.738C97.0316 131.898 96.932 132.047 96.8143 132.181C96.7027 132.312 96.5696 132.424 96.4209 132.511C96.3024 132.587 96.1674 132.633 96.0274 132.646C95.926 132.65 95.8261 132.621 95.7417 132.565C95.6585 132.508 95.5945 132.427 95.5584 132.332C95.5149 132.23 95.4928 132.119 95.4937 132.008C95.4887 131.952 95.4999 131.896 95.5261 131.846C95.5393 131.801 95.568 131.763 95.6069 131.738L95.9303 131.549C95.9735 131.549 96.0058 131.522 96.0274 131.549L96.0974 131.624C96.1118 131.64 96.1292 131.653 96.1486 131.663C96.168 131.672 96.1891 131.677 96.2106 131.678C96.2865 131.679 96.3604 131.654 96.4209 131.608C96.5182 131.553 96.6056 131.481 96.6796 131.397C96.7163 131.353 96.7471 131.304 96.7712 131.251C96.8093 131.208 96.8353 131.156 96.8467 131.1Z" fill="#FAFAFA"/>
<path d="M97.9462 129.635C97.9452 129.354 97.9687 129.074 98.0163 128.797C98.0613 128.537 98.1317 128.281 98.2265 128.035C98.3058 127.814 98.4146 127.605 98.5499 127.413C98.6629 127.249 98.81 127.11 98.9812 127.008C99.1061 126.924 99.2585 126.891 99.407 126.916C99.5387 126.946 99.6541 127.026 99.7304 127.138C99.8318 127.284 99.9033 127.45 99.9406 127.624C99.9923 127.851 100.018 128.083 100.016 128.316V128.651C100.018 128.708 100.005 128.764 99.9783 128.813C99.9651 128.858 99.9365 128.896 99.8975 128.921L98.496 129.738C98.4927 129.833 98.5054 129.928 98.5338 130.019C98.5546 130.08 98.5919 130.134 98.6416 130.176C98.6858 130.211 98.7415 130.228 98.7979 130.224C98.863 130.217 98.9256 130.194 98.9812 130.159C99.0627 130.115 99.1357 130.056 99.1968 129.986C99.2519 129.924 99.299 129.855 99.3369 129.781C99.3599 129.738 99.3851 129.697 99.4124 129.657C99.4355 129.629 99.4628 129.605 99.4932 129.586L99.8274 129.392C99.8389 129.383 99.8531 129.378 99.8678 129.378C99.8825 129.378 99.8968 129.383 99.9083 129.392C99.9224 129.409 99.9327 129.429 99.9382 129.45C99.9438 129.472 99.9447 129.494 99.9406 129.516C99.9347 129.622 99.9129 129.725 99.8759 129.824C99.8294 129.974 99.768 130.119 99.6927 130.257C99.6083 130.415 99.5071 130.564 99.3908 130.7C99.2748 130.839 99.1363 130.958 98.9812 131.051C98.8538 131.135 98.7012 131.171 98.5499 131.154C98.4174 131.122 98.3018 131.041 98.2265 130.927C98.1204 130.763 98.0489 130.579 98.0163 130.386C97.9673 130.139 97.9438 129.887 97.9462 129.635ZM98.9812 127.911C98.8983 127.955 98.8264 128.018 98.7709 128.094C98.7111 128.17 98.6621 128.254 98.6254 128.343C98.5876 128.432 98.557 128.525 98.5338 128.619C98.5148 128.704 98.5022 128.791 98.496 128.878L99.4447 128.338C99.4392 128.263 99.4284 128.189 99.4124 128.116C99.4041 128.051 99.378 127.989 99.3369 127.938C99.3208 127.914 99.3 127.895 99.2759 127.88C99.2518 127.865 99.2248 127.855 99.1968 127.851C99.1201 127.845 99.0437 127.866 98.9812 127.911Z" fill="#FAFAFA"/>
<path d="M101.709 126.403C101.546 126.496 101.417 126.64 101.342 126.813C101.258 127.042 101.22 127.284 101.229 127.527V129.479C101.23 129.534 101.219 129.59 101.197 129.641C101.184 129.685 101.155 129.724 101.116 129.749L100.798 129.933C100.793 129.938 100.787 129.943 100.78 129.946C100.773 129.949 100.765 129.951 100.757 129.951C100.75 129.951 100.742 129.949 100.735 129.946C100.728 129.943 100.722 129.938 100.717 129.933C100.693 129.896 100.682 129.852 100.685 129.808V126.311C100.685 126.255 100.696 126.2 100.717 126.148C100.732 126.105 100.76 126.067 100.798 126.04L101.116 125.857C101.127 125.846 101.141 125.841 101.156 125.841C101.171 125.841 101.186 125.846 101.197 125.857C101.222 125.891 101.233 125.933 101.229 125.976V126.148C101.293 126.003 101.373 125.866 101.466 125.738C101.552 125.619 101.662 125.521 101.79 125.451L101.984 125.338C101.994 125.328 102.007 125.322 102.022 125.322C102.036 125.322 102.049 125.328 102.059 125.338C102.085 125.374 102.099 125.417 102.097 125.462V125.954C102.096 126.01 102.083 126.065 102.059 126.116C102.046 126.159 102.019 126.197 101.984 126.224L101.709 126.403Z" fill="#FAFAFA"/>
<path d="M105.73 126.144C105.735 126.138 105.741 126.133 105.748 126.13C105.755 126.127 105.763 126.125 105.77 126.125C105.778 126.125 105.785 126.127 105.792 126.13C105.799 126.133 105.806 126.138 105.811 126.144C105.835 126.18 105.846 126.224 105.843 126.268V126.808C105.843 126.864 105.832 126.919 105.811 126.971C105.792 127.011 105.764 127.046 105.73 127.073L103.886 128.155C103.875 128.165 103.861 128.17 103.846 128.17C103.831 128.17 103.816 128.165 103.805 128.155C103.781 128.12 103.77 128.078 103.773 128.036V123.17C103.773 123.115 103.784 123.06 103.805 123.008C103.821 122.966 103.849 122.93 103.886 122.905L104.226 122.705C104.237 122.695 104.251 122.689 104.266 122.689C104.281 122.689 104.296 122.695 104.307 122.705C104.331 122.74 104.342 122.782 104.339 122.824V126.938L105.73 126.144Z" fill="#FAFAFA"/>
<path d="M107.385 122.143C107.506 122.059 107.652 122.019 107.8 122.03C107.926 122.04 108.044 122.098 108.128 122.192C108.229 122.307 108.303 122.444 108.344 122.592C108.402 122.783 108.434 122.981 108.441 123.181C108.441 123.224 108.441 123.284 108.441 123.354V123.77C108.441 123.835 108.441 123.895 108.441 123.943C108.43 124.178 108.398 124.412 108.344 124.641C108.294 124.864 108.222 125.081 108.128 125.289C108.043 125.483 107.932 125.665 107.8 125.83C107.686 125.979 107.545 126.106 107.385 126.203C107.26 126.284 107.113 126.324 106.964 126.316C106.84 126.306 106.724 126.248 106.641 126.154C106.537 126.043 106.463 125.907 106.425 125.76C106.368 125.568 106.335 125.37 106.328 125.17C106.328 125.127 106.328 125.073 106.328 125.003V124.587C106.328 124.516 106.328 124.457 106.328 124.414C106.334 124.177 106.365 123.941 106.42 123.711C106.472 123.486 106.546 123.267 106.641 123.057C106.726 122.864 106.835 122.683 106.964 122.516C107.078 122.365 107.221 122.238 107.385 122.143ZM107.891 123.538C107.891 123.418 107.871 123.299 107.832 123.186C107.812 123.118 107.77 123.057 107.713 123.013C107.667 122.983 107.612 122.969 107.557 122.976C107.496 122.987 107.437 123.011 107.385 123.046C107.321 123.081 107.263 123.124 107.212 123.176C107.15 123.24 107.098 123.313 107.056 123.392C107.002 123.49 106.962 123.596 106.937 123.705C106.902 123.843 106.88 123.985 106.873 124.127C106.873 124.17 106.873 124.219 106.873 124.278V124.662C106.873 124.722 106.873 124.77 106.873 124.803C106.878 124.922 106.899 125.041 106.937 125.154C106.957 125.223 106.999 125.284 107.056 125.327C107.078 125.343 107.104 125.354 107.131 125.36C107.157 125.365 107.185 125.365 107.212 125.36C107.273 125.349 107.332 125.327 107.385 125.295C107.447 125.259 107.505 125.215 107.557 125.165C107.617 125.099 107.67 125.027 107.713 124.949C107.765 124.849 107.805 124.744 107.832 124.635C107.867 124.497 107.887 124.356 107.891 124.214C107.895 124.163 107.895 124.113 107.891 124.062V123.684C107.894 123.635 107.894 123.586 107.891 123.538Z" fill="#FAFAFA"/>
<path d="M110.091 125.305C110.159 125.263 110.221 125.21 110.274 125.148C110.339 125.072 110.395 124.989 110.441 124.9C110.494 124.791 110.536 124.677 110.565 124.559C110.598 124.427 110.614 124.29 110.613 124.154V123.878C110.613 123.932 110.559 123.997 110.522 124.073C110.485 124.152 110.442 124.228 110.392 124.3C110.336 124.376 110.275 124.448 110.209 124.516C110.142 124.587 110.063 124.647 109.977 124.694C109.922 124.732 109.859 124.758 109.794 124.771C109.728 124.784 109.66 124.784 109.595 124.77C109.475 124.732 109.372 124.654 109.304 124.548C109.216 124.409 109.152 124.255 109.115 124.094C109.069 123.89 109.044 123.682 109.039 123.473C109.039 123.402 109.039 123.316 109.039 123.213C109.039 123.111 109.039 123.024 109.039 122.948C109.046 122.711 109.071 122.474 109.115 122.24C109.159 122.01 109.222 121.784 109.304 121.565C109.38 121.374 109.477 121.193 109.595 121.024C109.694 120.875 109.825 120.75 109.977 120.657C110.049 120.613 110.127 120.582 110.209 120.565C110.27 120.553 110.332 120.553 110.392 120.565C110.44 120.578 110.484 120.602 110.522 120.635C110.556 120.661 110.587 120.692 110.613 120.727V120.554C110.614 120.498 110.625 120.443 110.646 120.392C110.661 120.35 110.689 120.314 110.727 120.289L111.045 120.1C111.056 120.09 111.07 120.084 111.085 120.084C111.1 120.084 111.114 120.09 111.125 120.1C111.151 120.136 111.165 120.18 111.163 120.224V123.738C111.178 124.264 111.08 124.787 110.878 125.273C110.718 125.654 110.443 125.976 110.091 126.191C109.97 126.266 109.833 126.309 109.692 126.316C109.58 126.323 109.469 126.294 109.374 126.235C109.283 126.166 109.209 126.077 109.158 125.975C109.105 125.852 109.076 125.72 109.072 125.586C109.067 125.53 109.078 125.474 109.104 125.424C109.117 125.379 109.146 125.341 109.185 125.316L109.471 125.154C109.477 125.147 109.485 125.141 109.494 125.137C109.503 125.133 109.512 125.131 109.522 125.131C109.531 125.131 109.541 125.133 109.55 125.137C109.559 125.141 109.567 125.147 109.573 125.154C109.6 125.182 109.623 125.213 109.643 125.246C109.676 125.304 109.73 125.346 109.794 125.364C109.859 125.413 109.956 125.359 110.091 125.305ZM109.584 122.684C109.584 122.828 109.584 122.968 109.584 123.105C109.568 123.321 109.63 123.535 109.756 123.711C109.804 123.752 109.866 123.775 109.929 123.775C109.992 123.775 110.053 123.752 110.101 123.711C110.258 123.609 110.38 123.462 110.452 123.289C110.55 123.063 110.605 122.821 110.613 122.575C110.613 122.494 110.613 122.397 110.613 122.284C110.613 122.17 110.613 122.073 110.613 122.003C110.624 121.809 110.567 121.618 110.452 121.462C110.404 121.418 110.341 121.394 110.276 121.394C110.212 121.394 110.149 121.418 110.101 121.462C109.948 121.564 109.828 121.708 109.756 121.878C109.646 122.132 109.587 122.406 109.584 122.684Z" fill="#FAFAFA"/>
<path d="M112.419 117.884C112.43 117.875 112.443 117.87 112.457 117.87C112.471 117.87 112.484 117.875 112.495 117.884C112.523 117.919 112.536 117.964 112.532 118.008V118.598C112.533 118.654 112.52 118.709 112.495 118.76C112.48 118.8 112.453 118.836 112.419 118.862L112.058 119.073C112.053 119.079 112.047 119.084 112.04 119.087C112.033 119.09 112.025 119.092 112.018 119.092C112.01 119.092 112.002 119.09 111.996 119.087C111.989 119.084 111.982 119.079 111.977 119.073C111.963 119.057 111.953 119.038 111.946 119.018C111.94 118.997 111.937 118.976 111.94 118.954V118.365C111.939 118.309 111.952 118.253 111.977 118.203C111.992 118.161 112.021 118.125 112.058 118.1L112.419 117.884ZM112.511 122.96C112.511 123.014 112.5 123.067 112.479 123.117C112.461 123.159 112.434 123.197 112.398 123.225L112.074 123.409C112.07 123.415 112.064 123.419 112.057 123.422C112.051 123.425 112.044 123.427 112.037 123.427C112.029 123.427 112.022 123.425 112.016 123.422C112.009 123.419 112.003 123.415 111.999 123.409C111.971 123.374 111.957 123.329 111.961 123.285V119.787C111.961 119.731 111.974 119.675 111.999 119.625C112.014 119.583 112.04 119.545 112.074 119.517L112.398 119.333C112.409 119.323 112.423 119.317 112.438 119.317C112.453 119.317 112.468 119.323 112.479 119.333C112.503 119.367 112.514 119.409 112.511 119.452V122.96Z" fill="#FAFAFA"/>
<path d="M115.346 121.311C115.346 121.367 115.335 121.422 115.314 121.474C115.299 121.516 115.27 121.552 115.233 121.576L114.909 121.765C114.899 121.775 114.886 121.781 114.872 121.781C114.858 121.781 114.844 121.775 114.834 121.765C114.806 121.731 114.792 121.686 114.796 121.641V119.738C114.813 119.514 114.772 119.289 114.678 119.084C114.602 118.949 114.484 118.927 114.316 119.025C114.15 119.137 114.026 119.303 113.966 119.495C113.876 119.75 113.832 120.019 113.837 120.29V122.198C113.836 122.254 113.825 122.309 113.804 122.36C113.791 122.405 113.763 122.443 113.724 122.468L113.406 122.652C113.4 122.658 113.394 122.662 113.387 122.666C113.38 122.669 113.373 122.67 113.365 122.67C113.357 122.67 113.35 122.669 113.343 122.666C113.336 122.662 113.33 122.658 113.325 122.652C113.3 122.618 113.288 122.575 113.292 122.533V119.035C113.292 118.98 113.303 118.924 113.325 118.873C113.338 118.829 113.367 118.79 113.406 118.765L113.724 118.581C113.729 118.576 113.735 118.571 113.742 118.568C113.749 118.565 113.756 118.563 113.764 118.563C113.772 118.563 113.779 118.565 113.786 118.568C113.793 118.571 113.799 118.576 113.804 118.581C113.829 118.618 113.84 118.662 113.837 118.706V118.873C113.908 118.709 113.994 118.551 114.095 118.403C114.184 118.266 114.304 118.153 114.446 118.073C114.569 117.983 114.721 117.945 114.872 117.965C114.931 117.98 114.987 118.008 115.035 118.046C115.084 118.084 115.123 118.132 115.152 118.187C115.23 118.333 115.281 118.492 115.303 118.657C115.332 118.872 115.346 119.089 115.346 119.306V121.311Z" fill="#FAFAFA"/>
<path d="M142.535 105.577L137.301 108.604L138.115 101.242C137.484 100.907 137.085 100.091 137.085 98.9177C137.085 96.8259 138.357 94.399 139.92 93.5126C141.484 92.6262 142.75 93.5667 142.75 95.6746C142.718 96.9149 142.365 98.1254 141.726 99.1879L142.535 105.577Z" fill="#455A64"/>
<path d="M142.54 105.577L137.931 102.912L137.301 108.61L142.54 105.577Z" fill="#37474F"/>
<path d="M139.909 93.4964C138.77 94.2686 137.92 95.4005 137.495 96.7124L141.715 99.1555C142.354 98.0931 142.707 96.8825 142.739 95.6422C142.75 93.5505 141.483 92.5938 139.909 93.4964Z" fill="#37474F"/>
<path d="M114.467 68.9844C112.673 67.9466 110.198 68.0925 107.46 69.6762C101.994 72.8436 97.5636 80.535 97.5636 86.8643C97.5636 90.0425 98.6848 92.2694 100.485 93.2963L103.973 95.3286C105.762 96.3664 108.236 96.2151 110.98 94.6314C116.446 91.4694 120.876 83.7726 120.876 77.4433C120.876 74.2813 119.766 72.0382 117.977 71.0275" fill="#3A0065"/>
<path d="M110.975 71.714C105.509 74.8813 101.078 82.5781 101.078 88.9021C101.078 95.226 105.509 97.7988 110.975 94.6314C116.44 91.4641 120.877 83.7727 120.871 77.4433C120.866 71.114 116.435 68.552 110.975 71.714Z" fill="#3A0065"/>
<path d="M116.435 85.7563V86.4806C115.125 88.8243 113.247 90.7987 110.975 92.2208C108.845 93.4477 106.921 93.5829 105.509 92.7991V91.3073C105.581 89.7553 106.023 88.2431 106.798 86.8975C107.572 85.5518 108.657 84.4118 109.961 83.5727L111.4 82.7403C112.672 82.0052 113.912 81.9079 114.882 82.4755C115.853 83.043 116.435 84.2375 116.435 85.7563Z" fill="#3A0065"/>
<path opacity="0.4" d="M114.467 68.9844L117.971 71.0275C116.182 69.9844 113.707 70.1303 110.964 71.714C107.385 73.7895 104.248 77.8055 102.512 82.1079L99.0028 80.0702C100.744 75.7462 103.854 71.7518 107.455 69.6763C110.204 68.098 112.678 67.9467 114.467 68.9844Z" fill="white"/>
<path opacity="0.2" d="M103.849 95.2475L100.49 93.2963C98.6901 92.2693 97.569 90.0532 97.569 86.8643L101.078 88.9074C101.1 91.9883 102.135 94.1827 103.849 95.2475Z" fill="black"/>
<path opacity="0.1" d="M99.0137 80.0702L102.523 82.1079C101.624 84.2618 101.141 86.5674 101.1 88.9021L97.5907 86.8589C97.6339 84.5263 98.1168 82.2229 99.0137 80.0702Z" fill="black"/>
<path d="M109.724 82.3998C109.39 82.4034 109.06 82.3176 108.77 82.1512C108.42 81.9172 108.14 81.5928 107.958 81.2123C107.777 80.8317 107.702 80.4091 107.74 79.9891C107.786 79.0044 108.066 78.0449 108.558 77.191C109.049 76.3372 109.737 75.6138 110.565 75.0813C110.897 74.8153 111.302 74.656 111.726 74.6243C112.15 74.5926 112.574 74.69 112.942 74.9037C113.31 75.1174 113.605 75.4375 113.789 75.8222C113.973 76.2068 114.036 76.6381 113.972 77.0596C113.925 78.0442 113.644 79.0033 113.153 79.857C112.662 80.7107 111.974 81.4343 111.147 81.9674C110.719 82.2352 110.228 82.3844 109.724 82.3998Z" fill="white"/>
<path d="M114.882 82.47C113.912 81.9024 112.672 81.9997 111.4 82.7348L109.961 83.5672C108.656 84.4068 107.571 85.5477 106.796 86.8944C106.022 88.2411 105.58 89.7543 105.509 91.3073V92.8045C106.921 93.5882 108.845 93.4531 110.975 92.2261C113.247 90.804 115.125 88.8296 116.435 86.4859V85.7617C116.435 84.2374 115.874 83.0429 114.882 82.47Z" fill="white"/>
<path d="M225.696 175.978C225.696 175.978 226.413 169.664 229.544 164.762C232.676 159.86 236.978 156.806 240.993 156.487C245.009 156.168 248.254 159.876 243.958 162.432C239.662 164.989 232.029 167.573 228.515 177.086L225.696 175.978Z" fill="#3A0065"/>
<path opacity="0.1" d="M225.696 175.978C225.696 175.978 226.413 169.664 229.544 164.762C232.676 159.86 236.978 156.806 240.993 156.487C245.009 156.168 248.254 159.876 243.958 162.432C239.662 164.989 232.029 167.573 228.515 177.086L225.696 175.978Z" fill="black"/>
<path d="M226.876 174.334H226.833C226.78 174.313 226.738 174.271 226.716 174.218C226.694 174.166 226.693 174.106 226.714 174.053C230.951 163.594 239.015 159.222 242.691 158.379C242.719 158.372 242.747 158.371 242.775 158.376C242.803 158.381 242.83 158.391 242.854 158.406C242.878 158.421 242.899 158.441 242.915 158.464C242.932 158.487 242.943 158.513 242.95 158.541C242.956 158.568 242.957 158.597 242.952 158.625C242.948 158.653 242.938 158.68 242.923 158.704C242.908 158.728 242.888 158.749 242.865 158.766C242.842 158.782 242.816 158.794 242.788 158.8C239.187 159.633 231.28 163.924 227.113 174.221C227.092 174.264 227.058 174.299 227.015 174.319C226.971 174.34 226.923 174.345 226.876 174.334Z" fill="white"/>
<path d="M248.319 174.459C247.957 175.28 247.063 175.713 246.233 176.048C245.402 176.383 244.497 176.745 244.044 177.523C243.139 179.091 244.626 181.307 243.656 182.826C243.428 183.131 243.14 183.388 242.81 183.579C242.48 183.77 242.115 183.893 241.737 183.939C241.117 184.053 240.487 184.053 239.861 184.107C239.562 184.103 239.263 184.079 238.966 184.036C238.095 183.841 237.185 183.938 236.374 184.312C235.129 185.015 234.757 186.588 233.991 187.804C233.524 188.52 232.907 189.126 232.185 189.581C231.462 190.037 230.649 190.33 229.803 190.441C229.264 190.512 228.186 190.614 227.647 190.295C227.605 190.275 227.565 190.249 227.528 190.22C227.447 190.133 227.35 190.02 227.307 189.96C227.305 189.948 227.305 189.935 227.307 189.922C227.086 189.106 227.447 188.263 227.464 187.42V187.269C227.426 186.29 227.399 185.317 227.377 184.344C227.331 182.543 227.313 180.741 227.324 178.939C227.324 177.772 227.194 176.496 227.69 175.399C228.229 174.188 229.587 174.161 230.1 172.978C230.304 172.502 230.412 171.999 230.612 171.518C230.92 170.819 231.413 170.218 232.039 169.78C232.664 169.343 233.397 169.086 234.158 169.037C236.525 168.918 238.643 170.837 241.009 170.659C241.618 170.61 242.217 170.421 242.821 170.313C244.734 169.951 246.949 170.497 248.028 172.124C248.264 172.459 248.414 172.847 248.465 173.254C248.516 173.662 248.466 174.075 248.319 174.459Z" fill="#3A0065"/>
<path d="M227.07 186.177C227.019 186.162 226.976 186.127 226.95 186.081C226.924 186.034 226.917 185.98 226.93 185.928C230.197 173.637 243.101 171.875 246.136 172.08C246.162 172.082 246.188 172.088 246.212 172.1C246.236 172.112 246.258 172.128 246.276 172.148C246.293 172.169 246.307 172.192 246.315 172.218C246.323 172.243 246.326 172.27 246.324 172.297C246.319 172.349 246.293 172.398 246.253 172.432C246.213 172.466 246.161 172.483 246.109 172.48C243.149 172.27 230.515 174.005 227.318 186.036C227.303 186.087 227.269 186.131 227.223 186.157C227.176 186.183 227.122 186.19 227.07 186.177Z" fill="white"/>
<path d="M241.424 179.951C241.383 179.945 241.346 179.926 241.317 179.897C240.123 178.86 238.717 178.1 237.197 177.671C235.678 177.242 234.082 177.155 232.525 177.415C232.473 177.42 232.42 177.405 232.378 177.373C232.336 177.341 232.308 177.294 232.299 177.242C232.291 177.189 232.304 177.135 232.335 177.092C232.366 177.049 232.413 177.019 232.466 177.01C234.09 176.739 235.754 176.831 237.338 177.281C238.922 177.73 240.387 178.526 241.629 179.61C241.648 179.629 241.663 179.651 241.674 179.676C241.684 179.7 241.689 179.727 241.689 179.753C241.689 179.78 241.684 179.807 241.674 179.831C241.663 179.856 241.648 179.878 241.629 179.897C241.605 179.926 241.572 179.947 241.535 179.956C241.499 179.966 241.46 179.964 241.424 179.951Z" fill="white"/>
<path d="M196.033 27.5276L197.747 28.187V24.4035C197.747 21.3983 200.135 20.6794 202.728 22.182C205.326 23.6846 207.428 27.333 207.428 30.3383V30.8788C207.789 30.7681 208.171 30.7407 208.544 30.7987C208.918 30.8568 209.273 30.9987 209.584 31.2139C210.569 31.8576 211.388 32.7251 211.975 33.746C212.562 34.7669 212.901 35.9123 212.964 37.0892V37.3378L215.357 38.7215C216.005 39.1453 216.544 39.716 216.93 40.3874C217.317 41.0587 217.541 41.812 217.583 42.5861C217.583 44.0131 216.586 44.5914 215.357 43.8779L196.033 32.684C195.385 32.2612 194.846 31.6907 194.46 31.019C194.074 30.3473 193.852 29.5936 193.812 28.8194C193.812 27.3979 194.799 26.8196 196.033 27.5276Z" fill="#E6E6E6"/>
<path d="M218.99 24.5334L222.1 26.3333C222.083 26.197 222.074 26.0599 222.073 25.9225V25.0199C222.073 23.3984 223.195 22.7606 224.585 23.5659C225.183 23.9328 225.694 24.4252 226.084 25.0091C226.31 22.9876 227.895 22.2363 229.814 23.3443C230.91 24.0598 231.824 25.0243 232.479 26.1596C233.135 27.2949 233.514 28.5692 233.587 29.879V31.2303C233.601 31.7702 233.492 32.3062 233.269 32.7978L235.856 34.2896C236.26 34.5577 236.594 34.917 236.834 35.3384C237.074 35.7599 237.211 36.2319 237.236 36.7164C237.236 37.6083 236.611 37.9704 235.84 37.5272L218.99 27.7981C218.583 27.5318 218.244 27.1727 218.001 26.7499C217.758 26.3272 217.619 25.8529 217.594 25.3658C217.594 24.4524 218.219 24.0902 218.99 24.5334Z" fill="#E6E6E6"/>
<path d="M206.948 106.566C204.684 110.403 202.507 113.738 200.976 115.338C198.07 116.689 191.246 118.776 188.578 119.122C188.11 119.182 187.635 119.07 187.241 118.808C186.19 118.116 185.376 118.003 184.271 117.619C183.404 117.322 183.037 116.906 182.875 117.079C182.708 117.275 182.624 117.529 182.641 117.786C182.659 118.044 182.775 118.285 182.967 118.457C183.382 118.852 183.841 119.197 184.336 119.484C183.153 119.778 181.918 119.8 180.725 119.549C178.412 118.938 177.323 120.051 178.886 122.57C179.426 123.467 181.646 124.911 186.109 124.521C187.702 124.435 189.287 124.255 190.858 123.981C195.138 123.062 199.898 122.176 202.825 121.278C203.913 120.849 204.888 120.172 205.671 119.3C210.592 113.673 212.225 109.663 214.381 106.02L214.198 100.074C210.705 99.9554 208.84 103.355 206.948 106.566Z" fill="#FFA8A7"/>
<path d="M214.796 99.9554C213.784 99.8127 212.751 99.9502 211.811 100.353C210.87 100.756 210.057 101.409 209.46 102.242C207.067 105.317 202.83 112.701 202.83 112.701C202.83 112.701 204.215 116.403 207.956 117.025L213.966 108.885C213.966 108.885 216.812 103.231 214.796 99.9554Z" fill="#455A64"/>
<path d="M227.793 182.945H223.874V189.95H227.793V182.945Z" fill="#FFA8A7"/>
<path d="M214.209 182.572L210.296 182.712L210.096 175.297L214.209 175.156V182.572Z" fill="#FFA8A7"/>
<path d="M228.342 122.305C228.342 126.208 227.771 157.649 227.771 157.649C227.857 158.773 228.849 160.849 228.649 165.167C228.353 171.032 227.959 186.447 227.959 186.447C227.287 186.792 226.545 186.979 225.789 186.994C225.033 187.009 224.284 186.852 223.599 186.534C223.599 186.534 220.418 164.913 219.718 159.125C219.103 154.049 217.529 137.25 217.529 137.25L215.411 157.108C215.86 159.239 216.023 161.42 215.896 163.594C215.713 166.297 214.451 180.285 214.451 180.285C213.774 180.686 213.015 180.927 212.232 180.989C211.448 181.052 210.661 180.935 209.929 180.647C209.929 180.647 207.697 159.568 207.654 157.092C207.6 154.282 208.959 122.273 208.959 122.273L228.342 122.305Z" fill="#37474F"/>
<path d="M223.874 187.928V187.344C223.497 187.512 222.629 190.982 221.071 192.463C219.837 193.641 218.155 194.998 217.724 196.311C217.292 197.625 220.068 198.43 221.227 198.219C222.564 197.971 224.893 196.982 225.475 196.057C226.057 195.133 226.332 193.793 226.806 193.122C227.28 192.452 228.375 191.706 228.628 190.928C228.707 190.2 228.632 189.463 228.407 188.766C228.224 188.042 228.03 187.247 227.793 187.317V187.761C227.24 188.215 226.545 188.46 225.831 188.453C225.259 188.501 223.868 188.382 223.874 187.928Z" fill="#263238"/>
<path d="M210.252 181.447C210.048 181.447 209.88 181.755 209.433 182.264C208.768 182.965 207.99 183.55 207.131 183.993C205.665 184.761 202.819 185.939 201.52 186.55C200.712 186.928 200.749 187.944 201.585 188.523C202.42 189.101 204.431 189.517 206.846 188.955C208.161 188.647 209.875 187.377 210.964 187.447C212.053 187.517 214.074 187.496 214.877 186.907C215.68 186.317 215.357 185.096 215.131 184.042C214.883 182.885 214.592 181.085 214.209 181.166V181.572C213.74 182.318 211.309 182.62 210.274 182.074L210.252 181.447Z" fill="#263238"/>
<path d="M217.529 137.25C215.491 136.581 213.627 135.464 212.074 133.98C212.074 133.98 213.152 136.04 216.257 137.958L215.589 155.692L217.529 137.25Z" fill="#263238"/>
<path d="M226.154 100.528C226.154 100.528 229.388 101.274 229.156 107.133L228.482 116.457V130.456C225.604 133.732 212.851 133.494 208.458 130.197C208.458 130.197 208.953 113.63 209.25 107.252C209.46 102.723 210.5 100.442 214.942 99.9446L220.402 100.182L226.154 100.528Z" fill="#3A0065"/>
<path d="M222.036 88.3561C222.054 89.1405 221.918 89.9209 221.634 90.6522C221.351 91.3835 220.926 92.0512 220.383 92.617C219.841 93.1828 219.193 93.6353 218.475 93.9486C217.758 94.2618 216.986 94.4296 216.203 94.4422C212.969 94.4422 211.072 91.6424 210.371 88.3561C209.078 82.3403 212.98 82.2646 216.203 82.2646C217.782 82.2973 219.284 82.9573 220.377 84.0996C221.471 85.2419 222.068 86.7729 222.036 88.3561Z" fill="#263238"/>
<path d="M225.011 90.8154C225.011 90.8154 224.116 95.2043 223.755 95.9286C223.528 96.3645 223.142 96.6956 222.677 96.8529L222.742 93.7666L225.011 90.8154Z" fill="#263238"/>
<path d="M223.884 84.5294C223.884 84.5294 224.526 84.3672 225.21 85.4374C225.793 86.3509 225.927 88.4048 225.011 90.8425L223.324 91.0479L223.884 84.5294Z" fill="#263238"/>
<path d="M224.504 85.4214L226.574 85.4592C226.588 85.3251 226.575 85.1894 226.534 85.0608C226.494 84.9322 226.427 84.8134 226.338 84.7118C226.25 84.6103 226.141 84.5282 226.019 84.4708C225.898 84.4133 225.765 84.3818 225.631 84.3781C225.348 84.3821 225.076 84.4909 224.869 84.6835C224.661 84.876 224.531 85.1388 224.504 85.4214Z" fill="#263238"/>
<path d="M224.758 84.9297L226.288 83.4539C226.2 83.3496 226.091 83.2648 225.969 83.2048C225.846 83.1448 225.713 83.1109 225.576 83.1053C225.44 83.0997 225.304 83.1225 225.177 83.1723C225.05 83.2221 224.935 83.2977 224.838 83.3944C224.635 83.5935 224.514 83.8619 224.5 84.1463C224.485 84.4307 224.577 84.7103 224.758 84.9297Z" fill="#263238"/>
<path d="M222.817 91.0208C223.157 91.2316 223.636 90.556 224.057 90.0965C224.477 89.6371 225.782 89.2155 226.461 90.7073C227.14 92.1991 225.981 93.6747 225.011 94.1611C223.27 95.026 222.72 93.7666 222.72 93.7666L222.575 100.717C220.127 104.501 214.575 104.382 216.575 100.534V98.4203C215.753 98.5575 214.917 98.601 214.085 98.5501C212.727 98.3339 211.875 97.215 211.46 95.68C210.802 93.2153 210.549 91.2262 211.109 86.3779C211.724 81.0701 217.642 81.0106 220.812 83.1348C223.981 85.259 222.817 91.0208 222.817 91.0208Z" fill="#FFA8A7"/>
<path d="M215.443 85.5509C216.856 85.4104 218.252 85.1185 219.669 85.0104C219.975 84.9733 220.285 84.9879 220.586 85.0537C221.664 85.3509 221.534 86.6157 221.707 87.4967C222.003 89.021 222.246 91.5992 222.817 91.61C222.99 91.61 223.637 90.4911 224.057 90.0912C224.288 89.7465 224.419 89.3441 224.434 88.9291C224.542 88.3021 224.596 87.6589 224.645 87.0211C224.688 86.4806 224.742 85.9401 224.742 85.3996C224.766 84.7888 224.717 84.1772 224.596 83.5781C224.461 83.0684 224.202 82.6003 223.841 82.216L223.734 82.0971C223.023 81.3522 222.161 80.7697 221.206 80.3891C219.831 79.8728 218.39 79.5579 216.926 79.454C215.464 79.3502 214.008 79.1698 212.565 78.9135C212.482 78.8893 212.394 78.8893 212.312 78.9135C212.253 78.946 212.204 78.9927 212.168 79.0494C212.132 79.1061 212.111 79.1709 212.107 79.2378C212.048 79.5737 212.085 79.9195 212.213 80.2352C212.342 80.5508 212.558 80.8235 212.835 81.0215C211.859 81.0972 210.738 80.5891 209.8 80.3296C209.724 80.2974 209.642 80.2808 209.56 80.2808C209.478 80.2808 209.396 80.2974 209.32 80.3296C209.226 80.3956 209.159 80.4935 209.131 80.6053C209.063 80.8593 209.054 81.1255 209.104 81.3836C209.19 82.1659 209.48 82.9116 209.945 83.5456C210.672 84.4941 211.698 85.1669 212.856 85.4536C213.709 85.6184 214.581 85.6512 215.443 85.5509Z" fill="#263238"/>
<path d="M216.581 98.4208C216.581 98.4208 219.61 97.7829 220.667 97.1936C221.296 96.8483 221.807 96.3208 222.133 95.6799C221.974 96.3238 221.69 96.93 221.297 97.4639C220.526 98.5019 216.581 99.2587 216.581 99.2587V98.4208Z" fill="#F28F8F"/>
<path d="M217.308 90.2264C217.302 90.3933 217.363 90.5557 217.476 90.6783C217.589 90.8008 217.746 90.8735 217.912 90.8806C218.044 90.8915 218.176 90.8621 218.291 90.7963C218.407 90.7305 218.499 90.6314 218.557 90.5119C218.615 90.3924 218.636 90.2582 218.616 90.1267C218.597 89.9953 218.538 89.8728 218.448 89.7752C218.358 89.6777 218.241 89.6097 218.112 89.5802C217.983 89.5507 217.848 89.561 217.724 89.6098C217.601 89.6585 217.496 89.7435 217.421 89.8535C217.347 89.9636 217.308 90.0936 217.308 90.2264Z" fill="#263238"/>
<path d="M218.279 87.6049L219.578 88.3563C219.672 88.1711 219.694 87.9569 219.638 87.7565C219.582 87.5561 219.453 87.3842 219.276 87.2751C219.19 87.2267 219.094 87.1967 218.996 87.1872C218.898 87.1776 218.799 87.1887 218.705 87.2197C218.611 87.2507 218.525 87.301 218.451 87.3673C218.378 87.4336 218.319 87.5145 218.279 87.6049Z" fill="#263238"/>
<path d="M216.85 94.6099L215.465 95.1505C215.493 95.2458 215.54 95.3343 215.603 95.4105C215.667 95.4868 215.745 95.5492 215.833 95.5938C215.922 95.6384 216.019 95.6643 216.117 95.6699C216.216 95.6755 216.315 95.6606 216.408 95.6262C216.597 95.5447 216.747 95.3944 216.829 95.2056C216.911 95.0169 216.919 94.8039 216.85 94.6099Z" fill="#F28F8F"/>
<path d="M211.735 88.1618L212.921 87.2103C212.868 87.1273 212.798 87.0564 212.715 87.0022C212.633 86.9481 212.54 86.912 212.443 86.8962C212.346 86.8804 212.247 86.8852 212.152 86.9105C212.057 86.9357 211.968 86.9808 211.891 87.0427C211.733 87.1775 211.629 87.366 211.6 87.5724C211.572 87.7787 211.619 87.9885 211.735 88.1618Z" fill="#263238"/>
<path d="M212.258 90.0481C212.267 90.1664 212.311 90.2793 212.383 90.3732C212.456 90.4671 212.554 90.5377 212.665 90.5766C212.777 90.6155 212.898 90.6208 213.013 90.5921C213.127 90.5633 213.231 90.5016 213.312 90.4145C213.392 90.3275 213.446 90.2188 213.465 90.1018C213.485 89.9848 213.471 89.8646 213.424 89.7558C213.376 89.647 213.299 89.5543 213.2 89.4891C213.101 89.4239 212.985 89.3889 212.867 89.3885C212.784 89.3913 212.702 89.4106 212.626 89.4454C212.55 89.4801 212.482 89.5296 212.425 89.5909C212.369 89.6522 212.325 89.7242 212.296 89.8027C212.267 89.8812 212.254 89.9646 212.258 90.0481Z" fill="#263238"/>
<path d="M215.508 89.5399L215.438 93.3836L213.26 92.8862L215.508 89.5399Z" fill="#F28F8F"/>
<path d="M163.794 121.728L167.174 119.771L168.51 118.143L165.136 120.1L163.794 121.728Z" fill="#3A0065"/>
<path opacity="0.4" d="M163.794 121.728L167.174 119.771L168.51 118.143L165.136 120.1L163.794 121.728Z" fill="black"/>
<path d="M172.984 127.046L176.364 125.089L179.183 122.586L175.809 124.538L172.984 127.046Z" fill="#3A0065"/>
<path opacity="0.4" d="M172.984 127.046L176.364 125.089L179.183 122.586L175.809 124.538L172.984 127.046Z" fill="black"/>
<path d="M201.693 133.796C202.492 134.871 202.976 136.147 203.089 137.483C202.293 136.407 201.81 135.131 201.693 133.796ZM209.547 133.899C208.409 126.143 204.253 118.473 199.305 115.603C196.928 114.225 194.729 114.176 192.966 115.208L189.786 117.046L189.608 117.154C189.466 117.232 189.33 117.319 189.198 117.414C188.937 117.594 188.692 117.797 188.465 118.019L188.358 118.122C188.261 118.219 188.158 118.333 188.066 118.441C187.975 118.549 187.835 118.716 187.727 118.862C187.498 119.164 187.291 119.482 187.107 119.814C187.01 119.981 186.918 120.159 186.832 120.354L159.056 104.279L155.682 106.231V108.393L155.967 108.555L156.237 108.712V109.144L155.698 109.463V110.717L159.778 119.365L163.81 121.705L165.152 120.084L168.71 122.219L170.753 125.727L173.006 127.029L175.825 124.521L179.286 126.527L180.45 131.343L186.266 134.715C186.554 135.941 186.914 137.148 187.344 138.331C187.382 138.45 187.43 138.575 187.479 138.71C189.409 143.79 192.476 148.141 195.936 150.147C196.351 150.393 196.786 150.605 197.235 150.779C197.473 150.874 197.716 150.955 197.963 151.022C198.179 151.08 198.394 151.129 198.61 151.168C199.291 151.293 199.988 151.293 200.669 151.168L200.949 151.098C201.083 151.071 201.215 151.033 201.343 150.985L201.645 150.866C201.751 150.827 201.854 150.778 201.952 150.72C202.051 150.676 202.149 150.628 202.243 150.574L202.383 150.487C202.408 150.479 202.432 150.466 202.453 150.449C203.224 150.006 205.121 148.904 205.639 148.612C208.204 147.12 209.865 143.347 209.865 138.012C209.86 136.635 209.754 135.26 209.547 133.899Z" fill="#3A0065"/>
<path d="M200.706 140.342C199.37 139.569 198.292 137.277 198.292 135.223C198.292 133.169 199.37 132.126 200.706 132.894C202.043 133.661 203.116 135.958 203.116 138.018C203.116 140.077 202.038 141.115 200.706 140.342ZM206.167 135.85C205.035 128.099 200.879 120.424 195.925 117.56C193.629 116.23 191.505 116.133 189.78 117.046L189.602 117.154C189.461 117.232 189.324 117.319 189.193 117.414C188.932 117.594 188.686 117.796 188.46 118.019L188.352 118.122C188.255 118.219 188.152 118.333 188.061 118.441C187.969 118.549 187.829 118.716 187.721 118.862C187.492 119.164 187.285 119.482 187.101 119.814C187.004 119.981 186.913 120.159 186.826 120.354C186.324 121.399 185.961 122.506 185.748 123.646L155.676 106.231V108.393L155.962 108.555L156.231 108.712V109.144L155.692 109.463V110.717L159.773 119.365L163.805 121.705L165.147 120.084L168.704 122.219L170.747 125.727L173 127.029L175.82 124.521L179.28 126.527L180.444 131.342L186.266 134.715C186.553 135.941 186.913 137.148 187.344 138.331C187.382 138.45 187.43 138.574 187.479 138.71C189.408 143.79 192.475 148.141 195.936 150.147C196.351 150.393 196.785 150.605 197.235 150.779C197.473 150.874 197.716 150.955 197.963 151.022C198.178 151.08 198.394 151.129 198.61 151.168C199.29 151.293 199.988 151.293 200.669 151.168L200.949 151.098C201.083 151.071 201.215 151.033 201.342 150.984L201.644 150.866C201.751 150.827 201.854 150.778 201.952 150.72C202.051 150.676 202.148 150.628 202.243 150.574L202.383 150.487C202.408 150.479 202.432 150.466 202.453 150.449C204.911 148.893 206.49 145.174 206.49 139.969C206.481 138.59 206.373 137.214 206.167 135.85Z" fill="#3A0065"/>
<path opacity="0.4" d="M203.116 138.012C203.116 140.072 202.038 141.115 200.706 140.342C199.375 139.569 198.292 137.283 198.292 135.223C198.292 133.164 199.37 132.121 200.706 132.894C201.091 133.129 201.426 133.437 201.693 133.802C201.809 135.137 202.292 136.413 203.089 137.488C203.109 137.662 203.118 137.837 203.116 138.012Z" fill="black"/>
<path opacity="0.4" d="M209.854 138.007C209.854 143.342 208.193 147.115 205.628 148.606C205.089 148.898 203.213 150.001 202.442 150.444C204.9 148.887 206.479 145.169 206.479 139.964C206.474 138.587 206.369 137.212 206.167 135.85C205.035 128.1 200.879 120.424 195.925 117.56C193.629 116.23 191.505 116.133 189.78 117.046L192.961 115.209C194.723 114.176 196.922 114.225 199.299 115.603C204.253 118.473 208.409 126.143 209.541 133.899C209.746 135.259 209.851 136.632 209.854 138.007Z" fill="white"/>
<path d="M206.479 139.953C206.479 145.158 204.9 148.877 202.442 150.433C203.213 149.99 205.11 148.887 205.628 148.595C208.193 147.104 209.854 143.331 209.854 137.996C209.854 137.802 209.854 137.602 209.854 137.402L206.479 139.358C206.474 139.569 206.479 139.764 206.479 139.953Z" fill="#3A0065"/>
<path opacity="0.1" d="M206.479 139.953C206.479 145.158 204.9 148.877 202.442 150.433C203.213 149.99 205.11 148.887 205.628 148.595C208.193 147.104 209.854 143.331 209.854 137.996C209.854 137.802 209.854 137.602 209.854 137.402L206.479 139.358C206.474 139.569 206.479 139.764 206.479 139.953Z" fill="black"/>
<path opacity="0.15" d="M185.878 125.856V126.954L155.682 109.474L156.237 109.149V108.695L185.878 125.856Z" fill="black"/>
<path opacity="0.15" d="M185.878 126.31V126.954L155.682 109.474L156.237 109.149V109.144L185.878 126.31Z" fill="black"/>
<path opacity="0.15" d="M199.009 148.601C197.864 148.571 196.748 148.237 195.774 147.633C190.853 144.785 186.848 136.31 186.848 128.743C186.848 124.327 188.18 121.03 190.503 119.684C192.12 118.743 194.033 118.862 196.044 120.024C200.96 122.873 204.965 131.375 204.965 138.942C204.965 143.353 203.633 146.655 201.31 147.996C200.609 148.397 199.816 148.606 199.009 148.601ZM192.837 119.603C192.118 119.599 191.412 119.785 190.788 120.143C188.67 121.37 187.403 124.586 187.403 128.737C187.403 136.131 191.284 144.412 196.06 147.158C197.887 148.239 199.618 148.336 201.057 147.504C203.175 146.277 204.442 143.066 204.442 138.915C204.442 131.516 200.561 123.24 195.791 120.489C194.899 119.945 193.88 119.647 192.837 119.624V119.603Z" fill="black"/>
<path opacity="0.4" d="M186.805 120.343C186.302 121.388 185.94 122.495 185.727 123.635L155.655 106.22L159.029 104.269L186.805 120.343Z" fill="white"/>
<path d="M225.89 122.035C227.464 119.046 229.264 112.333 230.159 108.944C231.431 104.134 229.372 101.107 227.032 100.982C225.572 101.209 220.758 118.76 220.758 118.76C220.219 119.187 212.905 122.911 210.554 123.846C210.134 124.005 209.67 124.005 209.25 123.846C208.123 123.435 207.353 123.511 206.248 123.403C205.38 123.316 204.943 123.008 204.83 123.192C204.727 123.42 204.714 123.678 204.793 123.916C204.872 124.153 205.037 124.352 205.256 124.473C205.732 124.751 206.238 124.972 206.765 125.132C205.82 125.42 204.836 125.553 203.849 125.527C201.585 125.478 200.771 126.462 202.528 128.77C203.606 130.208 205.39 130.662 209.374 129.283C210.517 128.883 212.069 128.11 213.519 127.586C216.505 126.505 217.292 126.375 219.567 125.602C222.882 124.478 225.189 123.365 225.89 122.035Z" fill="#FFA8A7"/>
<path d="M226.154 100.528C227.528 100.717 228.849 101.026 229.663 102.15C230.477 103.274 231.129 104.852 230.331 109.149C229.72 112.171 228.903 115.148 227.884 118.057C227.884 118.057 224.682 119.43 221.281 115.949L223.62 106.879C223.62 106.879 223.998 100.982 226.154 100.528Z" fill="#455A64"/>
</svg>
