<svg width="302" height="277" viewBox="0 0 302 277" fill="none" xmlns="http://www.w3.org/2000/svg">
<path d="M63.6622 137.995C61.3978 133.64 60.4485 130.519 60.4485 129.797C60.4485 128.368 63.5611 127.514 63.5611 127.514C68.4167 124.952 91.2552 128.655 101.534 130.363C107.289 131.364 113.11 131.935 118.949 132.071C118.949 132.071 120.373 130.938 122.062 129.509C123.75 128.081 131.765 118.687 134.909 117.864C138.053 117.041 140.901 119.005 140.901 119.005C140.901 119.005 146.044 122.11 145.181 122.708C144.317 123.306 131.765 134.098 128.622 136.093C125.478 138.089 118.918 137.234 113.207 138.376C108.289 139.354 88.3683 140.565 83.8006 140.938C80.3702 141.75 76.7699 141.451 73.5213 140.084" fill="white"/>
<mask id="mask0_1507_12149" style="mask-type:luminance" maskUnits="userSpaceOnUse" x="60" y="117" width="86" height="25">
<path d="M63.6622 137.995C61.3978 133.64 60.4485 130.519 60.4485 129.797C60.4485 128.368 63.5611 127.514 63.5611 127.514C68.4167 124.952 91.2552 128.655 101.534 130.363C107.289 131.364 113.11 131.935 118.949 132.071C118.949 132.071 120.373 130.938 122.062 129.509C123.75 128.081 131.765 118.687 134.909 117.864C138.053 117.041 140.901 119.005 140.901 119.005C140.901 119.005 146.044 122.11 145.181 122.708C144.317 123.306 131.765 134.098 128.622 136.093C125.478 138.089 118.918 137.234 113.207 138.376C108.289 139.354 88.3683 140.565 83.8006 140.938C80.3702 141.75 76.7699 141.451 73.5213 140.084" fill="white"/>
</mask>
<g mask="url(#mask0_1507_12149)">
<path d="M140.955 118.974C140.955 118.974 138.1 116.978 134.964 117.832C131.828 118.686 123.828 128.089 122.116 129.478C120.405 130.868 119.004 132.04 119.004 132.04C113.164 131.904 107.343 131.333 101.589 130.332C91.3098 128.624 68.4712 124.898 63.6156 127.483C63.6156 127.483 60.503 128.337 60.503 129.766C60.6112 130.564 60.8177 131.346 61.1178 132.095L61.5458 132.25C61.5458 132.25 67.2496 131.652 79.5598 131.947C91.87 132.242 120.342 133.927 122.171 134.587C122.949 134.882 128.466 133.64 134.582 131.481C139.251 127.685 144.737 122.941 145.29 122.607C146.099 122.103 140.955 118.974 140.955 118.974Z" fill="#4E4BAC"/>
<path opacity="0.5" d="M140.955 118.974C140.955 118.974 138.1 116.978 134.964 117.832C131.828 118.686 123.828 128.089 122.116 129.478C120.405 130.868 119.004 132.04 119.004 132.04C113.164 131.904 107.343 131.333 101.589 130.332C91.3098 128.624 68.4712 124.898 63.6156 127.483C63.6156 127.483 60.503 128.337 60.503 129.766C60.6112 130.564 60.8177 131.346 61.1178 132.095L61.5458 132.25C61.5458 132.25 67.2496 131.652 79.5598 131.947C91.87 132.242 120.342 133.927 122.171 134.587C122.949 134.882 128.466 133.64 134.582 131.481C139.251 127.685 144.737 122.941 145.29 122.607C146.099 122.103 140.955 118.974 140.955 118.974Z" fill="white"/>
</g>
<path d="M63.6622 137.995C61.3978 133.64 60.4485 130.519 60.4485 129.797C60.4485 128.368 63.5611 127.514 63.5611 127.514C68.4167 124.952 91.2552 128.655 101.534 130.363C107.289 131.364 113.11 131.935 118.949 132.071C118.949 132.071 120.373 130.938 122.062 129.509C123.75 128.081 131.765 118.687 134.909 117.864C138.053 117.041 140.901 119.005 140.901 119.005C140.901 119.005 146.044 122.11 145.181 122.708C144.317 123.306 131.765 134.098 128.622 136.093C125.478 138.089 118.918 137.234 113.207 138.376C108.289 139.354 88.3683 140.565 83.8006 140.938C80.3702 141.75 76.7699 141.451 73.5213 140.084" stroke="#263238" stroke-linecap="round" stroke-linejoin="round"/>
<path d="M176.423 163.321C176.939 162.343 177.714 161.524 178.663 160.954C179.612 160.383 180.7 160.082 181.808 160.084H233.71C233.71 160.084 237.461 160.084 236.34 167.195C235.22 174.307 219.828 217.731 216.108 230.859C212.389 243.988 211.603 271.658 211.603 271.658H149.351C149.351 271.658 154.285 205.487 176.423 163.321Z" fill="white"/>
<mask id="mask1_1507_12149" style="mask-type:luminance" maskUnits="userSpaceOnUse" x="149" y="160" width="88" height="112">
<path d="M176.423 163.321C176.939 162.343 177.714 161.524 178.663 160.954C179.612 160.383 180.7 160.082 181.808 160.084H233.71C233.71 160.084 237.461 160.084 236.34 167.195C235.22 174.307 219.828 217.731 216.108 230.859C212.389 243.988 211.603 271.658 211.603 271.658H149.351C149.351 271.658 154.285 205.487 176.423 163.321Z" fill="white"/>
</mask>
<g mask="url(#mask1_1507_12149)">
<path opacity="0.16" d="M199.798 160.084H181.808C180.7 160.082 179.612 160.383 178.663 160.954C177.714 161.524 176.939 162.343 176.423 163.321C154.285 205.487 149.297 271.635 149.297 271.635H177.217L184.103 245.541L212.817 251.449C213.019 249.26 213.253 247.031 213.525 244.834L212.895 237.847C212.895 237.847 207.012 231.674 205.16 230.129C203.308 228.584 204.537 225.797 204.226 213.755C203.915 201.714 193.083 193.057 189.052 185.642C185.022 178.228 191.223 173.593 196.795 166.178C198.779 163.5 199.588 161.528 199.798 160.084Z" fill="#040605"/>
</g>
<path d="M176.423 163.321C176.939 162.343 177.714 161.524 178.663 160.954C179.612 160.383 180.7 160.082 181.808 160.084H233.71C233.71 160.084 237.461 160.084 236.34 167.195C235.22 174.307 219.828 217.731 216.108 230.859C212.389 243.988 211.603 271.658 211.603 271.658H149.351C149.351 271.658 154.285 205.487 176.423 163.321Z" stroke="#263238" stroke-linecap="round" stroke-linejoin="round"/>
<path d="M224.707 172.436C219.462 184.649 208.366 232.994 206.561 271.635H211.572C211.572 271.635 212.35 243.934 216.077 230.836C219.805 217.738 235.212 174.307 236.309 167.172C237.406 160.037 233.679 160.06 233.679 160.06C233.679 160.06 228.917 162.646 224.707 172.436Z" fill="#263238" stroke="#263238" stroke-linecap="round" stroke-linejoin="round"/>
<path d="M133.532 148.026C133.532 148.026 125.253 143.182 122.117 134.641C118.981 126.101 146.667 112.421 158.689 111.567C170.712 110.713 174.104 113.842 181.256 126.093C188.407 138.345 193.247 155.146 189.535 163.407C185.823 171.667 179.544 173.663 184.088 180.487C188.632 187.312 201.503 206.69 200.647 215.805C199.791 224.92 190.943 232.886 178.081 233.755C165.218 234.625 148.099 226.915 133.828 214.345C119.557 201.776 123.26 183.29 128.381 177.312C133.501 171.333 141.228 169.051 141.796 163.073C142.364 157.094 133.532 148.026 133.532 148.026Z" fill="#263238" stroke="#263238" stroke-linecap="round" stroke-linejoin="round"/>
<path d="M168.821 134.509C173.217 142.677 178.719 153.616 180.438 160.223C183.442 171.792 167.988 179.074 172.276 184.641" stroke="white" stroke-linecap="round" stroke-linejoin="round"/>
<path d="M162.829 123.811C162.829 123.811 164.541 126.722 166.906 131.008" stroke="white" stroke-linecap="round" stroke-linejoin="round"/>
<path d="M185.893 144.362C186.401 145.892 186.73 147.476 186.874 149.082" stroke="white" stroke-linecap="round" stroke-linejoin="round"/>
<path d="M165.802 119.564C165.802 119.564 179.326 129.533 184.726 141.466" stroke="white" stroke-linecap="round" stroke-linejoin="round"/>
<path d="M147.033 127.04C137.376 129.742 123.486 134.129 124.614 136.66" stroke="white" stroke-linecap="round" stroke-linejoin="round"/>
<path d="M155.958 124.665C155.958 124.665 153.896 125.177 150.822 126" stroke="white" stroke-linecap="round" stroke-linejoin="round"/>
<path d="M144.013 119.634C149.545 117.894 155.338 117.132 161.132 117.382" stroke="white" stroke-linecap="round" stroke-linejoin="round"/>
<path d="M140.076 121.241C140.95 120.786 141.855 120.392 142.784 120.061" stroke="white" stroke-linecap="round" stroke-linejoin="round"/>
<path d="M63.6622 137.995C62.3516 135.601 61.3078 133.07 60.5496 130.449C61.3042 133.071 62.3481 135.602 63.6622 137.995ZM60.464 130.006C60.464 130.053 60.464 130.107 60.464 130.177C60.4796 130.107 60.4718 130.053 60.464 130.006ZM63.6622 137.988C66.5724 143.487 70.1931 148.583 74.4317 153.143C84.711 164.253 114.405 193.313 117.23 195.308C120.054 197.304 119.229 202.995 117.23 208.693C115.23 214.392 107.806 222.668 108.094 231.768C108.382 240.867 111.207 254.842 110.95 257.691C110.693 260.541 103.55 270.23 103.55 270.23H177.209C177.209 270.23 168.027 258.584 168.027 254.601C168.027 250.618 180.633 199.586 181.201 195.883C181.769 192.179 179.489 189.617 174.921 189.33C170.354 189.043 152.939 185.339 152.083 182.49C151.227 179.641 156.65 168.818 156.65 168.818L139.531 169.672C139.531 169.672 138.675 177.079 137.531 178.507C136.388 179.936 134.676 177.079 130.676 175.091C126.676 173.104 119.004 171.388 116.117 169.105C113.23 166.823 85.8548 141.155 85.8548 141.155" fill="white"/>
<mask id="mask2_1507_12149" style="mask-type:luminance" maskUnits="userSpaceOnUse" x="60" y="130" width="122" height="141">
<path d="M63.6622 137.995C62.3516 135.601 61.3078 133.07 60.5496 130.449C61.3042 133.071 62.3481 135.602 63.6622 137.995ZM60.464 130.006C60.464 130.053 60.464 130.107 60.464 130.177C60.4796 130.107 60.4718 130.053 60.464 130.006ZM63.6622 137.988C66.5724 143.487 70.1931 148.583 74.4317 153.143C84.711 164.253 114.405 193.313 117.23 195.308C120.054 197.304 119.229 202.995 117.23 208.693C115.23 214.392 107.806 222.668 108.094 231.768C108.382 240.867 111.207 254.842 110.95 257.691C110.693 260.541 103.55 270.23 103.55 270.23H177.209C177.209 270.23 168.027 258.584 168.027 254.601C168.027 250.618 180.633 199.586 181.201 195.883C181.769 192.179 179.489 189.617 174.921 189.33C170.354 189.043 152.939 185.339 152.083 182.49C151.227 179.641 156.65 168.818 156.65 168.818L139.531 169.672C139.531 169.672 138.675 177.079 137.531 178.507C136.388 179.936 134.676 177.079 130.676 175.091C126.676 173.104 119.004 171.388 116.117 169.105C113.23 166.823 85.8548 141.155 85.8548 141.155" fill="white"/>
</mask>
<g mask="url(#mask2_1507_12149)">
<path d="M120.49 171.302C121.914 173.787 123.338 176.031 123.338 176.031C123.338 176.031 128.139 178.725 129.337 178.725C130.536 178.725 137.741 182.607 137.741 182.607C137.741 182.607 143.749 181.108 141.632 176.015C140.964 174.711 140.121 173.504 139.127 172.428C138.769 174.687 138.193 177.645 137.516 178.492C136.372 179.913 134.66 177.063 130.66 175.076C128.069 173.787 123.875 172.607 120.49 171.302Z" fill="#4E4BAC"/>
<path d="M105.83 159.773C97.0134 151.629 85.8548 141.186 85.8548 141.186L79.3651 140.255L78.5869 140.689C78.5869 140.689 96.9044 156.861 100.803 158.663C102.38 159.386 104.094 159.765 105.83 159.773Z" fill="#4E4BAC"/>
<path d="M115.067 168.204L114.366 167.583C114.725 168.173 114.927 168.546 114.927 168.546L115.067 168.204Z" fill="#4E4BAC"/>
<g opacity="0.5">
<path d="M120.49 171.302C121.914 173.787 123.338 176.031 123.338 176.031C123.338 176.031 128.139 178.725 129.337 178.725C130.536 178.725 137.741 182.607 137.741 182.607C137.741 182.607 143.749 181.108 141.632 176.015C140.964 174.711 140.121 173.504 139.127 172.428C138.769 174.687 138.193 177.645 137.516 178.492C136.372 179.913 134.66 177.063 130.66 175.076C128.069 173.787 123.875 172.607 120.49 171.302Z" fill="white"/>
<path d="M105.83 159.773C97.0134 151.629 85.8548 141.186 85.8548 141.186L79.3651 140.255L78.5869 140.689C78.5869 140.689 96.9044 156.861 100.803 158.663C102.38 159.386 104.094 159.765 105.83 159.773Z" fill="white"/>
<path d="M115.067 168.204L114.366 167.583C114.725 168.173 114.927 168.546 114.927 168.546L115.067 168.204Z" fill="white"/>
</g>
</g>
<path d="M60.4485 129.797C60.4449 129.851 60.4449 129.905 60.4485 129.96M60.5496 130.449C61.3078 133.07 62.3516 135.601 63.6622 137.995C62.3481 135.602 61.3042 133.071 60.5496 130.449ZM60.5496 130.449C60.5281 130.375 60.5125 130.3 60.5029 130.224M63.6622 137.988C66.5724 143.487 70.1931 148.583 74.4317 153.143C84.711 164.253 114.405 193.313 117.23 195.308C120.054 197.304 119.229 202.995 117.23 208.693C115.23 214.392 107.806 222.668 108.094 231.768C108.382 240.867 111.207 254.842 110.95 257.691C110.693 260.541 103.55 270.23 103.55 270.23H177.209C177.209 270.23 168.027 258.584 168.027 254.601C168.027 250.618 180.633 199.586 181.201 195.883C181.769 192.179 179.489 189.617 174.921 189.33C170.353 189.043 152.939 185.339 152.083 182.49C151.227 179.641 156.65 168.818 156.65 168.818L139.531 169.672C139.531 169.672 138.675 177.079 137.531 178.507C136.388 179.936 134.676 177.079 130.676 175.091C126.676 173.104 119.004 171.388 116.117 169.105C113.23 166.823 85.8548 141.155 85.8548 141.155M60.464 130.006C60.464 130.053 60.464 130.107 60.464 130.177C60.4796 130.107 60.4718 130.053 60.464 130.006Z" stroke="#263238" stroke-linecap="round" stroke-linejoin="round"/>
<path d="M85.8549 141.186C85.8549 141.186 76.7351 141.357 71.646 137.172" stroke="#263238" stroke-linecap="round" stroke-linejoin="round"/>
<path d="M152.091 182.49C151.235 179.649 156.658 168.818 156.658 168.818L139.539 169.672C139.539 169.672 138.683 177.079 137.539 178.507C136.395 179.936 134.684 177.079 130.684 175.091C130.38 174.936 130.046 174.789 129.703 174.641L128.668 190.875C128.668 190.875 130.17 206.597 148.177 203.608C155.468 202.397 163.249 195.906 169.965 188.608C163.055 187.343 152.744 184.672 152.091 182.49Z" fill="white"/>
<mask id="mask3_1507_12149" style="mask-type:luminance" maskUnits="userSpaceOnUse" x="128" y="168" width="42" height="36">
<path d="M152.091 182.49C151.235 179.649 156.658 168.818 156.658 168.818L139.539 169.672C139.539 169.672 138.683 177.079 137.539 178.507C136.395 179.936 134.684 177.079 130.684 175.091C130.38 174.936 130.046 174.789 129.703 174.641L128.668 190.875C128.668 190.875 130.17 206.597 148.177 203.608C155.468 202.397 163.249 195.906 169.965 188.608C163.055 187.343 152.744 184.672 152.091 182.49Z" fill="white"/>
</mask>
<g mask="url(#mask3_1507_12149)">
<path d="M151.608 170.969C151.608 170.969 150.573 176.76 149.741 183.166C148.908 189.571 148.293 194.338 148.293 194.338L152.091 182.49L156.37 169.936C156.37 169.936 152.231 169.936 151.608 170.969Z" fill="#4E4BAC"/>
<path opacity="0.5" d="M151.608 170.969C151.608 170.969 150.573 176.76 149.741 183.166C148.908 189.571 148.293 194.338 148.293 194.338L152.091 182.49L156.37 169.936C156.37 169.936 152.231 169.936 151.608 170.969Z" fill="white"/>
</g>
<path d="M152.091 182.49C151.235 179.649 156.658 168.818 156.658 168.818L139.539 169.672C139.539 169.672 138.683 177.079 137.539 178.507C136.395 179.936 134.684 177.079 130.684 175.091C130.38 174.936 130.046 174.789 129.703 174.641L128.668 190.875C128.668 190.875 130.17 206.597 148.177 203.608C155.468 202.397 163.249 195.906 169.965 188.608C163.055 187.343 152.744 184.672 152.091 182.49Z" stroke="#263238" stroke-linecap="round" stroke-linejoin="round"/>
<path d="M137.531 178.507C136.388 179.928 134.676 177.079 130.676 175.091C128.155 173.826 124.14 172.677 120.817 171.434C119.875 169.206 118.63 166.303 117.829 164.548C116.405 161.442 114.117 163.407 114.117 163.407C112.924 162.052 111.959 160.513 111.261 158.849C109.837 155.744 107.549 156 104.414 155.433C101.278 154.866 94.7023 148.88 94.7023 148.88C94.7023 148.88 91.6287 146.551 90.3603 145.394C88.8818 148.298 85.3413 153.407 77.6843 156.598C89.8934 169.323 114.662 193.499 117.261 195.316C120.117 197.304 119.261 203.002 117.261 208.701C115.261 214.4 107.837 222.676 108.125 231.775C108.413 240.875 111.238 254.85 110.981 257.699C110.724 260.238 105.028 268.196 103.791 269.904L106.694 270.23H121.805C121.72 262.59 121.727 231.411 126.964 218.988C132.964 204.711 137.531 178.507 137.531 178.507Z" fill="#4E4BAC"/>
<mask id="mask4_1507_12149" style="mask-type:luminance" maskUnits="userSpaceOnUse" x="77" y="145" width="61" height="126">
<path d="M137.531 178.507C136.388 179.928 134.676 177.079 130.676 175.091C128.155 173.826 124.14 172.677 120.817 171.434C119.875 169.206 118.63 166.303 117.829 164.548C116.405 161.442 114.117 163.407 114.117 163.407C112.924 162.052 111.959 160.513 111.261 158.849C109.837 155.744 107.549 156 104.414 155.433C101.278 154.866 94.7023 148.88 94.7023 148.88C94.7023 148.88 91.6287 146.551 90.3603 145.394C88.8818 148.298 85.3413 153.407 77.6843 156.598C89.8934 169.323 114.662 193.499 117.261 195.316C120.117 197.304 119.261 203.002 117.261 208.701C115.261 214.4 107.837 222.676 108.125 231.775C108.413 240.875 111.238 254.85 110.981 257.699C110.724 260.238 105.028 268.196 103.791 269.904L106.694 270.23H121.805C121.72 262.59 121.727 231.411 126.964 218.988C132.964 204.711 137.531 178.507 137.531 178.507Z" fill="white"/>
</mask>
<g mask="url(#mask4_1507_12149)">
<path opacity="0.16" d="M130.676 175.091C128.155 173.826 124.14 172.677 120.817 171.434C119.876 169.206 118.63 166.303 117.829 164.548C116.405 161.442 114.117 163.407 114.117 163.407C112.924 162.052 111.959 160.513 111.261 158.849C109.837 155.744 107.55 156 104.414 155.433C101.278 154.866 94.7026 148.88 94.7026 148.88C94.7026 148.88 91.6289 146.551 90.3605 145.394C89.7276 146.627 88.9744 147.795 88.1117 148.88C93.2163 153.189 98.8501 157.755 100.819 158.663C104.71 160.456 105.62 158.958 108.6 160.759C111.581 162.56 114.903 168.523 114.903 168.523C114.903 168.523 116.708 163.725 118.21 167.025C119.712 170.324 123.315 176.007 123.315 176.007C123.315 176.007 128.116 178.702 129.314 178.702C130.256 178.702 134.87 181.093 136.831 182.125C137.267 179.851 137.508 178.484 137.508 178.484C136.388 179.928 134.676 177.079 130.676 175.091Z" fill="#040605"/>
</g>
<path d="M137.531 178.507C136.388 179.928 134.676 177.079 130.676 175.091C128.155 173.826 124.14 172.677 120.817 171.434C119.875 169.206 118.63 166.303 117.829 164.548C116.405 161.442 114.117 163.407 114.117 163.407C112.924 162.052 111.959 160.513 111.261 158.849C109.837 155.744 107.549 156 104.414 155.433C101.278 154.866 94.7023 148.88 94.7023 148.88C94.7023 148.88 91.6287 146.551 90.3603 145.394C88.8818 148.298 85.3413 153.407 77.6843 156.598C89.8934 169.323 114.662 193.499 117.261 195.316C120.117 197.304 119.261 203.002 117.261 208.701C115.261 214.4 107.837 222.676 108.125 231.775C108.413 240.875 111.238 254.85 110.981 257.699C110.724 260.238 105.028 268.196 103.791 269.904L106.694 270.23H121.805C121.72 262.59 121.727 231.411 126.964 218.988C132.964 204.711 137.531 178.507 137.531 178.507Z" stroke="#263238" stroke-linecap="round" stroke-linejoin="round"/>
<path d="M137.734 177.514C137.734 177.514 134.185 176.427 131.999 178.337C129.812 180.246 126.552 190.044 124.63 200.673C123.445 206.861 124.263 213.264 126.964 218.957C126.964 218.957 131.454 207.21 132.816 201.488C134.178 195.766 137.734 177.514 137.734 177.514Z" fill="#4E4BAC"/>
<mask id="mask5_1507_12149" style="mask-type:luminance" maskUnits="userSpaceOnUse" x="124" y="177" width="14" height="42">
<path d="M137.734 177.514C137.734 177.514 134.185 176.427 131.999 178.337C129.812 180.246 126.552 190.044 124.63 200.673C123.445 206.861 124.263 213.264 126.964 218.957C126.964 218.957 131.454 207.21 132.816 201.488C134.178 195.766 137.734 177.514 137.734 177.514Z" fill="white"/>
</mask>
<g mask="url(#mask5_1507_12149)">
<path opacity="0.16" d="M130.925 179.245C130.925 179.245 133.493 178.624 134.551 178.981C135.442 179.362 136.275 179.867 137.026 180.479L137.734 177.514C136.672 176.972 135.467 176.774 134.287 176.947C132.52 177.304 130.925 179.245 130.925 179.245Z" fill="#040605"/>
</g>
<path d="M137.734 177.514C137.734 177.514 134.185 176.427 131.999 178.337C129.812 180.246 126.552 190.044 124.63 200.673C123.445 206.861 124.263 213.264 126.964 218.957C126.964 218.957 131.454 207.21 132.816 201.488C134.178 195.766 137.734 177.514 137.734 177.514Z" stroke="#263238" stroke-linecap="round" stroke-linejoin="round"/>
<path d="M113.837 178.445L118.405 196.962L108.125 173.601" stroke="#263238" stroke-linecap="round" stroke-linejoin="round"/>
<path d="M143.928 270.23H177.217C177.217 270.23 168.035 258.584 168.035 254.601C168.035 250.618 180.641 199.586 181.209 195.883C181.777 192.179 179.497 189.617 174.929 189.33C170.361 189.043 152.947 185.339 152.091 182.49C152.091 182.49 145.523 205.564 143.243 221.232C141.282 234.671 143.313 262.559 143.928 270.23Z" fill="#4E4BAC"/>
<mask id="mask6_1507_12149" style="mask-type:luminance" maskUnits="userSpaceOnUse" x="142" y="182" width="40" height="89">
<path d="M143.928 270.23H177.217C177.217 270.23 168.035 258.584 168.035 254.601C168.035 250.618 180.641 199.586 181.209 195.883C181.777 192.179 179.497 189.617 174.929 189.33C170.361 189.043 152.947 185.339 152.091 182.49C152.091 182.49 145.523 205.564 143.243 221.232C141.282 234.671 143.313 262.559 143.928 270.23Z" fill="white"/>
</mask>
<g mask="url(#mask6_1507_12149)">
<path opacity="0.16" d="M174.929 189.33C171.186 189.097 158.822 186.566 154.005 184.097L155.756 188.135C158.928 189.814 162.34 190.997 165.872 191.644C171.669 192.676 177.061 192.475 180.586 197.645L180.757 197.901C180.975 196.908 181.123 196.209 181.17 195.883C181.785 192.179 179.497 189.617 174.929 189.33Z" fill="#040605"/>
</g>
<path d="M143.928 270.23H177.217C177.217 270.23 168.035 258.584 168.035 254.601C168.035 250.618 180.641 199.586 181.209 195.883C181.777 192.179 179.497 189.617 174.929 189.33C170.361 189.043 152.947 185.339 152.091 182.49C152.091 182.49 145.523 205.564 143.243 221.232C141.282 234.671 143.313 262.559 143.928 270.23Z" stroke="#263238" stroke-linecap="round" stroke-linejoin="round"/>
<path d="M152.091 182.49C152.091 182.49 143.282 210.44 143.243 221.232C143.243 221.232 155.756 206.116 157.39 195.495C159.024 184.874 152.091 182.49 152.091 182.49Z" fill="#4E4BAC"/>
<mask id="mask7_1507_12149" style="mask-type:luminance" maskUnits="userSpaceOnUse" x="143" y="182" width="15" height="40">
<path d="M152.091 182.49C152.091 182.49 143.282 210.44 143.243 221.232C143.243 221.232 155.756 206.116 157.39 195.495C159.024 184.874 152.091 182.49 152.091 182.49Z" fill="white"/>
</mask>
<g mask="url(#mask7_1507_12149)">
<path opacity="0.16" d="M150.573 186.062C151.897 186.017 153.211 186.295 154.403 186.872C155.595 187.448 156.628 188.305 157.413 189.369C157.413 189.369 155.685 184.299 152.09 182.49L150.573 186.062Z" fill="#040605"/>
</g>
<path d="M152.091 182.49C152.091 182.49 143.282 210.44 143.243 221.232C143.243 221.232 155.756 206.116 157.39 195.495C159.024 184.874 152.091 182.49 152.091 182.49Z" stroke="#263238" stroke-linecap="round" stroke-linejoin="round"/>
<path d="M246.129 264.974C246.129 264.974 252.58 265.238 256.805 265.843C259.623 266.224 262.46 266.45 265.303 266.519C265.303 266.519 262.968 261.814 260.478 260.486C257.988 259.159 253.475 256.783 249.693 257.311C245.911 257.839 240.503 261.643 240.954 262.854C241.406 264.065 243.421 264.609 246.129 264.974Z" fill="white"/>
<mask id="mask8_1507_12149" style="mask-type:luminance" maskUnits="userSpaceOnUse" x="240" y="257" width="26" height="10">
<path d="M246.129 264.974C246.129 264.974 252.58 265.238 256.805 265.843C259.623 266.224 262.46 266.45 265.303 266.519C265.303 266.519 262.968 261.814 260.478 260.486C257.988 259.159 253.475 256.783 249.693 257.311C245.911 257.839 240.503 261.643 240.954 262.854C241.406 264.065 243.421 264.609 246.129 264.974Z" fill="white"/>
</mask>
<g mask="url(#mask8_1507_12149)">
<path d="M246.129 264.974C246.129 264.974 252.58 265.238 256.805 265.843C259.623 266.224 262.46 266.45 265.303 266.519C265.303 266.519 262.968 261.814 260.478 260.486C257.988 259.159 253.475 256.783 249.693 257.311C245.911 257.839 240.503 261.643 240.954 262.854C241.406 264.065 243.421 264.609 246.129 264.974Z" fill="#4E4BAC"/>
<path opacity="0.5" d="M246.129 264.974C246.129 264.974 252.58 265.238 256.805 265.843C259.623 266.224 262.46 266.45 265.303 266.519C265.303 266.519 262.968 261.814 260.478 260.486C257.988 259.159 253.475 256.783 249.693 257.311C245.911 257.839 240.503 261.643 240.954 262.854C241.406 264.065 243.421 264.609 246.129 264.974Z" fill="white"/>
</g>
<path d="M246.129 264.974C246.129 264.974 252.58 265.238 256.805 265.843C259.623 266.224 262.46 266.45 265.303 266.519C265.303 266.519 262.968 261.814 260.478 260.486C257.988 259.159 253.475 256.783 249.693 257.311C245.911 257.839 240.503 261.643 240.954 262.854C241.406 264.065 243.421 264.609 246.129 264.974Z" stroke="#263238" stroke-linecap="round" stroke-linejoin="round"/>
<path d="M256.844 263.048C256.844 263.048 261.957 260.401 263.233 260.44C264.509 260.478 272.991 266.2 272.571 267.117C272.285 267.541 271.873 267.866 271.393 268.044C270.912 268.223 270.388 268.246 269.894 268.11C268.952 267.668 263.241 265.245 263.241 265.245L259.506 266.123L256.844 263.048Z" fill="white"/>
<mask id="mask9_1507_12149" style="mask-type:luminance" maskUnits="userSpaceOnUse" x="256" y="260" width="17" height="9">
<path d="M256.844 263.048C256.844 263.048 261.957 260.401 263.233 260.44C264.509 260.478 272.991 266.2 272.571 267.117C272.285 267.541 271.873 267.866 271.393 268.044C270.912 268.223 270.388 268.246 269.894 268.11C268.952 267.668 263.241 265.245 263.241 265.245L259.506 266.123L256.844 263.048Z" fill="white"/>
</mask>
<g mask="url(#mask9_1507_12149)">
<path d="M256.844 263.048C256.844 263.048 261.957 260.401 263.233 260.44C264.509 260.478 272.991 266.2 272.571 267.117C272.15 268.033 270.143 268.778 269.894 268.11C269.645 267.443 263.241 265.245 263.241 265.245L259.506 266.123L256.844 263.048Z" fill="#4E4BAC"/>
<path opacity="0.5" d="M256.844 263.048C256.844 263.048 261.957 260.401 263.233 260.44C264.509 260.478 272.991 266.2 272.571 267.117C272.15 268.033 270.143 268.778 269.894 268.11C269.645 267.443 263.241 265.245 263.241 265.245L259.506 266.123L256.844 263.048Z" fill="white"/>
</g>
<path d="M256.844 263.048C256.844 263.048 261.957 260.401 263.233 260.44C264.509 260.478 272.991 266.2 272.571 267.117C272.285 267.541 271.873 267.866 271.393 268.044C270.912 268.223 270.388 268.246 269.894 268.11C268.952 267.668 263.241 265.245 263.241 265.245L259.506 266.123L256.844 263.048Z" stroke="#263238" stroke-linecap="round" stroke-linejoin="round"/>
<path d="M253.195 258.693C253.195 258.693 260.011 258.475 261.365 259.159C262.719 259.842 268.836 270.308 267.917 271.068C266.999 271.829 264.462 271.604 264.54 270.758C264.618 269.912 258.906 264.306 258.906 264.306L254.463 263.336L253.195 258.693Z" fill="white"/>
<mask id="mask10_1507_12149" style="mask-type:luminance" maskUnits="userSpaceOnUse" x="253" y="258" width="16" height="14">
<path d="M253.195 258.693C253.195 258.693 260.011 258.475 261.365 259.159C262.719 259.842 268.836 270.308 267.917 271.068C266.999 271.829 264.462 271.604 264.54 270.758C264.618 269.912 258.906 264.306 258.906 264.306L254.463 263.336L253.195 258.693Z" fill="white"/>
</mask>
<g mask="url(#mask10_1507_12149)">
<path d="M253.195 258.693C253.195 258.693 260.011 258.475 261.365 259.159C262.719 259.842 268.836 270.308 267.917 271.068C266.999 271.829 264.462 271.604 264.54 270.758C264.618 269.912 258.906 264.306 258.906 264.306L254.463 263.336L253.195 258.693Z" fill="#4E4BAC"/>
<path opacity="0.5" d="M253.195 258.693C253.195 258.693 260.011 258.475 261.365 259.159C262.719 259.842 268.836 270.308 267.917 271.068C266.999 271.829 264.462 271.604 264.54 270.758C264.618 269.912 258.906 264.306 258.906 264.306L254.463 263.336L253.195 258.693Z" fill="white"/>
</g>
<path d="M253.195 258.693C253.195 258.693 260.011 258.475 261.365 259.159C262.719 259.842 268.836 270.308 267.917 271.068C266.999 271.829 264.462 271.604 264.54 270.758C264.618 269.912 258.906 264.306 258.906 264.306L254.463 263.336L253.195 258.693Z" stroke="#263238" stroke-linecap="round" stroke-linejoin="round"/>
<path d="M249.156 257.288C249.156 257.288 256.058 257.062 257.428 257.761C258.797 258.46 264.991 269.042 264.058 269.819C263.124 270.595 260.572 270.354 260.649 269.5C260.727 268.646 254.946 262.971 254.946 262.971L250.448 261.985L249.156 257.288Z" fill="white"/>
<mask id="mask11_1507_12149" style="mask-type:luminance" maskUnits="userSpaceOnUse" x="249" y="257" width="16" height="14">
<path d="M249.156 257.288C249.156 257.288 256.058 257.062 257.428 257.761C258.797 258.46 264.991 269.042 264.058 269.819C263.124 270.595 260.572 270.354 260.649 269.5C260.727 268.646 254.946 262.971 254.946 262.971L250.448 261.985L249.156 257.288Z" fill="white"/>
</mask>
<g mask="url(#mask11_1507_12149)">
<path d="M249.156 257.288C249.156 257.288 256.058 257.062 257.428 257.761C258.797 258.46 264.991 269.042 264.058 269.819C263.124 270.595 260.572 270.354 260.649 269.5C260.727 268.646 254.946 262.971 254.946 262.971L250.448 261.985L249.156 257.288Z" fill="#4E4BAC"/>
<path opacity="0.5" d="M249.156 257.288C249.156 257.288 256.058 257.062 257.428 257.761C258.797 258.46 264.991 269.042 264.058 269.819C263.124 270.595 260.572 270.354 260.649 269.5C260.727 268.646 254.946 262.971 254.946 262.971L250.448 261.985L249.156 257.288Z" fill="white"/>
</g>
<path d="M249.156 257.288C249.156 257.288 256.058 257.062 257.428 257.761C258.797 258.46 264.991 269.042 264.058 269.819C263.124 270.595 260.572 270.354 260.649 269.5C260.727 268.646 254.946 262.971 254.946 262.971L250.448 261.985L249.156 257.288Z" stroke="#263238" stroke-linecap="round" stroke-linejoin="round"/>
<path d="M170.681 217.831C175.676 225.51 185.706 244.966 188.632 247.156C193.2 250.572 223.734 258.864 226.676 261.131C229.617 263.398 229.415 265.673 232.201 266.503C234.986 267.334 245.429 269.718 249.413 270.09C253.397 270.463 251.615 268.002 251.615 268.002L244.822 263.343L250.744 261.884C250.744 261.884 256.681 269.011 257.794 269.399C258.906 269.787 260.867 269.399 260.743 268.522C260.525 267.117 254.191 255.618 251.942 255.129C249.693 254.64 236.045 256.527 236.045 256.527C236.045 256.527 207.417 237.264 206.903 236.581C206.903 236.581 205.191 231.737 203.791 229.741C202.39 227.746 201.503 228.32 201.503 228.32C201.503 228.32 202.079 225.751 201.223 224.897L196.655 220.339L196.492 220.557C195.713 219.004 194.935 217.234 194.079 215.215C191.69 209.602 183.232 193.849 181.808 191.574C180.742 189.874 171.809 188.655 167.28 188.142" fill="#4E4BAC"/>
<mask id="mask12_1507_12149" style="mask-type:luminance" maskUnits="userSpaceOnUse" x="167" y="188" width="94" height="83">
<path d="M170.681 217.831C175.676 225.51 185.706 244.966 188.632 247.156C193.2 250.572 223.734 258.864 226.676 261.131C229.617 263.398 229.415 265.673 232.201 266.503C234.986 267.334 245.429 269.718 249.413 270.09C253.397 270.463 251.615 268.002 251.615 268.002L244.822 263.343L250.744 261.884C250.744 261.884 256.681 269.011 257.794 269.399C258.906 269.787 260.867 269.399 260.743 268.522C260.525 267.117 254.191 255.618 251.942 255.129C249.693 254.64 236.045 256.527 236.045 256.527C236.045 256.527 207.417 237.264 206.903 236.581C206.903 236.581 205.191 231.737 203.791 229.741C202.39 227.746 201.503 228.32 201.503 228.32C201.503 228.32 202.079 225.751 201.223 224.897L196.655 220.339L196.492 220.557C195.713 219.004 194.935 217.234 194.079 215.215C191.69 209.602 183.232 193.849 181.808 191.574C180.742 189.874 171.809 188.655 167.28 188.142" fill="white"/>
</mask>
<g mask="url(#mask12_1507_12149)">
<path opacity="0.16" d="M190.57 218.321C194.305 221.628 193.06 221.628 192.227 224.532C191.395 227.436 192.85 223.499 196.375 223.709C199.9 223.918 198.865 228.46 198.445 229.291C198.025 230.122 202.802 231.154 201.97 233.01C201.137 234.866 196.375 237.56 193.682 240.254C190.99 242.948 200.725 235.906 204.04 235.704C205.051 235.634 205.884 235.766 206.584 235.751C205.849 233.673 204.906 231.676 203.767 229.788C202.335 227.793 201.479 228.367 201.479 228.367C201.479 228.367 202.055 225.797 201.199 224.943L196.632 220.386L196.468 220.603C195.69 219.051 194.912 217.28 194.056 215.262C191.667 209.648 183.209 193.896 181.785 191.621C180.719 189.92 171.786 188.702 167.257 188.189L167.669 191.784L167.77 191.861C167.77 191.861 173.365 192.894 175.233 193.104C177.1 193.313 179.38 194.959 179.17 196.209C178.96 197.459 173.575 203.034 175.233 203.453C176.89 203.872 178.758 199.315 180.625 199.936C182.493 200.557 186.811 215.013 190.57 218.321Z" fill="#040605"/>
</g>
<path d="M170.681 217.831C175.676 225.51 185.706 244.966 188.632 247.156C193.2 250.572 223.734 258.864 226.676 261.131C229.617 263.398 229.415 265.673 232.201 266.503C234.986 267.334 245.429 269.718 249.413 270.09C253.397 270.463 251.615 268.002 251.615 268.002L244.822 263.343L250.744 261.884C250.744 261.884 256.681 269.011 257.794 269.399C258.906 269.787 260.867 269.399 260.743 268.522C260.525 267.117 254.191 255.618 251.942 255.129C249.693 254.64 236.045 256.527 236.045 256.527C236.045 256.527 207.417 237.264 206.903 236.581C206.903 236.581 205.191 231.737 203.791 229.741C202.39 227.746 201.503 228.32 201.503 228.32C201.503 228.32 202.079 225.751 201.223 224.897L196.655 220.339L196.492 220.557C195.713 219.004 194.935 217.234 194.079 215.215C191.69 209.602 183.232 193.849 181.808 191.574C180.742 189.874 171.809 188.655 167.28 188.142" stroke="#263238" stroke-linecap="round" stroke-linejoin="round"/>
<path d="M170.759 207.296C170.549 207.995 170.369 208.693 170.229 209.408" stroke="#263238" stroke-linecap="round" stroke-linejoin="round"/>
<path d="M178.322 194.447C175.877 197.227 173.814 200.321 172.19 203.647" stroke="#263238" stroke-linecap="round" stroke-linejoin="round"/>
<path d="M189.753 238.53C191.854 235.424 195.2 231.488 198.888 230.362" stroke="#263238" stroke-linecap="round" stroke-linejoin="round"/>
<path d="M187.426 242.35C187.426 242.35 187.8 241.62 188.469 240.518" stroke="#263238" stroke-linecap="round" stroke-linejoin="round"/>
<path d="M187.426 237.443C187.426 237.443 191.247 227.909 195.067 225.456C198.888 223.002 196.701 227.909 196.701 227.909" stroke="#263238" stroke-linecap="round" stroke-linejoin="round"/>
<path d="M226.676 261.138C229.625 263.413 229.415 265.68 232.201 266.511C234.986 267.342 245.429 269.725 249.413 270.098C253.397 270.471 251.615 268.009 251.615 268.009L244.822 263.351L250.744 261.892C250.744 261.892 256.681 269.019 257.794 269.407C258.906 269.795 261.023 269.935 260.743 268.53C260.198 265.812 254.191 255.626 251.942 255.137C249.693 254.648 236.045 256.534 236.045 256.534C236.045 256.534 209.969 238.677 207.113 236.744C196.04 237.808 190.772 243.592 188.554 247.062L188.632 247.125C193.2 250.572 223.734 258.864 226.676 261.138Z" fill="white"/>
<mask id="mask13_1507_12149" style="mask-type:luminance" maskUnits="userSpaceOnUse" x="188" y="236" width="73" height="35">
<path d="M226.676 261.138C229.625 263.413 229.415 265.68 232.201 266.511C234.986 267.342 245.429 269.725 249.413 270.098C253.397 270.471 251.615 268.009 251.615 268.009L244.822 263.351L250.744 261.892C250.744 261.892 256.681 269.019 257.794 269.407C258.906 269.795 261.023 269.935 260.743 268.53C260.198 265.812 254.191 255.626 251.942 255.137C249.693 254.648 236.045 256.534 236.045 256.534C236.045 256.534 209.969 238.677 207.113 236.744C196.04 237.808 190.772 243.592 188.554 247.062L188.632 247.125C193.2 250.572 223.734 258.864 226.676 261.138Z" fill="white"/>
</mask>
<g mask="url(#mask13_1507_12149)">
<path d="M260.735 268.561C259.319 265.106 254.183 255.657 251.934 255.168C249.685 254.679 236.037 256.566 236.037 256.566C236.037 256.566 209.961 238.709 207.105 236.776C204.199 237.028 201.347 237.716 198.647 238.817C202.763 241.147 230.201 256.674 233.663 257.365C237.336 258.142 249.592 256.131 251.747 257.575C253.117 258.491 257.194 264.943 259.949 269.524C260.735 269.407 261.023 269.26 260.735 268.561Z" fill="#4E4BAC"/>
<path opacity="0.5" d="M260.735 268.561C258.525 263.615 254.183 255.657 251.934 255.168C249.685 254.679 236.037 256.566 236.037 256.566C236.037 256.566 209.961 238.709 207.105 236.776C204.199 237.028 201.347 237.716 198.647 238.817C202.763 241.147 230.201 256.674 233.663 257.365C237.336 258.142 249.592 256.131 251.747 257.575C253.117 258.491 257.194 264.943 259.949 269.524C260.735 269.407 261.046 269.252 260.735 268.561Z" fill="white"/>
</g>
<path d="M226.676 261.138C229.625 263.413 229.415 265.68 232.201 266.511C234.986 267.342 245.429 269.725 249.413 270.098C253.397 270.471 251.615 268.009 251.615 268.009L244.822 263.351L250.744 261.892C250.744 261.892 256.681 269.019 257.794 269.407C258.906 269.795 261.023 269.935 260.743 268.53C260.198 265.812 254.191 255.626 251.942 255.137C249.693 254.648 236.045 256.534 236.045 256.534C236.045 256.534 209.969 238.677 207.113 236.744C196.04 237.808 190.772 243.592 188.554 247.062L188.632 247.125C193.2 250.572 223.734 258.864 226.676 261.138Z" stroke="#263238" stroke-linecap="round" stroke-linejoin="round"/>
<path d="M157.903 125.565L134.465 135.325C134.181 139.434 133.161 143.46 131.454 147.211C128.684 153.057 130.302 164.121 132.964 170.091C135.625 176.062 147.351 173.725 151.639 172.979C154.547 172.428 157.395 171.598 160.144 170.503C161.396 170.984 162.75 171.14 164.078 170.955C165.407 170.77 166.667 170.251 167.739 169.447C167.739 169.447 155.195 134.315 157.903 125.565Z" fill="white"/>
<mask id="mask14_1507_12149" style="mask-type:luminance" maskUnits="userSpaceOnUse" x="130" y="125" width="38" height="50">
<path d="M157.903 125.565L134.465 135.325C134.181 139.434 133.161 143.46 131.454 147.211C128.684 153.057 130.302 164.121 132.964 170.091C135.625 176.062 147.351 173.725 151.639 172.979C154.547 172.428 157.395 171.598 160.144 170.503C161.396 170.984 162.75 171.14 164.078 170.955C165.407 170.77 166.667 170.251 167.739 169.447C167.739 169.447 155.195 134.315 157.903 125.565Z" fill="white"/>
</mask>
<g mask="url(#mask14_1507_12149)">
<path d="M157.903 125.565L134.465 135.325C134.181 139.434 133.161 143.46 131.454 147.211C128.684 153.057 130.302 164.121 132.964 170.091C133.409 171.051 134.126 171.861 135.026 172.42V171.97C135.026 171.97 130.676 161.217 131.501 155.014C132.326 148.811 135.858 145.697 136.271 141.776C136.683 137.856 136.473 135.992 144.356 133.096C152.238 130.2 155.545 127.514 156.37 130.402C157.195 133.291 160.518 152.328 162.798 156.877C165.078 161.427 164.867 166.194 161.35 168.251C157.795 170.38 153.986 172.055 150.013 173.236L151.67 172.948C154.578 172.397 157.426 171.567 160.175 170.472C161.427 170.953 162.781 171.109 164.11 170.924C165.438 170.739 166.698 170.22 167.77 169.416C167.77 169.416 155.195 134.315 157.903 125.565Z" fill="#4E4BAC"/>
<path opacity="0.5" d="M157.903 125.565L134.465 135.325C134.181 139.434 133.161 143.46 131.454 147.211C128.684 153.057 130.302 164.121 132.964 170.091C133.409 171.051 134.126 171.861 135.026 172.42V171.97C135.026 171.97 130.676 161.217 131.501 155.014C132.326 148.811 135.858 145.697 136.271 141.776C136.683 137.856 136.473 135.992 144.356 133.096C152.238 130.2 155.545 127.514 156.37 130.402C157.195 133.291 160.518 152.328 162.798 156.877C165.078 161.427 164.867 166.194 161.35 168.251C157.795 170.38 153.986 172.055 150.013 173.236L151.67 172.948C154.578 172.397 157.426 171.567 160.175 170.472C161.427 170.953 162.781 171.109 164.11 170.924C165.438 170.739 166.698 170.22 167.77 169.416C167.77 169.416 155.195 134.315 157.903 125.565Z" fill="white"/>
</g>
<path d="M157.903 125.565L134.465 135.325C134.181 139.434 133.161 143.46 131.454 147.211C128.684 153.057 130.302 164.121 132.964 170.091C135.625 176.062 147.351 173.725 151.639 172.979C154.547 172.428 157.395 171.598 160.144 170.503C161.396 170.984 162.75 171.14 164.078 170.955C165.407 170.77 166.667 170.251 167.739 169.447C167.739 169.447 155.195 134.315 157.903 125.565Z" stroke="#263238" stroke-linecap="round" stroke-linejoin="round"/>
<path d="M146.06 140.868C146.124 142.243 145.953 143.619 145.554 144.936C144.932 146.489 139.057 152.592 139.236 153.251C139.415 153.911 139.944 156.031 140.987 156.233" stroke="#263238" stroke-linecap="round" stroke-linejoin="round"/>
<path d="M152.573 146.326C153.39 144.696 156.074 146.287 156.035 149.959" stroke="#263238" stroke-linecap="round" stroke-linejoin="round"/>
<path d="M139.267 141.528C139.267 141.528 141.554 140.526 143.601 144.222" stroke="#263238" stroke-linecap="round" stroke-linejoin="round"/>
<path d="M149.32 151.706C151.964 151.839 154.477 152.891 156.425 154.68" stroke="#263238" stroke-width="0.5" stroke-linecap="round" stroke-linejoin="round"/>
<path d="M136.504 146.854C137.871 147.036 139.206 147.404 140.473 147.949" stroke="#263238" stroke-width="0.5" stroke-linecap="round" stroke-linejoin="round"/>
<path d="M145.803 137.421C145.199 137.102 144.529 136.928 143.845 136.911C143.162 136.895 142.484 137.038 141.866 137.328C139.772 138.329 138.489 139.432 138.629 138.151C138.769 136.87 141.228 135.456 141.967 135.27C142.706 135.084 146.013 134.571 145.803 137.421Z" fill="#263238"/>
<path d="M151.67 134.525C153.852 136.286 155.585 138.536 156.728 141.093C158.285 144.975 159.514 140.736 158.285 138.197C157.055 135.658 153.499 132.957 151.67 134.525Z" fill="#263238"/>
<path d="M168.081 176.085C168.081 177.894 167.054 179.361 165.794 179.361C164.533 179.361 163.514 177.894 163.514 176.085C163.514 174.276 164.533 169.672 165.794 169.672C167.054 169.672 168.081 174.276 168.081 176.085Z" fill="#4E4BAC" stroke="#263238" stroke-linecap="round" stroke-linejoin="round"/>
<path d="M152.775 145.62C152.686 145.857 152.615 146.101 152.565 146.349C152.339 147.498 152.114 149.897 152.565 149.998C153.016 150.099 154.121 147.856 154.316 146.706C154.36 146.481 154.386 146.253 154.394 146.023C153.863 145.857 153.322 145.722 152.775 145.62Z" fill="#263238"/>
<path d="M139.5 141.303C139.431 141.506 139.377 141.713 139.337 141.924C139.103 143.073 139.111 145.596 139.601 145.689C140.092 145.783 140.893 143.422 141.119 142.273C141.175 141.994 141.206 141.711 141.212 141.427C140.655 141.274 140.074 141.232 139.5 141.303Z" fill="#263238"/>
<path d="M152.573 146.365L153.351 144.921C154.585 145.16 155.702 145.805 156.526 146.753" stroke="#263238" stroke-width="0.75" stroke-linecap="round" stroke-linejoin="round"/>
<path d="M139.5 141.303L140.278 140.394C140.278 140.394 140.613 140.231 142.449 141.062" stroke="#263238" stroke-width="0.75" stroke-linecap="round" stroke-linejoin="round"/>
<path d="M136.551 162.359C136.551 162.359 137.858 159.959 139.609 159.959C141.36 159.959 142.667 163.88 142.667 163.88" stroke="#263238" stroke-linecap="round" stroke-linejoin="round"/>
<path d="M180.072 270.23H100.126L97.5191 226.379C97.4471 225.954 97.4683 225.519 97.5814 225.102C97.6945 224.686 97.8967 224.299 98.1741 223.969C98.4515 223.638 98.7975 223.371 99.1882 223.187C99.5789 223.003 100.005 222.905 100.437 222.901H179.73C180.165 222.901 180.594 222.995 180.989 223.177C181.383 223.36 181.733 223.626 182.014 223.957C182.295 224.288 182.5 224.677 182.615 225.095C182.73 225.513 182.752 225.952 182.679 226.379L180.072 270.23Z" fill="#263238" stroke="#263238" stroke-linecap="round" stroke-linejoin="round"/>
<path d="M104.063 223.949H179.154C179.579 223.945 179.999 224.033 180.385 224.208C180.771 224.382 181.115 224.639 181.391 224.96C181.668 225.281 181.871 225.659 181.986 226.066C182.101 226.474 182.125 226.901 182.057 227.319" stroke="white" stroke-linecap="round" stroke-linejoin="round"/>
<path d="M98.1028 226.628C98.1654 225.894 98.503 225.211 99.0482 224.714C99.5934 224.218 100.306 223.945 101.044 223.949" stroke="white" stroke-linecap="round" stroke-linejoin="round"/>
<path d="M180.407 265.96H99.7915V270.23H180.407V265.96Z" fill="white" stroke="#263238" stroke-linecap="round" stroke-linejoin="round"/>
<path d="M139.811 250.152C142.966 250.152 145.523 248.623 145.523 246.736C145.523 244.85 142.966 243.32 139.811 243.32C136.657 243.32 134.1 244.85 134.1 246.736C134.1 248.623 136.657 250.152 139.811 250.152Z" fill="white" stroke="#263238" stroke-linecap="round" stroke-linejoin="round"/>
<path d="M302 269.725H1.74561V277H302V269.725Z" fill="#263238"/>
<path d="M224.147 0H79.6997C74.8306 0 70.8834 3.93832 70.8834 8.79649V91.4897C70.8834 96.3478 74.8306 100.286 79.6997 100.286H224.147C229.016 100.286 232.963 96.3478 232.963 91.4897V8.79649C232.963 3.93832 229.016 0 224.147 0Z" fill="#4E4BAC"/>
<path d="M155.735 57.6315C168.838 55.5305 177.752 43.2293 175.647 30.1561C173.541 17.0829 161.212 8.18816 148.109 10.2892C135.006 12.3902 126.092 24.6913 128.197 37.7645C130.303 50.8377 142.632 59.7325 155.735 57.6315Z" fill="#263238"/>
<path d="M151.74 38.3924L143.733 48.6485C143.461 49.0755 143.087 49.4281 142.644 49.6748C142.201 49.9215 141.704 50.0544 141.196 50.0615C140.501 50.071 139.83 49.8059 139.329 49.324C139.074 49.091 138.873 48.8061 138.739 48.4886C138.604 48.1711 138.54 47.8284 138.551 47.4839C138.576 46.7125 138.849 45.9695 139.329 45.3644L148.456 34.099L139.897 22.8258C139.499 22.2968 139.281 21.6549 139.274 20.9935C139.272 20.5991 139.352 20.2086 139.509 19.8465C139.666 19.4844 139.896 19.1585 140.185 18.8895C140.456 18.6067 140.782 18.3817 141.144 18.2283C141.505 18.0748 141.893 17.996 142.286 17.9967C142.788 18.0048 143.281 18.1384 143.719 18.3852C144.156 18.632 144.525 18.9842 144.791 19.4097L152.526 29.5726L160.308 19.5805C160.586 19.1144 160.975 18.7238 161.44 18.4435C161.906 18.1632 162.434 18.0017 162.977 17.9734C163.314 17.9726 163.647 18.0411 163.957 18.1747C164.266 18.3082 164.544 18.504 164.774 18.7498C165.019 18.9802 165.215 19.258 165.349 19.5664C165.482 19.8748 165.552 20.2072 165.552 20.5432C165.544 21.1446 165.336 21.7262 164.961 22.1969L155.802 33.8894L164.65 45.5352C165.068 46.0558 165.301 46.7004 165.311 47.3675C165.314 47.7532 165.232 48.1349 165.072 48.4861C164.912 48.8373 164.678 49.1497 164.385 49.4016C163.814 49.9494 163.053 50.2555 162.261 50.2556C161.756 50.2494 161.26 50.1167 160.82 49.8699C160.379 49.623 160.008 49.2698 159.74 48.8426L151.74 38.3924Z" fill="white"/>
<path d="M197.705 82.9184H106.11C104.253 82.9184 102.471 82.1822 101.158 80.8718C99.8446 79.5614 99.1067 77.7841 99.1067 75.9309C99.1067 74.0777 99.8446 72.3004 101.158 70.9899C102.471 69.6795 104.253 68.9434 106.11 68.9434H197.705C199.563 68.9434 201.344 69.6795 202.657 70.9899C203.971 72.3004 204.709 74.0777 204.709 75.9309C204.709 77.7841 203.971 79.5614 202.657 80.8718C201.344 82.1822 199.563 82.9184 197.705 82.9184Z" fill="white"/>
<path d="M118.661 78.1825C118.6 78.1825 118.54 78.1701 118.484 78.146C118.427 78.122 118.377 78.0869 118.335 78.0427C118.289 77.9971 118.252 77.9426 118.228 77.8825C118.204 77.8224 118.193 77.758 118.194 77.6933C118.194 77.584 118.224 77.4767 118.28 77.3828L118.98 76.2958H117.549C117.482 76.2992 117.416 76.2885 117.355 76.2644C117.293 76.2403 117.237 76.2034 117.191 76.1561C117.111 76.0632 117.067 75.9447 117.067 75.8222C117.067 75.6997 117.111 75.5813 117.191 75.4884C117.237 75.4411 117.293 75.4042 117.355 75.3801C117.416 75.356 117.482 75.3453 117.549 75.3486L118.957 75.3875L118.335 74.3782C118.272 74.2748 118.237 74.1572 118.233 74.0365C118.232 73.9718 118.243 73.9075 118.267 73.8474C118.291 73.7873 118.327 73.7328 118.373 73.6872C118.417 73.6428 118.469 73.6075 118.527 73.5835C118.584 73.5595 118.646 73.5473 118.708 73.5474C118.795 73.5461 118.881 73.5705 118.954 73.6174C119.027 73.6644 119.085 73.7318 119.12 73.8114L119.805 75.0303L120.459 73.8657C120.5 73.7751 120.565 73.6975 120.648 73.6414C120.73 73.5853 120.826 73.5528 120.926 73.5474C120.987 73.5474 121.047 73.5598 121.104 73.5838C121.16 73.6079 121.21 73.643 121.253 73.6872C121.298 73.7298 121.334 73.7816 121.358 73.8391C121.383 73.8967 121.394 73.9587 121.393 74.021C121.392 74.1313 121.359 74.239 121.299 74.3316L120.614 75.4263L122.038 75.3875C122.105 75.3836 122.171 75.394 122.233 75.4182C122.295 75.4423 122.35 75.4795 122.396 75.5272C122.476 75.6201 122.52 75.7386 122.52 75.8611C122.52 75.9835 122.476 76.102 122.396 76.1949C122.35 76.2426 122.295 76.2798 122.233 76.304C122.171 76.3281 122.105 76.3386 122.038 76.3347H120.599L121.237 77.3284C121.309 77.4484 121.349 77.5847 121.354 77.7244C121.356 77.7873 121.345 77.85 121.323 77.9087C121.3 77.9674 121.265 78.0209 121.221 78.066C121.18 78.1096 121.131 78.1444 121.076 78.1684C121.021 78.1925 120.962 78.2051 120.902 78.2057C120.806 78.2034 120.712 78.1737 120.632 78.12C120.553 78.0664 120.49 77.9911 120.451 77.903L119.805 76.7617L119.159 77.903C119.113 77.9929 119.041 78.0672 118.952 78.1168C118.864 78.1665 118.763 78.1893 118.661 78.1825Z" fill="#040605"/>
<path d="M125.805 78.1823C125.744 78.1823 125.684 78.17 125.627 78.1459C125.571 78.1219 125.52 78.0868 125.478 78.0426C125.432 77.997 125.396 77.9425 125.372 77.8824C125.348 77.8223 125.336 77.7579 125.338 77.6932C125.338 77.5839 125.368 77.4766 125.424 77.3827L126.124 76.2957H124.692C124.626 76.2991 124.56 76.2884 124.498 76.2643C124.437 76.2402 124.381 76.2033 124.334 76.156C124.254 76.063 124.211 75.9446 124.211 75.8221C124.211 75.6996 124.254 75.5812 124.334 75.4883C124.381 75.441 124.437 75.404 124.498 75.3799C124.56 75.3558 124.626 75.3451 124.692 75.3485L126.101 75.3873L125.439 74.3392C125.377 74.2358 125.342 74.1182 125.338 73.9976C125.336 73.9329 125.348 73.8685 125.372 73.8084C125.396 73.7484 125.432 73.6938 125.478 73.6482C125.522 73.6038 125.574 73.5686 125.631 73.5446C125.689 73.5206 125.751 73.5083 125.813 73.5085C125.9 73.5072 125.986 73.5315 126.059 73.5785C126.132 73.6254 126.19 73.6929 126.225 73.7725L126.91 74.9914L127.564 73.8268C127.605 73.7362 127.67 73.6586 127.753 73.6025C127.835 73.5463 127.931 73.5138 128.031 73.5085C128.092 73.5085 128.152 73.5209 128.208 73.5449C128.265 73.5689 128.315 73.6041 128.357 73.6482C128.403 73.6909 128.439 73.7427 128.463 73.8002C128.487 73.8577 128.499 73.9197 128.498 73.9821C128.496 74.0923 128.464 74.2 128.404 74.2926L127.719 75.3873L129.143 75.3485C129.21 75.3446 129.276 75.3551 129.338 75.3792C129.4 75.4033 129.455 75.4405 129.501 75.4883C129.581 75.5812 129.625 75.6996 129.625 75.8221C129.625 75.9446 129.581 76.063 129.501 76.156C129.455 76.2037 129.4 76.2409 129.338 76.265C129.276 76.2891 129.21 76.2996 129.143 76.2957H127.704L128.342 77.2895C128.414 77.4094 128.454 77.5457 128.459 77.6854C128.461 77.7484 128.45 77.8111 128.428 77.8698C128.405 77.9285 128.37 77.982 128.326 78.0271C128.285 78.0706 128.236 78.1055 128.181 78.1295C128.126 78.1535 128.067 78.1662 128.007 78.1668C127.911 78.1654 127.817 78.1361 127.737 78.0823C127.656 78.0286 127.594 77.9527 127.556 77.864L126.91 76.7227L126.264 77.864C126.226 77.9551 126.162 78.0334 126.081 78.0898C126 78.1461 125.904 78.1782 125.805 78.1823Z" fill="#040605"/>
<path d="M132.948 78.1823C132.887 78.1823 132.827 78.17 132.77 78.1459C132.714 78.1219 132.664 78.0868 132.621 78.0426C132.575 77.997 132.539 77.9425 132.515 77.8824C132.491 77.8223 132.48 77.7579 132.481 77.6932C132.481 77.5839 132.511 77.4766 132.567 77.3827L133.267 76.2957H131.835C131.769 76.2991 131.703 76.2884 131.641 76.2643C131.58 76.2402 131.524 76.2033 131.478 76.156C131.398 76.063 131.354 75.9446 131.354 75.8221C131.354 75.6996 131.398 75.5812 131.478 75.4883C131.524 75.441 131.58 75.404 131.641 75.3799C131.703 75.3558 131.769 75.3451 131.835 75.3485L133.244 75.3873L132.582 74.3392C132.52 74.2358 132.485 74.1182 132.481 73.9976C132.48 73.9329 132.491 73.8685 132.515 73.8084C132.539 73.7484 132.575 73.6938 132.621 73.6482C132.665 73.6038 132.717 73.5686 132.775 73.5446C132.832 73.5206 132.894 73.5083 132.956 73.5085C133.043 73.5072 133.129 73.5315 133.202 73.5785C133.275 73.6254 133.333 73.6929 133.368 73.7725L134.053 74.9914L134.707 73.8268C134.748 73.7362 134.813 73.6586 134.896 73.6025C134.978 73.5463 135.074 73.5138 135.174 73.5085C135.235 73.5085 135.295 73.5209 135.351 73.5449C135.408 73.5689 135.458 73.6041 135.501 73.6482C135.546 73.6909 135.582 73.7427 135.606 73.8002C135.63 73.8577 135.642 73.9197 135.641 73.9821C135.64 74.0923 135.607 74.2 135.547 74.2926L134.862 75.3873L136.286 75.3485C136.353 75.3446 136.419 75.3551 136.481 75.3792C136.543 75.4033 136.598 75.4405 136.644 75.4883C136.724 75.5812 136.768 75.6996 136.768 75.8221C136.768 75.9446 136.724 76.063 136.644 76.156C136.598 76.2037 136.543 76.2409 136.481 76.265C136.419 76.2891 136.353 76.2996 136.286 76.2957H134.847L135.485 77.2895C135.557 77.4094 135.597 77.5457 135.602 77.6854C135.604 77.7484 135.593 77.8111 135.571 77.8698C135.548 77.9285 135.513 77.982 135.469 78.0271C135.428 78.0706 135.379 78.1055 135.324 78.1295C135.269 78.1535 135.21 78.1662 135.15 78.1668C135.054 78.1654 134.96 78.1361 134.88 78.0823C134.799 78.0286 134.737 77.9527 134.699 77.864L134.053 76.7227L133.407 77.864C133.369 77.9551 133.305 78.0334 133.224 78.0898C133.143 78.1461 133.047 78.1782 132.948 78.1823Z" fill="#040605"/>
<path d="M140.123 78.1823C140.062 78.1823 140.001 78.17 139.945 78.1459C139.889 78.1219 139.838 78.0868 139.796 78.0426C139.75 77.997 139.714 77.9425 139.69 77.8824C139.666 77.8223 139.654 77.7579 139.656 77.6932C139.656 77.5839 139.685 77.4766 139.741 77.3827L140.442 76.2957H139.01C138.944 76.2991 138.878 76.2884 138.816 76.2643C138.754 76.2402 138.698 76.2033 138.652 76.156C138.572 76.063 138.528 75.9446 138.528 75.8221C138.528 75.6996 138.572 75.5812 138.652 75.4883C138.698 75.441 138.754 75.404 138.816 75.3799C138.878 75.3558 138.944 75.3451 139.01 75.3485L140.418 75.3873L139.757 74.3392C139.695 74.2358 139.66 74.1182 139.656 73.9976C139.654 73.9329 139.666 73.8685 139.69 73.8084C139.714 73.7484 139.75 73.6938 139.796 73.6482C139.84 73.6038 139.892 73.5686 139.949 73.5446C140.007 73.5206 140.068 73.5083 140.131 73.5085C140.218 73.5072 140.303 73.5315 140.377 73.5785C140.45 73.6254 140.508 73.6929 140.543 73.7725L141.228 74.9914L141.881 73.8268C141.923 73.7362 141.988 73.6586 142.07 73.6025C142.153 73.5463 142.249 73.5138 142.348 73.5085C142.409 73.5085 142.47 73.5209 142.526 73.5449C142.582 73.5689 142.633 73.6041 142.675 73.6482C142.721 73.6909 142.757 73.7427 142.781 73.8002C142.805 73.8577 142.817 73.9197 142.815 73.9821C142.814 74.0923 142.782 74.2 142.722 74.2926L142.037 75.3873L143.461 75.3485C143.527 75.3446 143.594 75.3551 143.655 75.3792C143.717 75.4033 143.773 75.4405 143.819 75.4883C143.899 75.5812 143.943 75.6996 143.943 75.8221C143.943 75.9446 143.899 76.063 143.819 76.156C143.773 76.2037 143.717 76.2409 143.655 76.265C143.594 76.2891 143.527 76.2996 143.461 76.2957H142.021L142.66 77.2895C142.732 77.4094 142.772 77.5457 142.776 77.6854C142.778 77.7484 142.768 77.8111 142.745 77.8698C142.722 77.9285 142.688 77.982 142.644 78.0271C142.603 78.0706 142.554 78.1055 142.499 78.1295C142.444 78.1535 142.385 78.1662 142.325 78.1668C142.229 78.1645 142.135 78.1347 142.055 78.0811C141.975 78.0275 141.912 77.9521 141.874 77.864L141.228 76.7227L140.582 77.864C140.544 77.9551 140.48 78.0334 140.399 78.0898C140.317 78.1461 140.222 78.1782 140.123 78.1823Z" fill="#040605"/>
<path d="M147.235 78.1823C147.174 78.1823 147.113 78.17 147.057 78.1459C147.001 78.1219 146.95 78.0868 146.908 78.0426C146.862 77.997 146.826 77.9425 146.802 77.8824C146.778 77.8223 146.766 77.7579 146.768 77.6932C146.772 77.5844 146.801 77.478 146.854 77.3827L147.554 76.2957H146.122C146.056 76.2991 145.99 76.2884 145.928 76.2643C145.866 76.2402 145.81 76.2033 145.764 76.156C145.684 76.063 145.64 75.9446 145.64 75.8221C145.64 75.6996 145.684 75.5812 145.764 75.4883C145.81 75.441 145.866 75.404 145.928 75.3799C145.99 75.3558 146.056 75.3451 146.122 75.3485L147.531 75.3873L146.869 74.3392C146.807 74.2358 146.772 74.1182 146.768 73.9976C146.766 73.9329 146.778 73.8685 146.802 73.8084C146.826 73.7484 146.862 73.6938 146.908 73.6482C146.952 73.6038 147.004 73.5686 147.061 73.5446C147.119 73.5206 147.18 73.5083 147.243 73.5085C147.33 73.5072 147.415 73.5315 147.489 73.5785C147.562 73.6254 147.62 73.6929 147.655 73.7725L148.34 74.9914L148.993 73.8268C149.035 73.7362 149.1 73.6586 149.182 73.6025C149.265 73.5463 149.361 73.5138 149.46 73.5085C149.522 73.5075 149.582 73.5195 149.639 73.5436C149.695 73.5677 149.746 73.6033 149.787 73.6482C149.833 73.6909 149.869 73.7427 149.893 73.8002C149.917 73.8577 149.929 73.9197 149.927 73.9821C149.926 74.0923 149.894 74.2 149.834 74.2926L149.149 75.3873L150.573 75.3485C150.639 75.3446 150.706 75.3551 150.767 75.3792C150.829 75.4033 150.885 75.4405 150.931 75.4883C151.011 75.5812 151.055 75.6996 151.055 75.8221C151.055 75.9446 151.011 76.063 150.931 76.156C150.885 76.2037 150.829 76.2409 150.767 76.265C150.706 76.2891 150.639 76.2996 150.573 76.2957H149.134L149.772 77.2895C149.844 77.4094 149.884 77.5457 149.888 77.6855C149.891 77.7484 149.88 77.8111 149.857 77.8698C149.834 77.9285 149.8 77.982 149.756 78.0271C149.715 78.0706 149.666 78.1055 149.611 78.1295C149.556 78.1535 149.497 78.1662 149.437 78.1668C149.341 78.1645 149.247 78.1347 149.167 78.0811C149.087 78.0275 149.024 77.9521 148.986 77.864L148.34 76.7227L147.694 77.864C147.656 77.9551 147.592 78.0334 147.511 78.0898C147.429 78.1461 147.334 78.1782 147.235 78.1823Z" fill="#040605"/>
<path d="M154.378 78.1823C154.317 78.1823 154.257 78.17 154.201 78.1459C154.144 78.1219 154.094 78.0868 154.052 78.0426C154.006 77.997 153.969 77.9425 153.945 77.8824C153.921 77.8223 153.91 77.7579 153.912 77.6932C153.915 77.5844 153.944 77.478 153.997 77.3827L154.697 76.2957H153.273C153.206 76.2997 153.139 76.2893 153.075 76.2652C153.012 76.2411 152.955 76.2039 152.908 76.156C152.828 76.063 152.784 75.9446 152.784 75.8221C152.784 75.6996 152.828 75.5812 152.908 75.4883C152.955 75.4404 153.012 75.4031 153.075 75.379C153.139 75.3549 153.206 75.3445 153.273 75.3485L154.674 75.3873L154.013 74.3392C153.95 74.2358 153.915 74.1182 153.912 73.9976C153.91 73.9329 153.921 73.8685 153.945 73.8084C153.969 73.7484 154.006 73.6938 154.052 73.6482C154.095 73.6038 154.147 73.5686 154.205 73.5446C154.262 73.5206 154.324 73.5083 154.386 73.5085C154.473 73.5072 154.559 73.5315 154.632 73.5785C154.706 73.6254 154.763 73.6929 154.799 73.7725L155.483 74.9914L156.137 73.8268C156.178 73.7362 156.243 73.6586 156.326 73.6025C156.408 73.5463 156.504 73.5138 156.604 73.5085C156.665 73.5075 156.726 73.5195 156.782 73.5436C156.839 73.5677 156.889 73.6033 156.931 73.6482C156.976 73.6909 157.012 73.7427 157.037 73.8002C157.061 73.8577 157.072 73.9197 157.071 73.9821C157.07 74.0923 157.037 74.2 156.977 74.2926L156.293 75.3873L157.717 75.3485C157.783 75.3446 157.849 75.3551 157.911 75.3792C157.973 75.4033 158.029 75.4405 158.075 75.4883C158.155 75.5812 158.199 75.6996 158.199 75.8221C158.199 75.9446 158.155 76.063 158.075 76.156C158.029 76.2037 157.973 76.2409 157.911 76.265C157.849 76.2891 157.783 76.2996 157.717 76.2957H156.277L156.915 77.2895C156.987 77.4094 157.027 77.5457 157.032 77.6855C157.034 77.7484 157.024 77.8111 157.001 77.8698C156.978 77.9285 156.944 77.982 156.9 78.0271C156.859 78.0706 156.809 78.1055 156.754 78.1295C156.7 78.1535 156.64 78.1662 156.581 78.1668C156.484 78.1645 156.391 78.1347 156.311 78.0811C156.231 78.0275 156.168 77.9521 156.129 77.864L155.483 76.7227L154.837 77.864C154.799 77.9551 154.736 78.0334 154.654 78.0898C154.573 78.1461 154.477 78.1782 154.378 78.1823Z" fill="#040605"/>
<path d="M161.522 78.1825C161.461 78.1825 161.4 78.1701 161.344 78.1461C161.288 78.122 161.237 78.0869 161.195 78.0427C161.149 77.9971 161.113 77.9426 161.089 77.8825C161.064 77.8224 161.053 77.758 161.055 77.6933C161.055 77.584 161.084 77.4767 161.14 77.3828L161.841 76.2958H160.409C160.343 76.2992 160.277 76.2885 160.215 76.2644C160.153 76.2403 160.097 76.2034 160.051 76.1561C159.971 76.0632 159.927 75.9447 159.927 75.8222C159.927 75.6998 159.971 75.5813 160.051 75.4884C160.097 75.4411 160.153 75.4042 160.215 75.3801C160.277 75.356 160.343 75.3453 160.409 75.3486L161.817 75.3875L161.133 74.3782C161.07 74.2748 161.035 74.1572 161.031 74.0365C161.03 73.9718 161.041 73.9075 161.065 73.8474C161.089 73.7873 161.125 73.7328 161.172 73.6872C161.215 73.6428 161.267 73.6075 161.325 73.5835C161.382 73.5595 161.444 73.5473 161.506 73.5474C161.593 73.5461 161.679 73.5705 161.752 73.6174C161.826 73.6644 161.883 73.7318 161.919 73.8114L162.603 75.0303L163.257 73.8657C163.298 73.7751 163.363 73.6975 163.446 73.6414C163.528 73.5853 163.624 73.5528 163.724 73.5474C163.785 73.5465 163.846 73.5584 163.902 73.5825C163.959 73.6066 164.009 73.6423 164.051 73.6872C164.096 73.7298 164.132 73.7816 164.156 73.8392C164.181 73.8967 164.192 73.9587 164.191 74.021C164.19 74.1313 164.157 74.239 164.097 74.3316L163.413 75.4263L164.837 75.3875C164.903 75.3836 164.969 75.394 165.031 75.4182C165.093 75.4423 165.149 75.4795 165.195 75.5272C165.275 75.6201 165.318 75.7386 165.318 75.8611C165.318 75.9835 165.275 76.102 165.195 76.1949C165.149 76.2426 165.093 76.2798 165.031 76.304C164.969 76.3281 164.903 76.3386 164.837 76.3347H163.397L164.035 77.3284C164.107 77.4484 164.147 77.5847 164.152 77.7244C164.154 77.7873 164.143 77.85 164.121 77.9087C164.098 77.9674 164.064 78.0209 164.02 78.066C163.979 78.1096 163.929 78.1444 163.874 78.1684C163.82 78.1925 163.76 78.2051 163.7 78.2057C163.604 78.2034 163.511 78.1737 163.431 78.12C163.351 78.0664 163.288 77.9911 163.249 77.903L162.603 76.7617L161.957 77.903C161.916 77.9834 161.853 78.0515 161.777 78.1005C161.7 78.1496 161.612 78.1778 161.522 78.1825Z" fill="#040605"/>
<path d="M168.665 78.1824C168.604 78.1824 168.544 78.17 168.487 78.146C168.431 78.122 168.381 78.0868 168.338 78.0426C168.292 77.997 168.256 77.9425 168.232 77.8824C168.208 77.8223 168.197 77.758 168.198 77.6933C168.202 77.5845 168.231 77.478 168.284 77.3827L168.984 76.2958H167.56C167.494 76.3007 167.427 76.2908 167.365 76.2666C167.303 76.2424 167.248 76.2046 167.202 76.156C167.118 76.0654 167.07 75.9461 167.07 75.8222C167.07 75.6982 167.118 75.5789 167.202 75.4883C167.248 75.4397 167.303 75.4019 167.365 75.3777C167.427 75.3536 167.494 75.3436 167.56 75.3486L168.961 75.3874L168.299 74.3393C168.237 74.2359 168.202 74.1183 168.198 73.9976C168.196 73.9342 168.207 73.8709 168.23 73.8116C168.253 73.7524 168.287 73.6983 168.332 73.6527C168.376 73.607 168.429 73.5708 168.488 73.546C168.546 73.5212 168.609 73.5085 168.673 73.5085C168.76 73.5072 168.846 73.5316 168.919 73.5785C168.992 73.6255 169.05 73.6929 169.085 73.7725L169.77 74.9914L170.424 73.8268C170.465 73.7362 170.53 73.6586 170.613 73.6025C170.695 73.5464 170.791 73.5139 170.891 73.5085C170.952 73.5066 171.013 73.5181 171.07 73.5422C171.126 73.5664 171.177 73.6026 171.218 73.6483C171.263 73.6909 171.299 73.7427 171.323 73.8003C171.347 73.8578 171.359 73.9198 171.358 73.9821C171.357 74.0924 171.324 74.2001 171.264 74.2927L170.579 75.3874L172.003 75.3486C172.07 75.3447 172.136 75.3551 172.198 75.3793C172.26 75.4034 172.315 75.4406 172.361 75.4883C172.441 75.5812 172.485 75.6997 172.485 75.8222C172.485 75.9447 172.441 76.0631 172.361 76.156C172.315 76.2037 172.26 76.2409 172.198 76.2651C172.136 76.2892 172.07 76.2997 172.003 76.2958H170.564L171.202 77.2895C171.274 77.4095 171.314 77.5458 171.319 77.6855C171.321 77.7467 171.311 77.8077 171.289 77.865C171.268 77.9223 171.235 77.9748 171.193 78.0195C171.151 78.0642 171.101 78.1002 171.045 78.1255C170.989 78.1508 170.929 78.1648 170.867 78.1668C170.771 78.1645 170.677 78.1348 170.597 78.0811C170.517 78.0275 170.455 77.9522 170.416 77.8641L169.77 76.7228L169.124 77.8641C169.086 77.9551 169.022 78.0334 168.941 78.0898C168.86 78.1462 168.764 78.1783 168.665 78.1824Z" fill="#040605"/>
<path d="M175.809 78.1824C175.747 78.1824 175.687 78.17 175.631 78.146C175.575 78.122 175.524 78.0868 175.482 78.0426C175.436 77.997 175.399 77.9425 175.375 77.8824C175.351 77.8223 175.34 77.758 175.342 77.6933C175.345 77.5845 175.375 77.478 175.427 77.3827L176.128 76.2958H174.696C174.631 76.2996 174.566 76.289 174.505 76.2649C174.445 76.2407 174.39 76.2035 174.346 76.156C174.261 76.0654 174.214 75.9461 174.214 75.8222C174.214 75.6982 174.261 75.5789 174.346 75.4883C174.39 75.4408 174.445 75.4036 174.505 75.3794C174.566 75.3553 174.631 75.3448 174.696 75.3486L176.104 75.3874L175.443 74.3393C175.38 74.2359 175.346 74.1183 175.342 73.9976C175.34 73.9342 175.35 73.8709 175.373 73.8116C175.396 73.7524 175.431 73.6983 175.475 73.6527C175.519 73.607 175.572 73.5708 175.631 73.546C175.69 73.5212 175.753 73.5085 175.816 73.5085C175.903 73.5072 175.989 73.5316 176.062 73.5785C176.136 73.6255 176.194 73.6929 176.229 73.7725L176.914 74.9914L177.567 73.8268C177.608 73.7362 177.674 73.6586 177.756 73.6025C177.838 73.5464 177.934 73.5139 178.034 73.5085C178.095 73.5066 178.157 73.5181 178.213 73.5422C178.269 73.5664 178.32 73.6026 178.361 73.6483C178.406 73.6909 178.443 73.7427 178.467 73.8003C178.491 73.8578 178.502 73.9198 178.501 73.9821C178.5 74.0924 178.468 74.2001 178.408 74.2927L177.723 75.3874L179.147 75.3486C179.213 75.3447 179.279 75.3551 179.341 75.3793C179.403 75.4034 179.459 75.4406 179.505 75.4883C179.585 75.5812 179.629 75.6997 179.629 75.8222C179.629 75.9447 179.585 76.0631 179.505 76.156C179.459 76.2037 179.403 76.2409 179.341 76.2651C179.279 76.2892 179.213 76.2997 179.147 76.2958H177.707L178.345 77.2895C178.417 77.4095 178.457 77.5458 178.462 77.6855C178.464 77.7467 178.454 77.8077 178.433 77.865C178.411 77.9223 178.378 77.9748 178.336 78.0195C178.294 78.0642 178.244 78.1002 178.188 78.1255C178.132 78.1508 178.072 78.1648 178.011 78.1668C177.914 78.1645 177.821 78.1348 177.741 78.0811C177.661 78.0275 177.598 77.9522 177.559 77.8641L176.914 76.7228L176.268 77.8641C176.229 77.9551 176.166 78.0334 176.084 78.0898C176.003 78.1462 175.907 78.1783 175.809 78.1824Z" fill="#040605"/>
<path d="M182.921 78.1824C182.86 78.1824 182.799 78.17 182.743 78.146C182.687 78.122 182.636 78.0868 182.594 78.0426C182.548 77.997 182.512 77.9425 182.488 77.8824C182.464 77.8223 182.452 77.758 182.454 77.6933C182.458 77.5845 182.487 77.478 182.54 77.3827L183.24 76.2958H181.808C181.743 76.2996 181.678 76.289 181.617 76.2649C181.557 76.2407 181.502 76.2035 181.458 76.156C181.373 76.0654 181.326 75.9461 181.326 75.8222C181.326 75.6982 181.373 75.5789 181.458 75.4883C181.502 75.4408 181.557 75.4036 181.617 75.3794C181.678 75.3553 181.743 75.3448 181.808 75.3486L183.217 75.3874L182.555 74.3393C182.493 74.2359 182.458 74.1183 182.454 73.9976C182.452 73.933 182.464 73.8686 182.488 73.8085C182.512 73.7484 182.548 73.6939 182.594 73.6483C182.638 73.6039 182.69 73.5686 182.747 73.5446C182.805 73.5206 182.866 73.5084 182.929 73.5085C183.016 73.5072 183.101 73.5316 183.175 73.5785C183.248 73.6255 183.306 73.6929 183.341 73.7725L184.026 74.9914L184.679 73.8268C184.721 73.7362 184.786 73.6586 184.868 73.6025C184.951 73.5464 185.047 73.5139 185.146 73.5085C185.208 73.5066 185.269 73.5181 185.325 73.5422C185.382 73.5664 185.432 73.6026 185.473 73.6483C185.519 73.6909 185.555 73.7427 185.579 73.8003C185.603 73.8578 185.615 73.9198 185.613 73.9821C185.612 74.0924 185.58 74.2001 185.52 74.2927L184.835 75.3874L186.259 75.3486C186.325 75.3447 186.392 75.3551 186.453 75.3793C186.515 75.4034 186.571 75.4406 186.617 75.4883C186.697 75.5812 186.741 75.6997 186.741 75.8222C186.741 75.9447 186.697 76.0631 186.617 76.156C186.571 76.2037 186.515 76.2409 186.453 76.2651C186.392 76.2892 186.325 76.2997 186.259 76.2958H184.82L185.458 77.2895C185.53 77.4095 185.57 77.5458 185.574 77.6855C185.577 77.7484 185.566 77.8111 185.543 77.8698C185.52 77.9285 185.486 77.982 185.442 78.0271C185.401 78.0707 185.352 78.1055 185.297 78.1295C185.242 78.1536 185.183 78.1662 185.123 78.1668C185.027 78.1645 184.933 78.1348 184.853 78.0811C184.773 78.0275 184.71 77.9522 184.672 77.8641L184.026 76.7228L183.38 77.8641C183.342 77.9551 183.278 78.0334 183.197 78.0898C183.115 78.1462 183.02 78.1783 182.921 78.1824Z" fill="#040605"/>
<path d="M207.401 95.3562H216.918" stroke="white" stroke-width="3" stroke-linecap="round" stroke-linejoin="round"/>
<path d="M75.4044 25.4423V88.5083C75.4044 90.3348 76.1315 92.0864 77.4259 93.3779C78.7203 94.6694 80.4759 95.3949 82.3065 95.3949H198.367" stroke="white" stroke-width="3" stroke-linecap="round" stroke-linejoin="round"/>
<path d="M75.4044 8.71887V18.1753" stroke="white" stroke-width="3" stroke-linecap="round" stroke-linejoin="round"/>
</svg>
